%TF.GenerationSoftware,KiCad,Pcbnew,(6.0.2)*%
%TF.CreationDate,2022-05-23T20:35:17+03:00*%
%TF.ProjectId,The_Qi_wireless_charger_tx,5468655f-5169-45f7-9769-72656c657373,Rev 2*%
%TF.SameCoordinates,Original*%
%TF.FileFunction,Legend,Top*%
%TF.FilePolarity,Positive*%
%FSLAX46Y46*%
G04 Gerber Fmt 4.6, Leading zero omitted, Abs format (unit mm)*
G04 Created by KiCad (PCBNEW (6.0.2)) date 2022-05-23 20:35:17*
%MOMM*%
%LPD*%
G01*
G04 APERTURE LIST*
%ADD10C,0.150000*%
%ADD11C,0.120000*%
%ADD12C,0.125000*%
%ADD13C,0.112500*%
%ADD14C,0.127000*%
%ADD15C,0.200000*%
%ADD16C,0.250000*%
G04 APERTURE END LIST*
D10*
X27442857Y-132690476D02*
X27442857Y-133300000D01*
X27138095Y-132995238D02*
X27747619Y-132995238D01*
X27938095Y-133604761D02*
X27938095Y-134100000D01*
X27633333Y-133833333D01*
X27633333Y-133947619D01*
X27595238Y-134023809D01*
X27557142Y-134061904D01*
X27480952Y-134100000D01*
X27290476Y-134100000D01*
X27214285Y-134061904D01*
X27176190Y-134023809D01*
X27138095Y-133947619D01*
X27138095Y-133719047D01*
X27176190Y-133642857D01*
X27214285Y-133604761D01*
X27938095Y-134328571D02*
X27138095Y-134595238D01*
X27938095Y-134861904D01*
X27938095Y-135052380D02*
X27938095Y-135547619D01*
X27633333Y-135280952D01*
X27633333Y-135395238D01*
X27595238Y-135471428D01*
X27557142Y-135509523D01*
X27480952Y-135547619D01*
X27290476Y-135547619D01*
X27214285Y-135509523D01*
X27176190Y-135471428D01*
X27138095Y-135395238D01*
X27138095Y-135166666D01*
X27176190Y-135090476D01*
X27214285Y-135052380D01*
X27800000Y-141290476D02*
X27838095Y-141214285D01*
X27838095Y-141100000D01*
X27800000Y-140985714D01*
X27723809Y-140909523D01*
X27647619Y-140871428D01*
X27495238Y-140833333D01*
X27380952Y-140833333D01*
X27228571Y-140871428D01*
X27152380Y-140909523D01*
X27076190Y-140985714D01*
X27038095Y-141100000D01*
X27038095Y-141176190D01*
X27076190Y-141290476D01*
X27114285Y-141328571D01*
X27380952Y-141328571D01*
X27380952Y-141176190D01*
X27038095Y-141671428D02*
X27838095Y-141671428D01*
X27038095Y-142128571D01*
X27838095Y-142128571D01*
X27038095Y-142509523D02*
X27838095Y-142509523D01*
X27838095Y-142700000D01*
X27800000Y-142814285D01*
X27723809Y-142890476D01*
X27647619Y-142928571D01*
X27495238Y-142966666D01*
X27380952Y-142966666D01*
X27228571Y-142928571D01*
X27152380Y-142890476D01*
X27076190Y-142814285D01*
X27038095Y-142700000D01*
X27038095Y-142509523D01*
X28038095Y-138890476D02*
X28038095Y-139347619D01*
X27238095Y-139119047D02*
X28038095Y-139119047D01*
X28038095Y-139538095D02*
X27238095Y-140071428D01*
X28038095Y-140071428D02*
X27238095Y-139538095D01*
X27138095Y-136766666D02*
X27519047Y-136500000D01*
X27138095Y-136309523D02*
X27938095Y-136309523D01*
X27938095Y-136614285D01*
X27900000Y-136690476D01*
X27861904Y-136728571D01*
X27785714Y-136766666D01*
X27671428Y-136766666D01*
X27595238Y-136728571D01*
X27557142Y-136690476D01*
X27519047Y-136614285D01*
X27519047Y-136309523D01*
X27938095Y-137033333D02*
X27138095Y-137566666D01*
X27938095Y-137566666D02*
X27138095Y-137033333D01*
X88502380Y-145366666D02*
X88502380Y-144747619D01*
X88883333Y-145080952D01*
X88883333Y-144938095D01*
X88930952Y-144842857D01*
X88978571Y-144795238D01*
X89073809Y-144747619D01*
X89311904Y-144747619D01*
X89407142Y-144795238D01*
X89454761Y-144842857D01*
X89502380Y-144938095D01*
X89502380Y-145223809D01*
X89454761Y-145319047D01*
X89407142Y-145366666D01*
X88930952Y-144176190D02*
X88883333Y-144271428D01*
X88835714Y-144319047D01*
X88740476Y-144366666D01*
X88692857Y-144366666D01*
X88597619Y-144319047D01*
X88550000Y-144271428D01*
X88502380Y-144176190D01*
X88502380Y-143985714D01*
X88550000Y-143890476D01*
X88597619Y-143842857D01*
X88692857Y-143795238D01*
X88740476Y-143795238D01*
X88835714Y-143842857D01*
X88883333Y-143890476D01*
X88930952Y-143985714D01*
X88930952Y-144176190D01*
X88978571Y-144271428D01*
X89026190Y-144319047D01*
X89121428Y-144366666D01*
X89311904Y-144366666D01*
X89407142Y-144319047D01*
X89454761Y-144271428D01*
X89502380Y-144176190D01*
X89502380Y-143985714D01*
X89454761Y-143890476D01*
X89407142Y-143842857D01*
X89311904Y-143795238D01*
X89121428Y-143795238D01*
X89026190Y-143842857D01*
X88978571Y-143890476D01*
X88930952Y-143985714D01*
X89407142Y-143366666D02*
X89454761Y-143319047D01*
X89502380Y-143366666D01*
X89454761Y-143414285D01*
X89407142Y-143366666D01*
X89502380Y-143366666D01*
X88502380Y-142700000D02*
X88502380Y-142604761D01*
X88550000Y-142509523D01*
X88597619Y-142461904D01*
X88692857Y-142414285D01*
X88883333Y-142366666D01*
X89121428Y-142366666D01*
X89311904Y-142414285D01*
X89407142Y-142461904D01*
X89454761Y-142509523D01*
X89502380Y-142604761D01*
X89502380Y-142700000D01*
X89454761Y-142795238D01*
X89407142Y-142842857D01*
X89311904Y-142890476D01*
X89121428Y-142938095D01*
X88883333Y-142938095D01*
X88692857Y-142890476D01*
X88597619Y-142842857D01*
X88550000Y-142795238D01*
X88502380Y-142700000D01*
X88502380Y-141747619D02*
X88502380Y-141652380D01*
X88550000Y-141557142D01*
X88597619Y-141509523D01*
X88692857Y-141461904D01*
X88883333Y-141414285D01*
X89121428Y-141414285D01*
X89311904Y-141461904D01*
X89407142Y-141509523D01*
X89454761Y-141557142D01*
X89502380Y-141652380D01*
X89502380Y-141747619D01*
X89454761Y-141842857D01*
X89407142Y-141890476D01*
X89311904Y-141938095D01*
X89121428Y-141985714D01*
X88883333Y-141985714D01*
X88692857Y-141938095D01*
X88597619Y-141890476D01*
X88550000Y-141842857D01*
X88502380Y-141747619D01*
X88502380Y-140795238D02*
X88502380Y-140700000D01*
X88550000Y-140604761D01*
X88597619Y-140557142D01*
X88692857Y-140509523D01*
X88883333Y-140461904D01*
X89121428Y-140461904D01*
X89311904Y-140509523D01*
X89407142Y-140557142D01*
X89454761Y-140604761D01*
X89502380Y-140700000D01*
X89502380Y-140795238D01*
X89454761Y-140890476D01*
X89407142Y-140938095D01*
X89311904Y-140985714D01*
X89121428Y-141033333D01*
X88883333Y-141033333D01*
X88692857Y-140985714D01*
X88597619Y-140938095D01*
X88550000Y-140890476D01*
X88502380Y-140795238D01*
X88502380Y-139842857D02*
X88502380Y-139747619D01*
X88550000Y-139652380D01*
X88597619Y-139604761D01*
X88692857Y-139557142D01*
X88883333Y-139509523D01*
X89121428Y-139509523D01*
X89311904Y-139557142D01*
X89407142Y-139604761D01*
X89454761Y-139652380D01*
X89502380Y-139747619D01*
X89502380Y-139842857D01*
X89454761Y-139938095D01*
X89407142Y-139985714D01*
X89311904Y-140033333D01*
X89121428Y-140080952D01*
X88883333Y-140080952D01*
X88692857Y-140033333D01*
X88597619Y-139985714D01*
X88550000Y-139938095D01*
X88502380Y-139842857D01*
X89502380Y-138319047D02*
X88835714Y-138319047D01*
X88930952Y-138319047D02*
X88883333Y-138271428D01*
X88835714Y-138176190D01*
X88835714Y-138033333D01*
X88883333Y-137938095D01*
X88978571Y-137890476D01*
X89502380Y-137890476D01*
X88978571Y-137890476D02*
X88883333Y-137842857D01*
X88835714Y-137747619D01*
X88835714Y-137604761D01*
X88883333Y-137509523D01*
X88978571Y-137461904D01*
X89502380Y-137461904D01*
X89502380Y-136985714D02*
X88835714Y-136985714D01*
X88930952Y-136985714D02*
X88883333Y-136938095D01*
X88835714Y-136842857D01*
X88835714Y-136700000D01*
X88883333Y-136604761D01*
X88978571Y-136557142D01*
X89502380Y-136557142D01*
X88978571Y-136557142D02*
X88883333Y-136509523D01*
X88835714Y-136414285D01*
X88835714Y-136271428D01*
X88883333Y-136176190D01*
X88978571Y-136128571D01*
X89502380Y-136128571D01*
D11*
X84400000Y-159700000D02*
X90786420Y-159700000D01*
X84400000Y-121700000D02*
X90786420Y-121700000D01*
X90200000Y-159700000D02*
X90200000Y-121700000D01*
X90200000Y-159700000D02*
X90200000Y-121700000D01*
X90200000Y-159700000D02*
X90786421Y-158573496D01*
X90200000Y-159700000D02*
X89613579Y-158573496D01*
X90200000Y-121700000D02*
X89613579Y-122826504D01*
X90200000Y-121700000D02*
X90786421Y-122826504D01*
D10*
X49507142Y-160702379D02*
X49316666Y-160702379D01*
X49221428Y-160749999D01*
X49173809Y-160797618D01*
X49078571Y-160940475D01*
X49030952Y-161130951D01*
X49030952Y-161511903D01*
X49078571Y-161607141D01*
X49126190Y-161654760D01*
X49221428Y-161702379D01*
X49411904Y-161702379D01*
X49507142Y-161654760D01*
X49554761Y-161607141D01*
X49602380Y-161511903D01*
X49602380Y-161273808D01*
X49554761Y-161178570D01*
X49507142Y-161130951D01*
X49411904Y-161083332D01*
X49221428Y-161083332D01*
X49126190Y-161130951D01*
X49078571Y-161178570D01*
X49030952Y-161273808D01*
X50221428Y-160702379D02*
X50316666Y-160702379D01*
X50411904Y-160749999D01*
X50459523Y-160797618D01*
X50507142Y-160892856D01*
X50554761Y-161083332D01*
X50554761Y-161321427D01*
X50507142Y-161511903D01*
X50459523Y-161607141D01*
X50411904Y-161654760D01*
X50316666Y-161702379D01*
X50221428Y-161702379D01*
X50126190Y-161654760D01*
X50078571Y-161607141D01*
X50030952Y-161511903D01*
X49983333Y-161321427D01*
X49983333Y-161083332D01*
X50030952Y-160892856D01*
X50078571Y-160797618D01*
X50126190Y-160749999D01*
X50221428Y-160702379D01*
X50983333Y-161607141D02*
X51030952Y-161654760D01*
X50983333Y-161702379D01*
X50935714Y-161654760D01*
X50983333Y-161607141D01*
X50983333Y-161702379D01*
X51935714Y-160702379D02*
X51459523Y-160702379D01*
X51411904Y-161178570D01*
X51459523Y-161130951D01*
X51554761Y-161083332D01*
X51792857Y-161083332D01*
X51888095Y-161130951D01*
X51935714Y-161178570D01*
X51983333Y-161273808D01*
X51983333Y-161511903D01*
X51935714Y-161607141D01*
X51888095Y-161654760D01*
X51792857Y-161702379D01*
X51554761Y-161702379D01*
X51459523Y-161654760D01*
X51411904Y-161607141D01*
X52602380Y-160702379D02*
X52697619Y-160702379D01*
X52792857Y-160749999D01*
X52840476Y-160797618D01*
X52888095Y-160892856D01*
X52935714Y-161083332D01*
X52935714Y-161321427D01*
X52888095Y-161511903D01*
X52840476Y-161607141D01*
X52792857Y-161654760D01*
X52697619Y-161702379D01*
X52602380Y-161702379D01*
X52507142Y-161654760D01*
X52459523Y-161607141D01*
X52411904Y-161511903D01*
X52364285Y-161321427D01*
X52364285Y-161083332D01*
X52411904Y-160892856D01*
X52459523Y-160797618D01*
X52507142Y-160749999D01*
X52602380Y-160702379D01*
X53554761Y-160702379D02*
X53649999Y-160702379D01*
X53745238Y-160749999D01*
X53792857Y-160797618D01*
X53840476Y-160892856D01*
X53888095Y-161083332D01*
X53888095Y-161321427D01*
X53840476Y-161511903D01*
X53792857Y-161607141D01*
X53745238Y-161654760D01*
X53649999Y-161702379D01*
X53554761Y-161702379D01*
X53459523Y-161654760D01*
X53411904Y-161607141D01*
X53364285Y-161511903D01*
X53316666Y-161321427D01*
X53316666Y-161083332D01*
X53364285Y-160892856D01*
X53411904Y-160797618D01*
X53459523Y-160749999D01*
X53554761Y-160702379D01*
X54507142Y-160702379D02*
X54602380Y-160702379D01*
X54697619Y-160749999D01*
X54745238Y-160797618D01*
X54792857Y-160892856D01*
X54840476Y-161083332D01*
X54840476Y-161321427D01*
X54792857Y-161511903D01*
X54745238Y-161607141D01*
X54697619Y-161654760D01*
X54602380Y-161702379D01*
X54507142Y-161702379D01*
X54411904Y-161654760D01*
X54364285Y-161607141D01*
X54316666Y-161511903D01*
X54269047Y-161321427D01*
X54269047Y-161083332D01*
X54316666Y-160892856D01*
X54364285Y-160797618D01*
X54411904Y-160749999D01*
X54507142Y-160702379D01*
X56030952Y-161702379D02*
X56030952Y-161035713D01*
X56030952Y-161130951D02*
X56078571Y-161083332D01*
X56173809Y-161035713D01*
X56316666Y-161035713D01*
X56411904Y-161083332D01*
X56459523Y-161178570D01*
X56459523Y-161702379D01*
X56459523Y-161178570D02*
X56507142Y-161083332D01*
X56602380Y-161035713D01*
X56745238Y-161035713D01*
X56840476Y-161083332D01*
X56888095Y-161178570D01*
X56888095Y-161702379D01*
X57364285Y-161702379D02*
X57364285Y-161035713D01*
X57364285Y-161130951D02*
X57411904Y-161083332D01*
X57507142Y-161035713D01*
X57650000Y-161035713D01*
X57745238Y-161083332D01*
X57792857Y-161178570D01*
X57792857Y-161702379D01*
X57792857Y-161178570D02*
X57840476Y-161083332D01*
X57935714Y-161035713D01*
X58078571Y-161035713D01*
X58173809Y-161083332D01*
X58221428Y-161178570D01*
X58221428Y-161702379D01*
D11*
X23400000Y-160200000D02*
X23400000Y-162986419D01*
X83900000Y-160200000D02*
X83900000Y-162986419D01*
X23400000Y-162399999D02*
X83900000Y-162399999D01*
X23400000Y-162399999D02*
X83900000Y-162399999D01*
X23400000Y-162399999D02*
X24526504Y-162986420D01*
X23400000Y-162399999D02*
X24526504Y-161813578D01*
X83900000Y-162399999D02*
X82773496Y-161813578D01*
X83900000Y-162399999D02*
X82773496Y-162986420D01*
X26580000Y-127920000D02*
X26590000Y-127250000D01*
X29120000Y-125240000D02*
X28450000Y-125230000D01*
X28790000Y-124820000D02*
X29120000Y-125240000D01*
X28790000Y-124820000D02*
X28450000Y-125230000D01*
X28510000Y-124780000D02*
X29090000Y-124780000D01*
X28790000Y-124060000D02*
X28810000Y-126580000D01*
X27000000Y-127590000D02*
X26590000Y-127250000D01*
X27072500Y-127310000D02*
X27072500Y-127890000D01*
X27760000Y-127590000D02*
X25240000Y-127610000D01*
X27000000Y-127590000D02*
X26580000Y-127920000D01*
D10*
X28371428Y-123042857D02*
X28457142Y-123071428D01*
X28600000Y-123071428D01*
X28657142Y-123042857D01*
X28685714Y-123014285D01*
X28714285Y-122957142D01*
X28714285Y-122900000D01*
X28685714Y-122842857D01*
X28657142Y-122814285D01*
X28600000Y-122785714D01*
X28485714Y-122757142D01*
X28428571Y-122728571D01*
X28400000Y-122700000D01*
X28371428Y-122642857D01*
X28371428Y-122585714D01*
X28400000Y-122528571D01*
X28428571Y-122500000D01*
X28485714Y-122471428D01*
X28628571Y-122471428D01*
X28714285Y-122500000D01*
X28885714Y-122471428D02*
X29228571Y-122471428D01*
X29057142Y-123071428D02*
X29057142Y-122471428D01*
X29400000Y-122900000D02*
X29685714Y-122900000D01*
X29342857Y-123071428D02*
X29542857Y-122471428D01*
X29742857Y-123071428D01*
X29857142Y-122471428D02*
X30200000Y-122471428D01*
X30028571Y-123071428D02*
X30028571Y-122471428D01*
X30400000Y-122471428D02*
X30400000Y-122957142D01*
X30428571Y-123014285D01*
X30457142Y-123042857D01*
X30514285Y-123071428D01*
X30628571Y-123071428D01*
X30685714Y-123042857D01*
X30714285Y-123014285D01*
X30742857Y-122957142D01*
X30742857Y-122471428D01*
X31000000Y-123042857D02*
X31085714Y-123071428D01*
X31228571Y-123071428D01*
X31285714Y-123042857D01*
X31314285Y-123014285D01*
X31342857Y-122957142D01*
X31342857Y-122900000D01*
X31314285Y-122842857D01*
X31285714Y-122814285D01*
X31228571Y-122785714D01*
X31114285Y-122757142D01*
X31057142Y-122728571D01*
X31028571Y-122700000D01*
X31000000Y-122642857D01*
X31000000Y-122585714D01*
X31028571Y-122528571D01*
X31057142Y-122500000D01*
X31114285Y-122471428D01*
X31257142Y-122471428D01*
X31342857Y-122500000D01*
X32342857Y-123071428D02*
X32057142Y-123071428D01*
X32057142Y-122471428D01*
X32542857Y-122757142D02*
X32742857Y-122757142D01*
X32828571Y-123071428D02*
X32542857Y-123071428D01*
X32542857Y-122471428D01*
X32828571Y-122471428D01*
X33085714Y-123071428D02*
X33085714Y-122471428D01*
X33228571Y-122471428D01*
X33314285Y-122500000D01*
X33371428Y-122557142D01*
X33400000Y-122614285D01*
X33428571Y-122728571D01*
X33428571Y-122814285D01*
X33400000Y-122928571D01*
X33371428Y-122985714D01*
X33314285Y-123042857D01*
X33228571Y-123071428D01*
X33085714Y-123071428D01*
X24157142Y-131385714D02*
X24157142Y-131185714D01*
X24471428Y-131100000D02*
X24471428Y-131385714D01*
X23871428Y-131385714D01*
X23871428Y-131100000D01*
X24471428Y-130500000D02*
X24185714Y-130700000D01*
X24471428Y-130842857D02*
X23871428Y-130842857D01*
X23871428Y-130614285D01*
X23900000Y-130557142D01*
X23928571Y-130528571D01*
X23985714Y-130500000D01*
X24071428Y-130500000D01*
X24128571Y-130528571D01*
X24157142Y-130557142D01*
X24185714Y-130614285D01*
X24185714Y-130842857D01*
X24471428Y-129900000D02*
X24185714Y-130100000D01*
X24471428Y-130242857D02*
X23871428Y-130242857D01*
X23871428Y-130014285D01*
X23900000Y-129957142D01*
X23928571Y-129928571D01*
X23985714Y-129900000D01*
X24071428Y-129900000D01*
X24128571Y-129928571D01*
X24157142Y-129957142D01*
X24185714Y-130014285D01*
X24185714Y-130242857D01*
X23871428Y-129528571D02*
X23871428Y-129414285D01*
X23900000Y-129357142D01*
X23957142Y-129300000D01*
X24071428Y-129271428D01*
X24271428Y-129271428D01*
X24385714Y-129300000D01*
X24442857Y-129357142D01*
X24471428Y-129414285D01*
X24471428Y-129528571D01*
X24442857Y-129585714D01*
X24385714Y-129642857D01*
X24271428Y-129671428D01*
X24071428Y-129671428D01*
X23957142Y-129642857D01*
X23900000Y-129585714D01*
X23871428Y-129528571D01*
X24471428Y-128671428D02*
X24185714Y-128871428D01*
X24471428Y-129014285D02*
X23871428Y-129014285D01*
X23871428Y-128785714D01*
X23900000Y-128728571D01*
X23928571Y-128700000D01*
X23985714Y-128671428D01*
X24071428Y-128671428D01*
X24128571Y-128700000D01*
X24157142Y-128728571D01*
X24185714Y-128785714D01*
X24185714Y-129014285D01*
X24471428Y-127671428D02*
X24471428Y-127957142D01*
X23871428Y-127957142D01*
X24157142Y-127471428D02*
X24157142Y-127271428D01*
X24471428Y-127185714D02*
X24471428Y-127471428D01*
X23871428Y-127471428D01*
X23871428Y-127185714D01*
X24471428Y-126928571D02*
X23871428Y-126928571D01*
X23871428Y-126785714D01*
X23900000Y-126700000D01*
X23957142Y-126642857D01*
X24014285Y-126614285D01*
X24128571Y-126585714D01*
X24214285Y-126585714D01*
X24328571Y-126614285D01*
X24385714Y-126642857D01*
X24442857Y-126700000D01*
X24471428Y-126785714D01*
X24471428Y-126928571D01*
%TO.C,L4*%
X52575000Y-128739285D02*
X52217857Y-128739285D01*
X52217857Y-127989285D01*
X53146428Y-128239285D02*
X53146428Y-128739285D01*
X52967857Y-127953571D02*
X52789285Y-128489285D01*
X53253571Y-128489285D01*
%TO.C,U6*%
X82252380Y-155861904D02*
X83061904Y-155861904D01*
X83157142Y-155814285D01*
X83204761Y-155766666D01*
X83252380Y-155671428D01*
X83252380Y-155480952D01*
X83204761Y-155385714D01*
X83157142Y-155338095D01*
X83061904Y-155290476D01*
X82252380Y-155290476D01*
X82252380Y-154385714D02*
X82252380Y-154576190D01*
X82300000Y-154671428D01*
X82347619Y-154719047D01*
X82490476Y-154814285D01*
X82680952Y-154861904D01*
X83061904Y-154861904D01*
X83157142Y-154814285D01*
X83204761Y-154766666D01*
X83252380Y-154671428D01*
X83252380Y-154480952D01*
X83204761Y-154385714D01*
X83157142Y-154338095D01*
X83061904Y-154290476D01*
X82823809Y-154290476D01*
X82728571Y-154338095D01*
X82680952Y-154385714D01*
X82633333Y-154480952D01*
X82633333Y-154671428D01*
X82680952Y-154766666D01*
X82728571Y-154814285D01*
X82823809Y-154861904D01*
%TO.C,U8*%
X53904285Y-140521428D02*
X54511428Y-140521428D01*
X54582857Y-140485714D01*
X54618571Y-140450000D01*
X54654285Y-140378571D01*
X54654285Y-140235714D01*
X54618571Y-140164285D01*
X54582857Y-140128571D01*
X54511428Y-140092857D01*
X53904285Y-140092857D01*
X54225714Y-139628571D02*
X54190000Y-139700000D01*
X54154285Y-139735714D01*
X54082857Y-139771428D01*
X54047142Y-139771428D01*
X53975714Y-139735714D01*
X53940000Y-139700000D01*
X53904285Y-139628571D01*
X53904285Y-139485714D01*
X53940000Y-139414285D01*
X53975714Y-139378571D01*
X54047142Y-139342857D01*
X54082857Y-139342857D01*
X54154285Y-139378571D01*
X54190000Y-139414285D01*
X54225714Y-139485714D01*
X54225714Y-139628571D01*
X54261428Y-139700000D01*
X54297142Y-139735714D01*
X54368571Y-139771428D01*
X54511428Y-139771428D01*
X54582857Y-139735714D01*
X54618571Y-139700000D01*
X54654285Y-139628571D01*
X54654285Y-139485714D01*
X54618571Y-139414285D01*
X54582857Y-139378571D01*
X54511428Y-139342857D01*
X54368571Y-139342857D01*
X54297142Y-139378571D01*
X54261428Y-139414285D01*
X54225714Y-139485714D01*
%TO.C,U7*%
X44083660Y-133616428D02*
X44690803Y-133616428D01*
X44762232Y-133580714D01*
X44797946Y-133545000D01*
X44833660Y-133473571D01*
X44833660Y-133330714D01*
X44797946Y-133259285D01*
X44762232Y-133223571D01*
X44690803Y-133187857D01*
X44083660Y-133187857D01*
X44083660Y-132902142D02*
X44083660Y-132402142D01*
X44833660Y-132723571D01*
%TO.C,C19*%
X63917857Y-146567857D02*
X63882142Y-146603571D01*
X63775000Y-146639285D01*
X63703571Y-146639285D01*
X63596428Y-146603571D01*
X63525000Y-146532142D01*
X63489285Y-146460714D01*
X63453571Y-146317857D01*
X63453571Y-146210714D01*
X63489285Y-146067857D01*
X63525000Y-145996428D01*
X63596428Y-145925000D01*
X63703571Y-145889285D01*
X63775000Y-145889285D01*
X63882142Y-145925000D01*
X63917857Y-145960714D01*
X64632142Y-146639285D02*
X64203571Y-146639285D01*
X64417857Y-146639285D02*
X64417857Y-145889285D01*
X64346428Y-145996428D01*
X64275000Y-146067857D01*
X64203571Y-146103571D01*
X64989285Y-146639285D02*
X65132142Y-146639285D01*
X65203571Y-146603571D01*
X65239285Y-146567857D01*
X65310714Y-146460714D01*
X65346428Y-146317857D01*
X65346428Y-146032142D01*
X65310714Y-145960714D01*
X65275000Y-145925000D01*
X65203571Y-145889285D01*
X65060714Y-145889285D01*
X64989285Y-145925000D01*
X64953571Y-145960714D01*
X64917857Y-146032142D01*
X64917857Y-146210714D01*
X64953571Y-146282142D01*
X64989285Y-146317857D01*
X65060714Y-146353571D01*
X65203571Y-146353571D01*
X65275000Y-146317857D01*
X65310714Y-146282142D01*
X65346428Y-146210714D01*
%TO.C,C23*%
X63952857Y-144862142D02*
X63988571Y-144897857D01*
X64024285Y-145005000D01*
X64024285Y-145076428D01*
X63988571Y-145183571D01*
X63917142Y-145255000D01*
X63845714Y-145290714D01*
X63702857Y-145326428D01*
X63595714Y-145326428D01*
X63452857Y-145290714D01*
X63381428Y-145255000D01*
X63310000Y-145183571D01*
X63274285Y-145076428D01*
X63274285Y-145005000D01*
X63310000Y-144897857D01*
X63345714Y-144862142D01*
X63345714Y-144576428D02*
X63310000Y-144540714D01*
X63274285Y-144469285D01*
X63274285Y-144290714D01*
X63310000Y-144219285D01*
X63345714Y-144183571D01*
X63417142Y-144147857D01*
X63488571Y-144147857D01*
X63595714Y-144183571D01*
X64024285Y-144612142D01*
X64024285Y-144147857D01*
X63274285Y-143897857D02*
X63274285Y-143433571D01*
X63560000Y-143683571D01*
X63560000Y-143576428D01*
X63595714Y-143505000D01*
X63631428Y-143469285D01*
X63702857Y-143433571D01*
X63881428Y-143433571D01*
X63952857Y-143469285D01*
X63988571Y-143505000D01*
X64024285Y-143576428D01*
X64024285Y-143790714D01*
X63988571Y-143862142D01*
X63952857Y-143897857D01*
%TO.C,C27*%
X57667857Y-154332142D02*
X57703571Y-154367857D01*
X57739285Y-154475000D01*
X57739285Y-154546428D01*
X57703571Y-154653571D01*
X57632142Y-154725000D01*
X57560714Y-154760714D01*
X57417857Y-154796428D01*
X57310714Y-154796428D01*
X57167857Y-154760714D01*
X57096428Y-154725000D01*
X57025000Y-154653571D01*
X56989285Y-154546428D01*
X56989285Y-154475000D01*
X57025000Y-154367857D01*
X57060714Y-154332142D01*
X57060714Y-154046428D02*
X57025000Y-154010714D01*
X56989285Y-153939285D01*
X56989285Y-153760714D01*
X57025000Y-153689285D01*
X57060714Y-153653571D01*
X57132142Y-153617857D01*
X57203571Y-153617857D01*
X57310714Y-153653571D01*
X57739285Y-154082142D01*
X57739285Y-153617857D01*
X56989285Y-153367857D02*
X56989285Y-152867857D01*
X57739285Y-153189285D01*
%TO.C,C29*%
X72467857Y-154682142D02*
X72503571Y-154717857D01*
X72539285Y-154825000D01*
X72539285Y-154896428D01*
X72503571Y-155003571D01*
X72432142Y-155075000D01*
X72360714Y-155110714D01*
X72217857Y-155146428D01*
X72110714Y-155146428D01*
X71967857Y-155110714D01*
X71896428Y-155075000D01*
X71825000Y-155003571D01*
X71789285Y-154896428D01*
X71789285Y-154825000D01*
X71825000Y-154717857D01*
X71860714Y-154682142D01*
X71860714Y-154396428D02*
X71825000Y-154360714D01*
X71789285Y-154289285D01*
X71789285Y-154110714D01*
X71825000Y-154039285D01*
X71860714Y-154003571D01*
X71932142Y-153967857D01*
X72003571Y-153967857D01*
X72110714Y-154003571D01*
X72539285Y-154432142D01*
X72539285Y-153967857D01*
X72539285Y-153610714D02*
X72539285Y-153467857D01*
X72503571Y-153396428D01*
X72467857Y-153360714D01*
X72360714Y-153289285D01*
X72217857Y-153253571D01*
X71932142Y-153253571D01*
X71860714Y-153289285D01*
X71825000Y-153325000D01*
X71789285Y-153396428D01*
X71789285Y-153539285D01*
X71825000Y-153610714D01*
X71860714Y-153646428D01*
X71932142Y-153682142D01*
X72110714Y-153682142D01*
X72182142Y-153646428D01*
X72217857Y-153610714D01*
X72253571Y-153539285D01*
X72253571Y-153396428D01*
X72217857Y-153325000D01*
X72182142Y-153289285D01*
X72110714Y-153253571D01*
%TO.C,C31*%
X70817857Y-158882142D02*
X70853571Y-158917857D01*
X70889285Y-159025000D01*
X70889285Y-159096428D01*
X70853571Y-159203571D01*
X70782142Y-159275000D01*
X70710714Y-159310714D01*
X70567857Y-159346428D01*
X70460714Y-159346428D01*
X70317857Y-159310714D01*
X70246428Y-159275000D01*
X70175000Y-159203571D01*
X70139285Y-159096428D01*
X70139285Y-159025000D01*
X70175000Y-158917857D01*
X70210714Y-158882142D01*
X70139285Y-158632142D02*
X70139285Y-158167857D01*
X70425000Y-158417857D01*
X70425000Y-158310714D01*
X70460714Y-158239285D01*
X70496428Y-158203571D01*
X70567857Y-158167857D01*
X70746428Y-158167857D01*
X70817857Y-158203571D01*
X70853571Y-158239285D01*
X70889285Y-158310714D01*
X70889285Y-158525000D01*
X70853571Y-158596428D01*
X70817857Y-158632142D01*
X70889285Y-157453571D02*
X70889285Y-157882142D01*
X70889285Y-157667857D02*
X70139285Y-157667857D01*
X70246428Y-157739285D01*
X70317857Y-157810714D01*
X70353571Y-157882142D01*
%TO.C,C38*%
X61167857Y-125062142D02*
X61203571Y-125097857D01*
X61239285Y-125205000D01*
X61239285Y-125276428D01*
X61203571Y-125383571D01*
X61132142Y-125455000D01*
X61060714Y-125490714D01*
X60917857Y-125526428D01*
X60810714Y-125526428D01*
X60667857Y-125490714D01*
X60596428Y-125455000D01*
X60525000Y-125383571D01*
X60489285Y-125276428D01*
X60489285Y-125205000D01*
X60525000Y-125097857D01*
X60560714Y-125062142D01*
X60489285Y-124812142D02*
X60489285Y-124347857D01*
X60775000Y-124597857D01*
X60775000Y-124490714D01*
X60810714Y-124419285D01*
X60846428Y-124383571D01*
X60917857Y-124347857D01*
X61096428Y-124347857D01*
X61167857Y-124383571D01*
X61203571Y-124419285D01*
X61239285Y-124490714D01*
X61239285Y-124705000D01*
X61203571Y-124776428D01*
X61167857Y-124812142D01*
X60810714Y-123919285D02*
X60775000Y-123990714D01*
X60739285Y-124026428D01*
X60667857Y-124062142D01*
X60632142Y-124062142D01*
X60560714Y-124026428D01*
X60525000Y-123990714D01*
X60489285Y-123919285D01*
X60489285Y-123776428D01*
X60525000Y-123705000D01*
X60560714Y-123669285D01*
X60632142Y-123633571D01*
X60667857Y-123633571D01*
X60739285Y-123669285D01*
X60775000Y-123705000D01*
X60810714Y-123776428D01*
X60810714Y-123919285D01*
X60846428Y-123990714D01*
X60882142Y-124026428D01*
X60953571Y-124062142D01*
X61096428Y-124062142D01*
X61167857Y-124026428D01*
X61203571Y-123990714D01*
X61239285Y-123919285D01*
X61239285Y-123776428D01*
X61203571Y-123705000D01*
X61167857Y-123669285D01*
X61096428Y-123633571D01*
X60953571Y-123633571D01*
X60882142Y-123669285D01*
X60846428Y-123705000D01*
X60810714Y-123776428D01*
%TO.C,C42*%
X68187857Y-132377857D02*
X68152142Y-132413571D01*
X68045000Y-132449285D01*
X67973571Y-132449285D01*
X67866428Y-132413571D01*
X67795000Y-132342142D01*
X67759285Y-132270714D01*
X67723571Y-132127857D01*
X67723571Y-132020714D01*
X67759285Y-131877857D01*
X67795000Y-131806428D01*
X67866428Y-131735000D01*
X67973571Y-131699285D01*
X68045000Y-131699285D01*
X68152142Y-131735000D01*
X68187857Y-131770714D01*
X68830714Y-131949285D02*
X68830714Y-132449285D01*
X68652142Y-131663571D02*
X68473571Y-132199285D01*
X68937857Y-132199285D01*
X69187857Y-131770714D02*
X69223571Y-131735000D01*
X69295000Y-131699285D01*
X69473571Y-131699285D01*
X69545000Y-131735000D01*
X69580714Y-131770714D01*
X69616428Y-131842142D01*
X69616428Y-131913571D01*
X69580714Y-132020714D01*
X69152142Y-132449285D01*
X69616428Y-132449285D01*
%TO.C,D10*%
X35789285Y-123539285D02*
X35789285Y-122789285D01*
X35967857Y-122789285D01*
X36075000Y-122825000D01*
X36146428Y-122896428D01*
X36182142Y-122967857D01*
X36217857Y-123110714D01*
X36217857Y-123217857D01*
X36182142Y-123360714D01*
X36146428Y-123432142D01*
X36075000Y-123503571D01*
X35967857Y-123539285D01*
X35789285Y-123539285D01*
X36932142Y-123539285D02*
X36503571Y-123539285D01*
X36717857Y-123539285D02*
X36717857Y-122789285D01*
X36646428Y-122896428D01*
X36575000Y-122967857D01*
X36503571Y-123003571D01*
X37396428Y-122789285D02*
X37467857Y-122789285D01*
X37539285Y-122825000D01*
X37575000Y-122860714D01*
X37610714Y-122932142D01*
X37646428Y-123075000D01*
X37646428Y-123253571D01*
X37610714Y-123396428D01*
X37575000Y-123467857D01*
X37539285Y-123503571D01*
X37467857Y-123539285D01*
X37396428Y-123539285D01*
X37325000Y-123503571D01*
X37289285Y-123467857D01*
X37253571Y-123396428D01*
X37217857Y-123253571D01*
X37217857Y-123075000D01*
X37253571Y-122932142D01*
X37289285Y-122860714D01*
X37325000Y-122825000D01*
X37396428Y-122789285D01*
%TO.C,D11*%
X35889285Y-139587285D02*
X35889285Y-138837285D01*
X36067857Y-138837285D01*
X36175000Y-138873000D01*
X36246428Y-138944428D01*
X36282142Y-139015857D01*
X36317857Y-139158714D01*
X36317857Y-139265857D01*
X36282142Y-139408714D01*
X36246428Y-139480142D01*
X36175000Y-139551571D01*
X36067857Y-139587285D01*
X35889285Y-139587285D01*
X37032142Y-139587285D02*
X36603571Y-139587285D01*
X36817857Y-139587285D02*
X36817857Y-138837285D01*
X36746428Y-138944428D01*
X36675000Y-139015857D01*
X36603571Y-139051571D01*
X37746428Y-139587285D02*
X37317857Y-139587285D01*
X37532142Y-139587285D02*
X37532142Y-138837285D01*
X37460714Y-138944428D01*
X37389285Y-139015857D01*
X37317857Y-139051571D01*
%TO.C,FB1*%
X60606428Y-158507000D02*
X60606428Y-158757000D01*
X60999285Y-158757000D02*
X60249285Y-158757000D01*
X60249285Y-158399857D01*
X60606428Y-157864142D02*
X60642142Y-157757000D01*
X60677857Y-157721285D01*
X60749285Y-157685571D01*
X60856428Y-157685571D01*
X60927857Y-157721285D01*
X60963571Y-157757000D01*
X60999285Y-157828428D01*
X60999285Y-158114142D01*
X60249285Y-158114142D01*
X60249285Y-157864142D01*
X60285000Y-157792714D01*
X60320714Y-157757000D01*
X60392142Y-157721285D01*
X60463571Y-157721285D01*
X60535000Y-157757000D01*
X60570714Y-157792714D01*
X60606428Y-157864142D01*
X60606428Y-158114142D01*
X60999285Y-156971285D02*
X60999285Y-157399857D01*
X60999285Y-157185571D02*
X60249285Y-157185571D01*
X60356428Y-157257000D01*
X60427857Y-157328428D01*
X60463571Y-157399857D01*
%TO.C,R7*%
X27930000Y-130669285D02*
X27680000Y-130312142D01*
X27501428Y-130669285D02*
X27501428Y-129919285D01*
X27787142Y-129919285D01*
X27858571Y-129955000D01*
X27894285Y-129990714D01*
X27930000Y-130062142D01*
X27930000Y-130169285D01*
X27894285Y-130240714D01*
X27858571Y-130276428D01*
X27787142Y-130312142D01*
X27501428Y-130312142D01*
X28180000Y-129919285D02*
X28680000Y-129919285D01*
X28358571Y-130669285D01*
%TO.C,R8*%
X31869285Y-127605000D02*
X31512142Y-127855000D01*
X31869285Y-128033571D02*
X31119285Y-128033571D01*
X31119285Y-127747857D01*
X31155000Y-127676428D01*
X31190714Y-127640714D01*
X31262142Y-127605000D01*
X31369285Y-127605000D01*
X31440714Y-127640714D01*
X31476428Y-127676428D01*
X31512142Y-127747857D01*
X31512142Y-128033571D01*
X31440714Y-127176428D02*
X31405000Y-127247857D01*
X31369285Y-127283571D01*
X31297857Y-127319285D01*
X31262142Y-127319285D01*
X31190714Y-127283571D01*
X31155000Y-127247857D01*
X31119285Y-127176428D01*
X31119285Y-127033571D01*
X31155000Y-126962142D01*
X31190714Y-126926428D01*
X31262142Y-126890714D01*
X31297857Y-126890714D01*
X31369285Y-126926428D01*
X31405000Y-126962142D01*
X31440714Y-127033571D01*
X31440714Y-127176428D01*
X31476428Y-127247857D01*
X31512142Y-127283571D01*
X31583571Y-127319285D01*
X31726428Y-127319285D01*
X31797857Y-127283571D01*
X31833571Y-127247857D01*
X31869285Y-127176428D01*
X31869285Y-127033571D01*
X31833571Y-126962142D01*
X31797857Y-126926428D01*
X31726428Y-126890714D01*
X31583571Y-126890714D01*
X31512142Y-126926428D01*
X31476428Y-126962142D01*
X31440714Y-127033571D01*
%TO.C,R17*%
X62239285Y-157482142D02*
X61882142Y-157732142D01*
X62239285Y-157910714D02*
X61489285Y-157910714D01*
X61489285Y-157625000D01*
X61525000Y-157553571D01*
X61560714Y-157517857D01*
X61632142Y-157482142D01*
X61739285Y-157482142D01*
X61810714Y-157517857D01*
X61846428Y-157553571D01*
X61882142Y-157625000D01*
X61882142Y-157910714D01*
X62239285Y-156767857D02*
X62239285Y-157196428D01*
X62239285Y-156982142D02*
X61489285Y-156982142D01*
X61596428Y-157053571D01*
X61667857Y-157125000D01*
X61703571Y-157196428D01*
X61489285Y-156517857D02*
X61489285Y-156017857D01*
X62239285Y-156339285D01*
%TO.C,R18*%
X60839285Y-154582142D02*
X60482142Y-154832142D01*
X60839285Y-155010714D02*
X60089285Y-155010714D01*
X60089285Y-154725000D01*
X60125000Y-154653571D01*
X60160714Y-154617857D01*
X60232142Y-154582142D01*
X60339285Y-154582142D01*
X60410714Y-154617857D01*
X60446428Y-154653571D01*
X60482142Y-154725000D01*
X60482142Y-155010714D01*
X60839285Y-153867857D02*
X60839285Y-154296428D01*
X60839285Y-154082142D02*
X60089285Y-154082142D01*
X60196428Y-154153571D01*
X60267857Y-154225000D01*
X60303571Y-154296428D01*
X60410714Y-153439285D02*
X60375000Y-153510714D01*
X60339285Y-153546428D01*
X60267857Y-153582142D01*
X60232142Y-153582142D01*
X60160714Y-153546428D01*
X60125000Y-153510714D01*
X60089285Y-153439285D01*
X60089285Y-153296428D01*
X60125000Y-153225000D01*
X60160714Y-153189285D01*
X60232142Y-153153571D01*
X60267857Y-153153571D01*
X60339285Y-153189285D01*
X60375000Y-153225000D01*
X60410714Y-153296428D01*
X60410714Y-153439285D01*
X60446428Y-153510714D01*
X60482142Y-153546428D01*
X60553571Y-153582142D01*
X60696428Y-153582142D01*
X60767857Y-153546428D01*
X60803571Y-153510714D01*
X60839285Y-153439285D01*
X60839285Y-153296428D01*
X60803571Y-153225000D01*
X60767857Y-153189285D01*
X60696428Y-153153571D01*
X60553571Y-153153571D01*
X60482142Y-153189285D01*
X60446428Y-153225000D01*
X60410714Y-153296428D01*
%TO.C,R19*%
X59529285Y-154457142D02*
X59172142Y-154707142D01*
X59529285Y-154885714D02*
X58779285Y-154885714D01*
X58779285Y-154600000D01*
X58815000Y-154528571D01*
X58850714Y-154492857D01*
X58922142Y-154457142D01*
X59029285Y-154457142D01*
X59100714Y-154492857D01*
X59136428Y-154528571D01*
X59172142Y-154600000D01*
X59172142Y-154885714D01*
X59529285Y-153742857D02*
X59529285Y-154171428D01*
X59529285Y-153957142D02*
X58779285Y-153957142D01*
X58886428Y-154028571D01*
X58957857Y-154100000D01*
X58993571Y-154171428D01*
X59529285Y-153385714D02*
X59529285Y-153242857D01*
X59493571Y-153171428D01*
X59457857Y-153135714D01*
X59350714Y-153064285D01*
X59207857Y-153028571D01*
X58922142Y-153028571D01*
X58850714Y-153064285D01*
X58815000Y-153100000D01*
X58779285Y-153171428D01*
X58779285Y-153314285D01*
X58815000Y-153385714D01*
X58850714Y-153421428D01*
X58922142Y-153457142D01*
X59100714Y-153457142D01*
X59172142Y-153421428D01*
X59207857Y-153385714D01*
X59243571Y-153314285D01*
X59243571Y-153171428D01*
X59207857Y-153100000D01*
X59172142Y-153064285D01*
X59100714Y-153028571D01*
%TO.C,R20*%
X57737857Y-147729285D02*
X57487857Y-147372142D01*
X57309285Y-147729285D02*
X57309285Y-146979285D01*
X57595000Y-146979285D01*
X57666428Y-147015000D01*
X57702142Y-147050714D01*
X57737857Y-147122142D01*
X57737857Y-147229285D01*
X57702142Y-147300714D01*
X57666428Y-147336428D01*
X57595000Y-147372142D01*
X57309285Y-147372142D01*
X58023571Y-147050714D02*
X58059285Y-147015000D01*
X58130714Y-146979285D01*
X58309285Y-146979285D01*
X58380714Y-147015000D01*
X58416428Y-147050714D01*
X58452142Y-147122142D01*
X58452142Y-147193571D01*
X58416428Y-147300714D01*
X57987857Y-147729285D01*
X58452142Y-147729285D01*
X58916428Y-146979285D02*
X58987857Y-146979285D01*
X59059285Y-147015000D01*
X59095000Y-147050714D01*
X59130714Y-147122142D01*
X59166428Y-147265000D01*
X59166428Y-147443571D01*
X59130714Y-147586428D01*
X59095000Y-147657857D01*
X59059285Y-147693571D01*
X58987857Y-147729285D01*
X58916428Y-147729285D01*
X58845000Y-147693571D01*
X58809285Y-147657857D01*
X58773571Y-147586428D01*
X58737857Y-147443571D01*
X58737857Y-147265000D01*
X58773571Y-147122142D01*
X58809285Y-147050714D01*
X58845000Y-147015000D01*
X58916428Y-146979285D01*
%TO.C,R37*%
X41583285Y-137248142D02*
X41226142Y-137498142D01*
X41583285Y-137676714D02*
X40833285Y-137676714D01*
X40833285Y-137391000D01*
X40869000Y-137319571D01*
X40904714Y-137283857D01*
X40976142Y-137248142D01*
X41083285Y-137248142D01*
X41154714Y-137283857D01*
X41190428Y-137319571D01*
X41226142Y-137391000D01*
X41226142Y-137676714D01*
X40833285Y-136998142D02*
X40833285Y-136533857D01*
X41119000Y-136783857D01*
X41119000Y-136676714D01*
X41154714Y-136605285D01*
X41190428Y-136569571D01*
X41261857Y-136533857D01*
X41440428Y-136533857D01*
X41511857Y-136569571D01*
X41547571Y-136605285D01*
X41583285Y-136676714D01*
X41583285Y-136891000D01*
X41547571Y-136962428D01*
X41511857Y-136998142D01*
X40833285Y-136283857D02*
X40833285Y-135783857D01*
X41583285Y-136105285D01*
%TO.C,R38*%
X32519285Y-135202142D02*
X32162142Y-135452142D01*
X32519285Y-135630714D02*
X31769285Y-135630714D01*
X31769285Y-135345000D01*
X31805000Y-135273571D01*
X31840714Y-135237857D01*
X31912142Y-135202142D01*
X32019285Y-135202142D01*
X32090714Y-135237857D01*
X32126428Y-135273571D01*
X32162142Y-135345000D01*
X32162142Y-135630714D01*
X31769285Y-134952142D02*
X31769285Y-134487857D01*
X32055000Y-134737857D01*
X32055000Y-134630714D01*
X32090714Y-134559285D01*
X32126428Y-134523571D01*
X32197857Y-134487857D01*
X32376428Y-134487857D01*
X32447857Y-134523571D01*
X32483571Y-134559285D01*
X32519285Y-134630714D01*
X32519285Y-134845000D01*
X32483571Y-134916428D01*
X32447857Y-134952142D01*
X32090714Y-134059285D02*
X32055000Y-134130714D01*
X32019285Y-134166428D01*
X31947857Y-134202142D01*
X31912142Y-134202142D01*
X31840714Y-134166428D01*
X31805000Y-134130714D01*
X31769285Y-134059285D01*
X31769285Y-133916428D01*
X31805000Y-133845000D01*
X31840714Y-133809285D01*
X31912142Y-133773571D01*
X31947857Y-133773571D01*
X32019285Y-133809285D01*
X32055000Y-133845000D01*
X32090714Y-133916428D01*
X32090714Y-134059285D01*
X32126428Y-134130714D01*
X32162142Y-134166428D01*
X32233571Y-134202142D01*
X32376428Y-134202142D01*
X32447857Y-134166428D01*
X32483571Y-134130714D01*
X32519285Y-134059285D01*
X32519285Y-133916428D01*
X32483571Y-133845000D01*
X32447857Y-133809285D01*
X32376428Y-133773571D01*
X32233571Y-133773571D01*
X32162142Y-133809285D01*
X32126428Y-133845000D01*
X32090714Y-133916428D01*
%TO.C,R40*%
X31405357Y-142699285D02*
X31155357Y-142342142D01*
X30976785Y-142699285D02*
X30976785Y-141949285D01*
X31262500Y-141949285D01*
X31333928Y-141985000D01*
X31369642Y-142020714D01*
X31405357Y-142092142D01*
X31405357Y-142199285D01*
X31369642Y-142270714D01*
X31333928Y-142306428D01*
X31262500Y-142342142D01*
X30976785Y-142342142D01*
X32048214Y-142199285D02*
X32048214Y-142699285D01*
X31869642Y-141913571D02*
X31691071Y-142449285D01*
X32155357Y-142449285D01*
X32583928Y-141949285D02*
X32655357Y-141949285D01*
X32726785Y-141985000D01*
X32762500Y-142020714D01*
X32798214Y-142092142D01*
X32833928Y-142235000D01*
X32833928Y-142413571D01*
X32798214Y-142556428D01*
X32762500Y-142627857D01*
X32726785Y-142663571D01*
X32655357Y-142699285D01*
X32583928Y-142699285D01*
X32512500Y-142663571D01*
X32476785Y-142627857D01*
X32441071Y-142556428D01*
X32405357Y-142413571D01*
X32405357Y-142235000D01*
X32441071Y-142092142D01*
X32476785Y-142020714D01*
X32512500Y-141985000D01*
X32583928Y-141949285D01*
%TO.C,U2*%
X34428571Y-146089285D02*
X34428571Y-146696428D01*
X34464285Y-146767857D01*
X34500000Y-146803571D01*
X34571428Y-146839285D01*
X34714285Y-146839285D01*
X34785714Y-146803571D01*
X34821428Y-146767857D01*
X34857142Y-146696428D01*
X34857142Y-146089285D01*
X35178571Y-146160714D02*
X35214285Y-146125000D01*
X35285714Y-146089285D01*
X35464285Y-146089285D01*
X35535714Y-146125000D01*
X35571428Y-146160714D01*
X35607142Y-146232142D01*
X35607142Y-146303571D01*
X35571428Y-146410714D01*
X35142857Y-146839285D01*
X35607142Y-146839285D01*
%TO.C,U4*%
X69443571Y-143079285D02*
X69443571Y-143686428D01*
X69479285Y-143757857D01*
X69515000Y-143793571D01*
X69586428Y-143829285D01*
X69729285Y-143829285D01*
X69800714Y-143793571D01*
X69836428Y-143757857D01*
X69872142Y-143686428D01*
X69872142Y-143079285D01*
X70550714Y-143329285D02*
X70550714Y-143829285D01*
X70372142Y-143043571D02*
X70193571Y-143579285D01*
X70657857Y-143579285D01*
%TO.C,C25*%
X75517857Y-150167857D02*
X75482142Y-150203571D01*
X75375000Y-150239285D01*
X75303571Y-150239285D01*
X75196428Y-150203571D01*
X75125000Y-150132142D01*
X75089285Y-150060714D01*
X75053571Y-149917857D01*
X75053571Y-149810714D01*
X75089285Y-149667857D01*
X75125000Y-149596428D01*
X75196428Y-149525000D01*
X75303571Y-149489285D01*
X75375000Y-149489285D01*
X75482142Y-149525000D01*
X75517857Y-149560714D01*
X75803571Y-149560714D02*
X75839285Y-149525000D01*
X75910714Y-149489285D01*
X76089285Y-149489285D01*
X76160714Y-149525000D01*
X76196428Y-149560714D01*
X76232142Y-149632142D01*
X76232142Y-149703571D01*
X76196428Y-149810714D01*
X75767857Y-150239285D01*
X76232142Y-150239285D01*
X76910714Y-149489285D02*
X76553571Y-149489285D01*
X76517857Y-149846428D01*
X76553571Y-149810714D01*
X76625000Y-149775000D01*
X76803571Y-149775000D01*
X76875000Y-149810714D01*
X76910714Y-149846428D01*
X76946428Y-149917857D01*
X76946428Y-150096428D01*
X76910714Y-150167857D01*
X76875000Y-150203571D01*
X76803571Y-150239285D01*
X76625000Y-150239285D01*
X76553571Y-150203571D01*
X76517857Y-150167857D01*
%TO.C,R26*%
X50481160Y-144399642D02*
X50124017Y-144649642D01*
X50481160Y-144828214D02*
X49731160Y-144828214D01*
X49731160Y-144542500D01*
X49766875Y-144471071D01*
X49802589Y-144435357D01*
X49874017Y-144399642D01*
X49981160Y-144399642D01*
X50052589Y-144435357D01*
X50088303Y-144471071D01*
X50124017Y-144542500D01*
X50124017Y-144828214D01*
X49802589Y-144113928D02*
X49766875Y-144078214D01*
X49731160Y-144006785D01*
X49731160Y-143828214D01*
X49766875Y-143756785D01*
X49802589Y-143721071D01*
X49874017Y-143685357D01*
X49945446Y-143685357D01*
X50052589Y-143721071D01*
X50481160Y-144149642D01*
X50481160Y-143685357D01*
X49731160Y-143042500D02*
X49731160Y-143185357D01*
X49766875Y-143256785D01*
X49802589Y-143292500D01*
X49909732Y-143363928D01*
X50052589Y-143399642D01*
X50338303Y-143399642D01*
X50409732Y-143363928D01*
X50445446Y-143328214D01*
X50481160Y-143256785D01*
X50481160Y-143113928D01*
X50445446Y-143042500D01*
X50409732Y-143006785D01*
X50338303Y-142971071D01*
X50159732Y-142971071D01*
X50088303Y-143006785D01*
X50052589Y-143042500D01*
X50016875Y-143113928D01*
X50016875Y-143256785D01*
X50052589Y-143328214D01*
X50088303Y-143363928D01*
X50159732Y-143399642D01*
%TO.C,R27*%
X48621160Y-144479642D02*
X48264017Y-144729642D01*
X48621160Y-144908214D02*
X47871160Y-144908214D01*
X47871160Y-144622500D01*
X47906875Y-144551071D01*
X47942589Y-144515357D01*
X48014017Y-144479642D01*
X48121160Y-144479642D01*
X48192589Y-144515357D01*
X48228303Y-144551071D01*
X48264017Y-144622500D01*
X48264017Y-144908214D01*
X47942589Y-144193928D02*
X47906875Y-144158214D01*
X47871160Y-144086785D01*
X47871160Y-143908214D01*
X47906875Y-143836785D01*
X47942589Y-143801071D01*
X48014017Y-143765357D01*
X48085446Y-143765357D01*
X48192589Y-143801071D01*
X48621160Y-144229642D01*
X48621160Y-143765357D01*
X47871160Y-143515357D02*
X47871160Y-143015357D01*
X48621160Y-143336785D01*
%TO.C,R28*%
X61914285Y-144554642D02*
X61557142Y-144804642D01*
X61914285Y-144983214D02*
X61164285Y-144983214D01*
X61164285Y-144697500D01*
X61200000Y-144626071D01*
X61235714Y-144590357D01*
X61307142Y-144554642D01*
X61414285Y-144554642D01*
X61485714Y-144590357D01*
X61521428Y-144626071D01*
X61557142Y-144697500D01*
X61557142Y-144983214D01*
X61235714Y-144268928D02*
X61200000Y-144233214D01*
X61164285Y-144161785D01*
X61164285Y-143983214D01*
X61200000Y-143911785D01*
X61235714Y-143876071D01*
X61307142Y-143840357D01*
X61378571Y-143840357D01*
X61485714Y-143876071D01*
X61914285Y-144304642D01*
X61914285Y-143840357D01*
X61485714Y-143411785D02*
X61450000Y-143483214D01*
X61414285Y-143518928D01*
X61342857Y-143554642D01*
X61307142Y-143554642D01*
X61235714Y-143518928D01*
X61200000Y-143483214D01*
X61164285Y-143411785D01*
X61164285Y-143268928D01*
X61200000Y-143197500D01*
X61235714Y-143161785D01*
X61307142Y-143126071D01*
X61342857Y-143126071D01*
X61414285Y-143161785D01*
X61450000Y-143197500D01*
X61485714Y-143268928D01*
X61485714Y-143411785D01*
X61521428Y-143483214D01*
X61557142Y-143518928D01*
X61628571Y-143554642D01*
X61771428Y-143554642D01*
X61842857Y-143518928D01*
X61878571Y-143483214D01*
X61914285Y-143411785D01*
X61914285Y-143268928D01*
X61878571Y-143197500D01*
X61842857Y-143161785D01*
X61771428Y-143126071D01*
X61628571Y-143126071D01*
X61557142Y-143161785D01*
X61521428Y-143197500D01*
X61485714Y-143268928D01*
%TO.C,R29*%
X57834285Y-144849642D02*
X57477142Y-145099642D01*
X57834285Y-145278214D02*
X57084285Y-145278214D01*
X57084285Y-144992500D01*
X57120000Y-144921071D01*
X57155714Y-144885357D01*
X57227142Y-144849642D01*
X57334285Y-144849642D01*
X57405714Y-144885357D01*
X57441428Y-144921071D01*
X57477142Y-144992500D01*
X57477142Y-145278214D01*
X57155714Y-144563928D02*
X57120000Y-144528214D01*
X57084285Y-144456785D01*
X57084285Y-144278214D01*
X57120000Y-144206785D01*
X57155714Y-144171071D01*
X57227142Y-144135357D01*
X57298571Y-144135357D01*
X57405714Y-144171071D01*
X57834285Y-144599642D01*
X57834285Y-144135357D01*
X57834285Y-143778214D02*
X57834285Y-143635357D01*
X57798571Y-143563928D01*
X57762857Y-143528214D01*
X57655714Y-143456785D01*
X57512857Y-143421071D01*
X57227142Y-143421071D01*
X57155714Y-143456785D01*
X57120000Y-143492500D01*
X57084285Y-143563928D01*
X57084285Y-143706785D01*
X57120000Y-143778214D01*
X57155714Y-143813928D01*
X57227142Y-143849642D01*
X57405714Y-143849642D01*
X57477142Y-143813928D01*
X57512857Y-143778214D01*
X57548571Y-143706785D01*
X57548571Y-143563928D01*
X57512857Y-143492500D01*
X57477142Y-143456785D01*
X57405714Y-143421071D01*
%TO.C,R31*%
X53304285Y-144482142D02*
X52947142Y-144732142D01*
X53304285Y-144910714D02*
X52554285Y-144910714D01*
X52554285Y-144625000D01*
X52590000Y-144553571D01*
X52625714Y-144517857D01*
X52697142Y-144482142D01*
X52804285Y-144482142D01*
X52875714Y-144517857D01*
X52911428Y-144553571D01*
X52947142Y-144625000D01*
X52947142Y-144910714D01*
X52554285Y-144232142D02*
X52554285Y-143767857D01*
X52840000Y-144017857D01*
X52840000Y-143910714D01*
X52875714Y-143839285D01*
X52911428Y-143803571D01*
X52982857Y-143767857D01*
X53161428Y-143767857D01*
X53232857Y-143803571D01*
X53268571Y-143839285D01*
X53304285Y-143910714D01*
X53304285Y-144125000D01*
X53268571Y-144196428D01*
X53232857Y-144232142D01*
X53304285Y-143053571D02*
X53304285Y-143482142D01*
X53304285Y-143267857D02*
X52554285Y-143267857D01*
X52661428Y-143339285D01*
X52732857Y-143410714D01*
X52768571Y-143482142D01*
%TO.C,R35*%
X44721160Y-144379642D02*
X44364017Y-144629642D01*
X44721160Y-144808214D02*
X43971160Y-144808214D01*
X43971160Y-144522500D01*
X44006875Y-144451071D01*
X44042589Y-144415357D01*
X44114017Y-144379642D01*
X44221160Y-144379642D01*
X44292589Y-144415357D01*
X44328303Y-144451071D01*
X44364017Y-144522500D01*
X44364017Y-144808214D01*
X43971160Y-144129642D02*
X43971160Y-143665357D01*
X44256875Y-143915357D01*
X44256875Y-143808214D01*
X44292589Y-143736785D01*
X44328303Y-143701071D01*
X44399732Y-143665357D01*
X44578303Y-143665357D01*
X44649732Y-143701071D01*
X44685446Y-143736785D01*
X44721160Y-143808214D01*
X44721160Y-144022500D01*
X44685446Y-144093928D01*
X44649732Y-144129642D01*
X43971160Y-142986785D02*
X43971160Y-143343928D01*
X44328303Y-143379642D01*
X44292589Y-143343928D01*
X44256875Y-143272500D01*
X44256875Y-143093928D01*
X44292589Y-143022500D01*
X44328303Y-142986785D01*
X44399732Y-142951071D01*
X44578303Y-142951071D01*
X44649732Y-142986785D01*
X44685446Y-143022500D01*
X44721160Y-143093928D01*
X44721160Y-143272500D01*
X44685446Y-143343928D01*
X44649732Y-143379642D01*
%TO.C,R36*%
X56294285Y-144532142D02*
X55937142Y-144782142D01*
X56294285Y-144960714D02*
X55544285Y-144960714D01*
X55544285Y-144675000D01*
X55580000Y-144603571D01*
X55615714Y-144567857D01*
X55687142Y-144532142D01*
X55794285Y-144532142D01*
X55865714Y-144567857D01*
X55901428Y-144603571D01*
X55937142Y-144675000D01*
X55937142Y-144960714D01*
X55544285Y-144282142D02*
X55544285Y-143817857D01*
X55830000Y-144067857D01*
X55830000Y-143960714D01*
X55865714Y-143889285D01*
X55901428Y-143853571D01*
X55972857Y-143817857D01*
X56151428Y-143817857D01*
X56222857Y-143853571D01*
X56258571Y-143889285D01*
X56294285Y-143960714D01*
X56294285Y-144175000D01*
X56258571Y-144246428D01*
X56222857Y-144282142D01*
X55544285Y-143175000D02*
X55544285Y-143317857D01*
X55580000Y-143389285D01*
X55615714Y-143425000D01*
X55722857Y-143496428D01*
X55865714Y-143532142D01*
X56151428Y-143532142D01*
X56222857Y-143496428D01*
X56258571Y-143460714D01*
X56294285Y-143389285D01*
X56294285Y-143246428D01*
X56258571Y-143175000D01*
X56222857Y-143139285D01*
X56151428Y-143103571D01*
X55972857Y-143103571D01*
X55901428Y-143139285D01*
X55865714Y-143175000D01*
X55830000Y-143246428D01*
X55830000Y-143389285D01*
X55865714Y-143460714D01*
X55901428Y-143496428D01*
X55972857Y-143532142D01*
%TO.C,U3*%
X62808571Y-147629285D02*
X62808571Y-148236428D01*
X62844285Y-148307857D01*
X62880000Y-148343571D01*
X62951428Y-148379285D01*
X63094285Y-148379285D01*
X63165714Y-148343571D01*
X63201428Y-148307857D01*
X63237142Y-148236428D01*
X63237142Y-147629285D01*
X63522857Y-147629285D02*
X63987142Y-147629285D01*
X63737142Y-147915000D01*
X63844285Y-147915000D01*
X63915714Y-147950714D01*
X63951428Y-147986428D01*
X63987142Y-148057857D01*
X63987142Y-148236428D01*
X63951428Y-148307857D01*
X63915714Y-148343571D01*
X63844285Y-148379285D01*
X63630000Y-148379285D01*
X63558571Y-148343571D01*
X63522857Y-148307857D01*
%TO.C,C7*%
X29907857Y-145711000D02*
X29943571Y-145746714D01*
X29979285Y-145853857D01*
X29979285Y-145925285D01*
X29943571Y-146032428D01*
X29872142Y-146103857D01*
X29800714Y-146139571D01*
X29657857Y-146175285D01*
X29550714Y-146175285D01*
X29407857Y-146139571D01*
X29336428Y-146103857D01*
X29265000Y-146032428D01*
X29229285Y-145925285D01*
X29229285Y-145853857D01*
X29265000Y-145746714D01*
X29300714Y-145711000D01*
X29229285Y-145461000D02*
X29229285Y-144961000D01*
X29979285Y-145282428D01*
%TO.C,C8*%
X36893857Y-144617000D02*
X36929571Y-144652714D01*
X36965285Y-144759857D01*
X36965285Y-144831285D01*
X36929571Y-144938428D01*
X36858142Y-145009857D01*
X36786714Y-145045571D01*
X36643857Y-145081285D01*
X36536714Y-145081285D01*
X36393857Y-145045571D01*
X36322428Y-145009857D01*
X36251000Y-144938428D01*
X36215285Y-144831285D01*
X36215285Y-144759857D01*
X36251000Y-144652714D01*
X36286714Y-144617000D01*
X36536714Y-144188428D02*
X36501000Y-144259857D01*
X36465285Y-144295571D01*
X36393857Y-144331285D01*
X36358142Y-144331285D01*
X36286714Y-144295571D01*
X36251000Y-144259857D01*
X36215285Y-144188428D01*
X36215285Y-144045571D01*
X36251000Y-143974142D01*
X36286714Y-143938428D01*
X36358142Y-143902714D01*
X36393857Y-143902714D01*
X36465285Y-143938428D01*
X36501000Y-143974142D01*
X36536714Y-144045571D01*
X36536714Y-144188428D01*
X36572428Y-144259857D01*
X36608142Y-144295571D01*
X36679571Y-144331285D01*
X36822428Y-144331285D01*
X36893857Y-144295571D01*
X36929571Y-144259857D01*
X36965285Y-144188428D01*
X36965285Y-144045571D01*
X36929571Y-143974142D01*
X36893857Y-143938428D01*
X36822428Y-143902714D01*
X36679571Y-143902714D01*
X36608142Y-143938428D01*
X36572428Y-143974142D01*
X36536714Y-144045571D01*
%TO.C,C9*%
X37107857Y-156830000D02*
X37143571Y-156865714D01*
X37179285Y-156972857D01*
X37179285Y-157044285D01*
X37143571Y-157151428D01*
X37072142Y-157222857D01*
X37000714Y-157258571D01*
X36857857Y-157294285D01*
X36750714Y-157294285D01*
X36607857Y-157258571D01*
X36536428Y-157222857D01*
X36465000Y-157151428D01*
X36429285Y-157044285D01*
X36429285Y-156972857D01*
X36465000Y-156865714D01*
X36500714Y-156830000D01*
X37179285Y-156472857D02*
X37179285Y-156330000D01*
X37143571Y-156258571D01*
X37107857Y-156222857D01*
X37000714Y-156151428D01*
X36857857Y-156115714D01*
X36572142Y-156115714D01*
X36500714Y-156151428D01*
X36465000Y-156187142D01*
X36429285Y-156258571D01*
X36429285Y-156401428D01*
X36465000Y-156472857D01*
X36500714Y-156508571D01*
X36572142Y-156544285D01*
X36750714Y-156544285D01*
X36822142Y-156508571D01*
X36857857Y-156472857D01*
X36893571Y-156401428D01*
X36893571Y-156258571D01*
X36857857Y-156187142D01*
X36822142Y-156151428D01*
X36750714Y-156115714D01*
%TO.C,C10*%
X37947857Y-144567142D02*
X37983571Y-144602857D01*
X38019285Y-144710000D01*
X38019285Y-144781428D01*
X37983571Y-144888571D01*
X37912142Y-144960000D01*
X37840714Y-144995714D01*
X37697857Y-145031428D01*
X37590714Y-145031428D01*
X37447857Y-144995714D01*
X37376428Y-144960000D01*
X37305000Y-144888571D01*
X37269285Y-144781428D01*
X37269285Y-144710000D01*
X37305000Y-144602857D01*
X37340714Y-144567142D01*
X38019285Y-143852857D02*
X38019285Y-144281428D01*
X38019285Y-144067142D02*
X37269285Y-144067142D01*
X37376428Y-144138571D01*
X37447857Y-144210000D01*
X37483571Y-144281428D01*
X37269285Y-143388571D02*
X37269285Y-143317142D01*
X37305000Y-143245714D01*
X37340714Y-143210000D01*
X37412142Y-143174285D01*
X37555000Y-143138571D01*
X37733571Y-143138571D01*
X37876428Y-143174285D01*
X37947857Y-143210000D01*
X37983571Y-143245714D01*
X38019285Y-143317142D01*
X38019285Y-143388571D01*
X37983571Y-143460000D01*
X37947857Y-143495714D01*
X37876428Y-143531428D01*
X37733571Y-143567142D01*
X37555000Y-143567142D01*
X37412142Y-143531428D01*
X37340714Y-143495714D01*
X37305000Y-143460000D01*
X37269285Y-143388571D01*
%TO.C,C11*%
X32067857Y-157933142D02*
X32103571Y-157968857D01*
X32139285Y-158076000D01*
X32139285Y-158147428D01*
X32103571Y-158254571D01*
X32032142Y-158326000D01*
X31960714Y-158361714D01*
X31817857Y-158397428D01*
X31710714Y-158397428D01*
X31567857Y-158361714D01*
X31496428Y-158326000D01*
X31425000Y-158254571D01*
X31389285Y-158147428D01*
X31389285Y-158076000D01*
X31425000Y-157968857D01*
X31460714Y-157933142D01*
X32139285Y-157218857D02*
X32139285Y-157647428D01*
X32139285Y-157433142D02*
X31389285Y-157433142D01*
X31496428Y-157504571D01*
X31567857Y-157576000D01*
X31603571Y-157647428D01*
X32139285Y-156504571D02*
X32139285Y-156933142D01*
X32139285Y-156718857D02*
X31389285Y-156718857D01*
X31496428Y-156790285D01*
X31567857Y-156861714D01*
X31603571Y-156933142D01*
%TO.C,C12*%
X34917857Y-157468142D02*
X34953571Y-157503857D01*
X34989285Y-157611000D01*
X34989285Y-157682428D01*
X34953571Y-157789571D01*
X34882142Y-157861000D01*
X34810714Y-157896714D01*
X34667857Y-157932428D01*
X34560714Y-157932428D01*
X34417857Y-157896714D01*
X34346428Y-157861000D01*
X34275000Y-157789571D01*
X34239285Y-157682428D01*
X34239285Y-157611000D01*
X34275000Y-157503857D01*
X34310714Y-157468142D01*
X34989285Y-156753857D02*
X34989285Y-157182428D01*
X34989285Y-156968142D02*
X34239285Y-156968142D01*
X34346428Y-157039571D01*
X34417857Y-157111000D01*
X34453571Y-157182428D01*
X34310714Y-156468142D02*
X34275000Y-156432428D01*
X34239285Y-156361000D01*
X34239285Y-156182428D01*
X34275000Y-156111000D01*
X34310714Y-156075285D01*
X34382142Y-156039571D01*
X34453571Y-156039571D01*
X34560714Y-156075285D01*
X34989285Y-156503857D01*
X34989285Y-156039571D01*
D12*
%TO.C,C13*%
X33767857Y-157482142D02*
X33803571Y-157517857D01*
X33839285Y-157625000D01*
X33839285Y-157696428D01*
X33803571Y-157803571D01*
X33732142Y-157875000D01*
X33660714Y-157910714D01*
X33517857Y-157946428D01*
X33410714Y-157946428D01*
X33267857Y-157910714D01*
X33196428Y-157875000D01*
X33125000Y-157803571D01*
X33089285Y-157696428D01*
X33089285Y-157625000D01*
X33125000Y-157517857D01*
X33160714Y-157482142D01*
X33839285Y-156767857D02*
X33839285Y-157196428D01*
X33839285Y-156982142D02*
X33089285Y-156982142D01*
X33196428Y-157053571D01*
X33267857Y-157125000D01*
X33303571Y-157196428D01*
X33089285Y-156517857D02*
X33089285Y-156053571D01*
X33375000Y-156303571D01*
X33375000Y-156196428D01*
X33410714Y-156125000D01*
X33446428Y-156089285D01*
X33517857Y-156053571D01*
X33696428Y-156053571D01*
X33767857Y-156089285D01*
X33803571Y-156125000D01*
X33839285Y-156196428D01*
X33839285Y-156410714D01*
X33803571Y-156482142D01*
X33767857Y-156517857D01*
D13*
%TO.C,C14*%
X35967857Y-157482142D02*
X36003571Y-157517857D01*
X36039285Y-157625000D01*
X36039285Y-157696428D01*
X36003571Y-157803571D01*
X35932142Y-157875000D01*
X35860714Y-157910714D01*
X35717857Y-157946428D01*
X35610714Y-157946428D01*
X35467857Y-157910714D01*
X35396428Y-157875000D01*
X35325000Y-157803571D01*
X35289285Y-157696428D01*
X35289285Y-157625000D01*
X35325000Y-157517857D01*
X35360714Y-157482142D01*
X36039285Y-156767857D02*
X36039285Y-157196428D01*
X36039285Y-156982142D02*
X35289285Y-156982142D01*
X35396428Y-157053571D01*
X35467857Y-157125000D01*
X35503571Y-157196428D01*
X35539285Y-156125000D02*
X36039285Y-156125000D01*
X35253571Y-156303571D02*
X35789285Y-156482142D01*
X35789285Y-156017857D01*
D10*
%TO.C,C18*%
X70717857Y-146067857D02*
X70682142Y-146103571D01*
X70575000Y-146139285D01*
X70503571Y-146139285D01*
X70396428Y-146103571D01*
X70325000Y-146032142D01*
X70289285Y-145960714D01*
X70253571Y-145817857D01*
X70253571Y-145710714D01*
X70289285Y-145567857D01*
X70325000Y-145496428D01*
X70396428Y-145425000D01*
X70503571Y-145389285D01*
X70575000Y-145389285D01*
X70682142Y-145425000D01*
X70717857Y-145460714D01*
X71432142Y-146139285D02*
X71003571Y-146139285D01*
X71217857Y-146139285D02*
X71217857Y-145389285D01*
X71146428Y-145496428D01*
X71075000Y-145567857D01*
X71003571Y-145603571D01*
X71860714Y-145710714D02*
X71789285Y-145675000D01*
X71753571Y-145639285D01*
X71717857Y-145567857D01*
X71717857Y-145532142D01*
X71753571Y-145460714D01*
X71789285Y-145425000D01*
X71860714Y-145389285D01*
X72003571Y-145389285D01*
X72075000Y-145425000D01*
X72110714Y-145460714D01*
X72146428Y-145532142D01*
X72146428Y-145567857D01*
X72110714Y-145639285D01*
X72075000Y-145675000D01*
X72003571Y-145710714D01*
X71860714Y-145710714D01*
X71789285Y-145746428D01*
X71753571Y-145782142D01*
X71717857Y-145853571D01*
X71717857Y-145996428D01*
X71753571Y-146067857D01*
X71789285Y-146103571D01*
X71860714Y-146139285D01*
X72003571Y-146139285D01*
X72075000Y-146103571D01*
X72110714Y-146067857D01*
X72146428Y-145996428D01*
X72146428Y-145853571D01*
X72110714Y-145782142D01*
X72075000Y-145746428D01*
X72003571Y-145710714D01*
%TO.C,C20*%
X67717857Y-139397857D02*
X67682142Y-139433571D01*
X67575000Y-139469285D01*
X67503571Y-139469285D01*
X67396428Y-139433571D01*
X67325000Y-139362142D01*
X67289285Y-139290714D01*
X67253571Y-139147857D01*
X67253571Y-139040714D01*
X67289285Y-138897857D01*
X67325000Y-138826428D01*
X67396428Y-138755000D01*
X67503571Y-138719285D01*
X67575000Y-138719285D01*
X67682142Y-138755000D01*
X67717857Y-138790714D01*
X68003571Y-138790714D02*
X68039285Y-138755000D01*
X68110714Y-138719285D01*
X68289285Y-138719285D01*
X68360714Y-138755000D01*
X68396428Y-138790714D01*
X68432142Y-138862142D01*
X68432142Y-138933571D01*
X68396428Y-139040714D01*
X67967857Y-139469285D01*
X68432142Y-139469285D01*
X68896428Y-138719285D02*
X68967857Y-138719285D01*
X69039285Y-138755000D01*
X69075000Y-138790714D01*
X69110714Y-138862142D01*
X69146428Y-139005000D01*
X69146428Y-139183571D01*
X69110714Y-139326428D01*
X69075000Y-139397857D01*
X69039285Y-139433571D01*
X68967857Y-139469285D01*
X68896428Y-139469285D01*
X68825000Y-139433571D01*
X68789285Y-139397857D01*
X68753571Y-139326428D01*
X68717857Y-139183571D01*
X68717857Y-139005000D01*
X68753571Y-138862142D01*
X68789285Y-138790714D01*
X68825000Y-138755000D01*
X68896428Y-138719285D01*
%TO.C,C22*%
X70767857Y-154582142D02*
X70803571Y-154617857D01*
X70839285Y-154725000D01*
X70839285Y-154796428D01*
X70803571Y-154903571D01*
X70732142Y-154975000D01*
X70660714Y-155010714D01*
X70517857Y-155046428D01*
X70410714Y-155046428D01*
X70267857Y-155010714D01*
X70196428Y-154975000D01*
X70125000Y-154903571D01*
X70089285Y-154796428D01*
X70089285Y-154725000D01*
X70125000Y-154617857D01*
X70160714Y-154582142D01*
X70160714Y-154296428D02*
X70125000Y-154260714D01*
X70089285Y-154189285D01*
X70089285Y-154010714D01*
X70125000Y-153939285D01*
X70160714Y-153903571D01*
X70232142Y-153867857D01*
X70303571Y-153867857D01*
X70410714Y-153903571D01*
X70839285Y-154332142D01*
X70839285Y-153867857D01*
X70160714Y-153582142D02*
X70125000Y-153546428D01*
X70089285Y-153475000D01*
X70089285Y-153296428D01*
X70125000Y-153225000D01*
X70160714Y-153189285D01*
X70232142Y-153153571D01*
X70303571Y-153153571D01*
X70410714Y-153189285D01*
X70839285Y-153617857D01*
X70839285Y-153153571D01*
%TO.C,C26*%
X61187857Y-147372142D02*
X61223571Y-147407857D01*
X61259285Y-147515000D01*
X61259285Y-147586428D01*
X61223571Y-147693571D01*
X61152142Y-147765000D01*
X61080714Y-147800714D01*
X60937857Y-147836428D01*
X60830714Y-147836428D01*
X60687857Y-147800714D01*
X60616428Y-147765000D01*
X60545000Y-147693571D01*
X60509285Y-147586428D01*
X60509285Y-147515000D01*
X60545000Y-147407857D01*
X60580714Y-147372142D01*
X60580714Y-147086428D02*
X60545000Y-147050714D01*
X60509285Y-146979285D01*
X60509285Y-146800714D01*
X60545000Y-146729285D01*
X60580714Y-146693571D01*
X60652142Y-146657857D01*
X60723571Y-146657857D01*
X60830714Y-146693571D01*
X61259285Y-147122142D01*
X61259285Y-146657857D01*
X60509285Y-146015000D02*
X60509285Y-146157857D01*
X60545000Y-146229285D01*
X60580714Y-146265000D01*
X60687857Y-146336428D01*
X60830714Y-146372142D01*
X61116428Y-146372142D01*
X61187857Y-146336428D01*
X61223571Y-146300714D01*
X61259285Y-146229285D01*
X61259285Y-146086428D01*
X61223571Y-146015000D01*
X61187857Y-145979285D01*
X61116428Y-145943571D01*
X60937857Y-145943571D01*
X60866428Y-145979285D01*
X60830714Y-146015000D01*
X60795000Y-146086428D01*
X60795000Y-146229285D01*
X60830714Y-146300714D01*
X60866428Y-146336428D01*
X60937857Y-146372142D01*
%TO.C,C43*%
X40637857Y-123377857D02*
X40602142Y-123413571D01*
X40495000Y-123449285D01*
X40423571Y-123449285D01*
X40316428Y-123413571D01*
X40245000Y-123342142D01*
X40209285Y-123270714D01*
X40173571Y-123127857D01*
X40173571Y-123020714D01*
X40209285Y-122877857D01*
X40245000Y-122806428D01*
X40316428Y-122735000D01*
X40423571Y-122699285D01*
X40495000Y-122699285D01*
X40602142Y-122735000D01*
X40637857Y-122770714D01*
X41280714Y-122949285D02*
X41280714Y-123449285D01*
X41102142Y-122663571D02*
X40923571Y-123199285D01*
X41387857Y-123199285D01*
X41602142Y-122699285D02*
X42066428Y-122699285D01*
X41816428Y-122985000D01*
X41923571Y-122985000D01*
X41995000Y-123020714D01*
X42030714Y-123056428D01*
X42066428Y-123127857D01*
X42066428Y-123306428D01*
X42030714Y-123377857D01*
X41995000Y-123413571D01*
X41923571Y-123449285D01*
X41709285Y-123449285D01*
X41637857Y-123413571D01*
X41602142Y-123377857D01*
%TO.C,C45*%
X46679732Y-144809642D02*
X46715446Y-144845357D01*
X46751160Y-144952500D01*
X46751160Y-145023928D01*
X46715446Y-145131071D01*
X46644017Y-145202500D01*
X46572589Y-145238214D01*
X46429732Y-145273928D01*
X46322589Y-145273928D01*
X46179732Y-145238214D01*
X46108303Y-145202500D01*
X46036875Y-145131071D01*
X46001160Y-145023928D01*
X46001160Y-144952500D01*
X46036875Y-144845357D01*
X46072589Y-144809642D01*
X46251160Y-144166785D02*
X46751160Y-144166785D01*
X45965446Y-144345357D02*
X46501160Y-144523928D01*
X46501160Y-144059642D01*
X46001160Y-143416785D02*
X46001160Y-143773928D01*
X46358303Y-143809642D01*
X46322589Y-143773928D01*
X46286875Y-143702500D01*
X46286875Y-143523928D01*
X46322589Y-143452500D01*
X46358303Y-143416785D01*
X46429732Y-143381071D01*
X46608303Y-143381071D01*
X46679732Y-143416785D01*
X46715446Y-143452500D01*
X46751160Y-143523928D01*
X46751160Y-143702500D01*
X46715446Y-143773928D01*
X46679732Y-143809642D01*
%TO.C,C46*%
X59832857Y-144832142D02*
X59868571Y-144867857D01*
X59904285Y-144975000D01*
X59904285Y-145046428D01*
X59868571Y-145153571D01*
X59797142Y-145225000D01*
X59725714Y-145260714D01*
X59582857Y-145296428D01*
X59475714Y-145296428D01*
X59332857Y-145260714D01*
X59261428Y-145225000D01*
X59190000Y-145153571D01*
X59154285Y-145046428D01*
X59154285Y-144975000D01*
X59190000Y-144867857D01*
X59225714Y-144832142D01*
X59404285Y-144189285D02*
X59904285Y-144189285D01*
X59118571Y-144367857D02*
X59654285Y-144546428D01*
X59654285Y-144082142D01*
X59154285Y-143475000D02*
X59154285Y-143617857D01*
X59190000Y-143689285D01*
X59225714Y-143725000D01*
X59332857Y-143796428D01*
X59475714Y-143832142D01*
X59761428Y-143832142D01*
X59832857Y-143796428D01*
X59868571Y-143760714D01*
X59904285Y-143689285D01*
X59904285Y-143546428D01*
X59868571Y-143475000D01*
X59832857Y-143439285D01*
X59761428Y-143403571D01*
X59582857Y-143403571D01*
X59511428Y-143439285D01*
X59475714Y-143475000D01*
X59440000Y-143546428D01*
X59440000Y-143689285D01*
X59475714Y-143760714D01*
X59511428Y-143796428D01*
X59582857Y-143832142D01*
%TO.C,C51*%
X43349732Y-143179642D02*
X43385446Y-143215357D01*
X43421160Y-143322500D01*
X43421160Y-143393928D01*
X43385446Y-143501071D01*
X43314017Y-143572500D01*
X43242589Y-143608214D01*
X43099732Y-143643928D01*
X42992589Y-143643928D01*
X42849732Y-143608214D01*
X42778303Y-143572500D01*
X42706875Y-143501071D01*
X42671160Y-143393928D01*
X42671160Y-143322500D01*
X42706875Y-143215357D01*
X42742589Y-143179642D01*
X42671160Y-142501071D02*
X42671160Y-142858214D01*
X43028303Y-142893928D01*
X42992589Y-142858214D01*
X42956875Y-142786785D01*
X42956875Y-142608214D01*
X42992589Y-142536785D01*
X43028303Y-142501071D01*
X43099732Y-142465357D01*
X43278303Y-142465357D01*
X43349732Y-142501071D01*
X43385446Y-142536785D01*
X43421160Y-142608214D01*
X43421160Y-142786785D01*
X43385446Y-142858214D01*
X43349732Y-142893928D01*
X43421160Y-141751071D02*
X43421160Y-142179642D01*
X43421160Y-141965357D02*
X42671160Y-141965357D01*
X42778303Y-142036785D01*
X42849732Y-142108214D01*
X42885446Y-142179642D01*
%TO.C,C52*%
X54622857Y-144532142D02*
X54658571Y-144567857D01*
X54694285Y-144675000D01*
X54694285Y-144746428D01*
X54658571Y-144853571D01*
X54587142Y-144925000D01*
X54515714Y-144960714D01*
X54372857Y-144996428D01*
X54265714Y-144996428D01*
X54122857Y-144960714D01*
X54051428Y-144925000D01*
X53980000Y-144853571D01*
X53944285Y-144746428D01*
X53944285Y-144675000D01*
X53980000Y-144567857D01*
X54015714Y-144532142D01*
X53944285Y-143853571D02*
X53944285Y-144210714D01*
X54301428Y-144246428D01*
X54265714Y-144210714D01*
X54230000Y-144139285D01*
X54230000Y-143960714D01*
X54265714Y-143889285D01*
X54301428Y-143853571D01*
X54372857Y-143817857D01*
X54551428Y-143817857D01*
X54622857Y-143853571D01*
X54658571Y-143889285D01*
X54694285Y-143960714D01*
X54694285Y-144139285D01*
X54658571Y-144210714D01*
X54622857Y-144246428D01*
X54015714Y-143532142D02*
X53980000Y-143496428D01*
X53944285Y-143425000D01*
X53944285Y-143246428D01*
X53980000Y-143175000D01*
X54015714Y-143139285D01*
X54087142Y-143103571D01*
X54158571Y-143103571D01*
X54265714Y-143139285D01*
X54694285Y-143567857D01*
X54694285Y-143103571D01*
%TO.C,C53*%
X48144732Y-128975357D02*
X48109017Y-129011071D01*
X48001875Y-129046785D01*
X47930446Y-129046785D01*
X47823303Y-129011071D01*
X47751875Y-128939642D01*
X47716160Y-128868214D01*
X47680446Y-128725357D01*
X47680446Y-128618214D01*
X47716160Y-128475357D01*
X47751875Y-128403928D01*
X47823303Y-128332500D01*
X47930446Y-128296785D01*
X48001875Y-128296785D01*
X48109017Y-128332500D01*
X48144732Y-128368214D01*
X48823303Y-128296785D02*
X48466160Y-128296785D01*
X48430446Y-128653928D01*
X48466160Y-128618214D01*
X48537589Y-128582500D01*
X48716160Y-128582500D01*
X48787589Y-128618214D01*
X48823303Y-128653928D01*
X48859017Y-128725357D01*
X48859017Y-128903928D01*
X48823303Y-128975357D01*
X48787589Y-129011071D01*
X48716160Y-129046785D01*
X48537589Y-129046785D01*
X48466160Y-129011071D01*
X48430446Y-128975357D01*
X49109017Y-128296785D02*
X49573303Y-128296785D01*
X49323303Y-128582500D01*
X49430446Y-128582500D01*
X49501875Y-128618214D01*
X49537589Y-128653928D01*
X49573303Y-128725357D01*
X49573303Y-128903928D01*
X49537589Y-128975357D01*
X49501875Y-129011071D01*
X49430446Y-129046785D01*
X49216160Y-129046785D01*
X49144732Y-129011071D01*
X49109017Y-128975357D01*
%TO.C,C54*%
X63217857Y-129267857D02*
X63182142Y-129303571D01*
X63075000Y-129339285D01*
X63003571Y-129339285D01*
X62896428Y-129303571D01*
X62825000Y-129232142D01*
X62789285Y-129160714D01*
X62753571Y-129017857D01*
X62753571Y-128910714D01*
X62789285Y-128767857D01*
X62825000Y-128696428D01*
X62896428Y-128625000D01*
X63003571Y-128589285D01*
X63075000Y-128589285D01*
X63182142Y-128625000D01*
X63217857Y-128660714D01*
X63896428Y-128589285D02*
X63539285Y-128589285D01*
X63503571Y-128946428D01*
X63539285Y-128910714D01*
X63610714Y-128875000D01*
X63789285Y-128875000D01*
X63860714Y-128910714D01*
X63896428Y-128946428D01*
X63932142Y-129017857D01*
X63932142Y-129196428D01*
X63896428Y-129267857D01*
X63860714Y-129303571D01*
X63789285Y-129339285D01*
X63610714Y-129339285D01*
X63539285Y-129303571D01*
X63503571Y-129267857D01*
X64575000Y-128839285D02*
X64575000Y-129339285D01*
X64396428Y-128553571D02*
X64217857Y-129089285D01*
X64682142Y-129089285D01*
%TO.C,C55*%
X52449732Y-133179642D02*
X52485446Y-133215357D01*
X52521160Y-133322500D01*
X52521160Y-133393928D01*
X52485446Y-133501071D01*
X52414017Y-133572500D01*
X52342589Y-133608214D01*
X52199732Y-133643928D01*
X52092589Y-133643928D01*
X51949732Y-133608214D01*
X51878303Y-133572500D01*
X51806875Y-133501071D01*
X51771160Y-133393928D01*
X51771160Y-133322500D01*
X51806875Y-133215357D01*
X51842589Y-133179642D01*
X51771160Y-132501071D02*
X51771160Y-132858214D01*
X52128303Y-132893928D01*
X52092589Y-132858214D01*
X52056875Y-132786785D01*
X52056875Y-132608214D01*
X52092589Y-132536785D01*
X52128303Y-132501071D01*
X52199732Y-132465357D01*
X52378303Y-132465357D01*
X52449732Y-132501071D01*
X52485446Y-132536785D01*
X52521160Y-132608214D01*
X52521160Y-132786785D01*
X52485446Y-132858214D01*
X52449732Y-132893928D01*
X51771160Y-131786785D02*
X51771160Y-132143928D01*
X52128303Y-132179642D01*
X52092589Y-132143928D01*
X52056875Y-132072500D01*
X52056875Y-131893928D01*
X52092589Y-131822500D01*
X52128303Y-131786785D01*
X52199732Y-131751071D01*
X52378303Y-131751071D01*
X52449732Y-131786785D01*
X52485446Y-131822500D01*
X52521160Y-131893928D01*
X52521160Y-132072500D01*
X52485446Y-132143928D01*
X52449732Y-132179642D01*
%TO.C,C56*%
X63417857Y-133167857D02*
X63382142Y-133203571D01*
X63275000Y-133239285D01*
X63203571Y-133239285D01*
X63096428Y-133203571D01*
X63025000Y-133132142D01*
X62989285Y-133060714D01*
X62953571Y-132917857D01*
X62953571Y-132810714D01*
X62989285Y-132667857D01*
X63025000Y-132596428D01*
X63096428Y-132525000D01*
X63203571Y-132489285D01*
X63275000Y-132489285D01*
X63382142Y-132525000D01*
X63417857Y-132560714D01*
X64096428Y-132489285D02*
X63739285Y-132489285D01*
X63703571Y-132846428D01*
X63739285Y-132810714D01*
X63810714Y-132775000D01*
X63989285Y-132775000D01*
X64060714Y-132810714D01*
X64096428Y-132846428D01*
X64132142Y-132917857D01*
X64132142Y-133096428D01*
X64096428Y-133167857D01*
X64060714Y-133203571D01*
X63989285Y-133239285D01*
X63810714Y-133239285D01*
X63739285Y-133203571D01*
X63703571Y-133167857D01*
X64775000Y-132489285D02*
X64632142Y-132489285D01*
X64560714Y-132525000D01*
X64525000Y-132560714D01*
X64453571Y-132667857D01*
X64417857Y-132810714D01*
X64417857Y-133096428D01*
X64453571Y-133167857D01*
X64489285Y-133203571D01*
X64560714Y-133239285D01*
X64703571Y-133239285D01*
X64775000Y-133203571D01*
X64810714Y-133167857D01*
X64846428Y-133096428D01*
X64846428Y-132917857D01*
X64810714Y-132846428D01*
X64775000Y-132810714D01*
X64703571Y-132775000D01*
X64560714Y-132775000D01*
X64489285Y-132810714D01*
X64453571Y-132846428D01*
X64417857Y-132917857D01*
%TO.C,C57*%
X52449732Y-130979642D02*
X52485446Y-131015357D01*
X52521160Y-131122500D01*
X52521160Y-131193928D01*
X52485446Y-131301071D01*
X52414017Y-131372500D01*
X52342589Y-131408214D01*
X52199732Y-131443928D01*
X52092589Y-131443928D01*
X51949732Y-131408214D01*
X51878303Y-131372500D01*
X51806875Y-131301071D01*
X51771160Y-131193928D01*
X51771160Y-131122500D01*
X51806875Y-131015357D01*
X51842589Y-130979642D01*
X51771160Y-130301071D02*
X51771160Y-130658214D01*
X52128303Y-130693928D01*
X52092589Y-130658214D01*
X52056875Y-130586785D01*
X52056875Y-130408214D01*
X52092589Y-130336785D01*
X52128303Y-130301071D01*
X52199732Y-130265357D01*
X52378303Y-130265357D01*
X52449732Y-130301071D01*
X52485446Y-130336785D01*
X52521160Y-130408214D01*
X52521160Y-130586785D01*
X52485446Y-130658214D01*
X52449732Y-130693928D01*
X51771160Y-130015357D02*
X51771160Y-129515357D01*
X52521160Y-129836785D01*
%TO.C,C58*%
X63217857Y-130867857D02*
X63182142Y-130903571D01*
X63075000Y-130939285D01*
X63003571Y-130939285D01*
X62896428Y-130903571D01*
X62825000Y-130832142D01*
X62789285Y-130760714D01*
X62753571Y-130617857D01*
X62753571Y-130510714D01*
X62789285Y-130367857D01*
X62825000Y-130296428D01*
X62896428Y-130225000D01*
X63003571Y-130189285D01*
X63075000Y-130189285D01*
X63182142Y-130225000D01*
X63217857Y-130260714D01*
X63896428Y-130189285D02*
X63539285Y-130189285D01*
X63503571Y-130546428D01*
X63539285Y-130510714D01*
X63610714Y-130475000D01*
X63789285Y-130475000D01*
X63860714Y-130510714D01*
X63896428Y-130546428D01*
X63932142Y-130617857D01*
X63932142Y-130796428D01*
X63896428Y-130867857D01*
X63860714Y-130903571D01*
X63789285Y-130939285D01*
X63610714Y-130939285D01*
X63539285Y-130903571D01*
X63503571Y-130867857D01*
X64360714Y-130510714D02*
X64289285Y-130475000D01*
X64253571Y-130439285D01*
X64217857Y-130367857D01*
X64217857Y-130332142D01*
X64253571Y-130260714D01*
X64289285Y-130225000D01*
X64360714Y-130189285D01*
X64503571Y-130189285D01*
X64575000Y-130225000D01*
X64610714Y-130260714D01*
X64646428Y-130332142D01*
X64646428Y-130367857D01*
X64610714Y-130439285D01*
X64575000Y-130475000D01*
X64503571Y-130510714D01*
X64360714Y-130510714D01*
X64289285Y-130546428D01*
X64253571Y-130582142D01*
X64217857Y-130653571D01*
X64217857Y-130796428D01*
X64253571Y-130867857D01*
X64289285Y-130903571D01*
X64360714Y-130939285D01*
X64503571Y-130939285D01*
X64575000Y-130903571D01*
X64610714Y-130867857D01*
X64646428Y-130796428D01*
X64646428Y-130653571D01*
X64610714Y-130582142D01*
X64575000Y-130546428D01*
X64503571Y-130510714D01*
%TO.C,C59*%
X43117857Y-123467857D02*
X43082142Y-123503571D01*
X42975000Y-123539285D01*
X42903571Y-123539285D01*
X42796428Y-123503571D01*
X42725000Y-123432142D01*
X42689285Y-123360714D01*
X42653571Y-123217857D01*
X42653571Y-123110714D01*
X42689285Y-122967857D01*
X42725000Y-122896428D01*
X42796428Y-122825000D01*
X42903571Y-122789285D01*
X42975000Y-122789285D01*
X43082142Y-122825000D01*
X43117857Y-122860714D01*
X43796428Y-122789285D02*
X43439285Y-122789285D01*
X43403571Y-123146428D01*
X43439285Y-123110714D01*
X43510714Y-123075000D01*
X43689285Y-123075000D01*
X43760714Y-123110714D01*
X43796428Y-123146428D01*
X43832142Y-123217857D01*
X43832142Y-123396428D01*
X43796428Y-123467857D01*
X43760714Y-123503571D01*
X43689285Y-123539285D01*
X43510714Y-123539285D01*
X43439285Y-123503571D01*
X43403571Y-123467857D01*
X44189285Y-123539285D02*
X44332142Y-123539285D01*
X44403571Y-123503571D01*
X44439285Y-123467857D01*
X44510714Y-123360714D01*
X44546428Y-123217857D01*
X44546428Y-122932142D01*
X44510714Y-122860714D01*
X44475000Y-122825000D01*
X44403571Y-122789285D01*
X44260714Y-122789285D01*
X44189285Y-122825000D01*
X44153571Y-122860714D01*
X44117857Y-122932142D01*
X44117857Y-123110714D01*
X44153571Y-123182142D01*
X44189285Y-123217857D01*
X44260714Y-123253571D01*
X44403571Y-123253571D01*
X44475000Y-123217857D01*
X44510714Y-123182142D01*
X44546428Y-123110714D01*
%TO.C,C60*%
X45517857Y-123367857D02*
X45482142Y-123403571D01*
X45375000Y-123439285D01*
X45303571Y-123439285D01*
X45196428Y-123403571D01*
X45125000Y-123332142D01*
X45089285Y-123260714D01*
X45053571Y-123117857D01*
X45053571Y-123010714D01*
X45089285Y-122867857D01*
X45125000Y-122796428D01*
X45196428Y-122725000D01*
X45303571Y-122689285D01*
X45375000Y-122689285D01*
X45482142Y-122725000D01*
X45517857Y-122760714D01*
X46160714Y-122689285D02*
X46017857Y-122689285D01*
X45946428Y-122725000D01*
X45910714Y-122760714D01*
X45839285Y-122867857D01*
X45803571Y-123010714D01*
X45803571Y-123296428D01*
X45839285Y-123367857D01*
X45875000Y-123403571D01*
X45946428Y-123439285D01*
X46089285Y-123439285D01*
X46160714Y-123403571D01*
X46196428Y-123367857D01*
X46232142Y-123296428D01*
X46232142Y-123117857D01*
X46196428Y-123046428D01*
X46160714Y-123010714D01*
X46089285Y-122975000D01*
X45946428Y-122975000D01*
X45875000Y-123010714D01*
X45839285Y-123046428D01*
X45803571Y-123117857D01*
X46696428Y-122689285D02*
X46767857Y-122689285D01*
X46839285Y-122725000D01*
X46875000Y-122760714D01*
X46910714Y-122832142D01*
X46946428Y-122975000D01*
X46946428Y-123153571D01*
X46910714Y-123296428D01*
X46875000Y-123367857D01*
X46839285Y-123403571D01*
X46767857Y-123439285D01*
X46696428Y-123439285D01*
X46625000Y-123403571D01*
X46589285Y-123367857D01*
X46553571Y-123296428D01*
X46517857Y-123153571D01*
X46517857Y-122975000D01*
X46553571Y-122832142D01*
X46589285Y-122760714D01*
X46625000Y-122725000D01*
X46696428Y-122689285D01*
%TO.C,C61*%
X34147857Y-135202142D02*
X34183571Y-135237857D01*
X34219285Y-135345000D01*
X34219285Y-135416428D01*
X34183571Y-135523571D01*
X34112142Y-135595000D01*
X34040714Y-135630714D01*
X33897857Y-135666428D01*
X33790714Y-135666428D01*
X33647857Y-135630714D01*
X33576428Y-135595000D01*
X33505000Y-135523571D01*
X33469285Y-135416428D01*
X33469285Y-135345000D01*
X33505000Y-135237857D01*
X33540714Y-135202142D01*
X33469285Y-134559285D02*
X33469285Y-134702142D01*
X33505000Y-134773571D01*
X33540714Y-134809285D01*
X33647857Y-134880714D01*
X33790714Y-134916428D01*
X34076428Y-134916428D01*
X34147857Y-134880714D01*
X34183571Y-134845000D01*
X34219285Y-134773571D01*
X34219285Y-134630714D01*
X34183571Y-134559285D01*
X34147857Y-134523571D01*
X34076428Y-134487857D01*
X33897857Y-134487857D01*
X33826428Y-134523571D01*
X33790714Y-134559285D01*
X33755000Y-134630714D01*
X33755000Y-134773571D01*
X33790714Y-134845000D01*
X33826428Y-134880714D01*
X33897857Y-134916428D01*
X34219285Y-133773571D02*
X34219285Y-134202142D01*
X34219285Y-133987857D02*
X33469285Y-133987857D01*
X33576428Y-134059285D01*
X33647857Y-134130714D01*
X33683571Y-134202142D01*
%TO.C,C64*%
X30627857Y-134912142D02*
X30663571Y-134947857D01*
X30699285Y-135055000D01*
X30699285Y-135126428D01*
X30663571Y-135233571D01*
X30592142Y-135305000D01*
X30520714Y-135340714D01*
X30377857Y-135376428D01*
X30270714Y-135376428D01*
X30127857Y-135340714D01*
X30056428Y-135305000D01*
X29985000Y-135233571D01*
X29949285Y-135126428D01*
X29949285Y-135055000D01*
X29985000Y-134947857D01*
X30020714Y-134912142D01*
X29949285Y-134269285D02*
X29949285Y-134412142D01*
X29985000Y-134483571D01*
X30020714Y-134519285D01*
X30127857Y-134590714D01*
X30270714Y-134626428D01*
X30556428Y-134626428D01*
X30627857Y-134590714D01*
X30663571Y-134555000D01*
X30699285Y-134483571D01*
X30699285Y-134340714D01*
X30663571Y-134269285D01*
X30627857Y-134233571D01*
X30556428Y-134197857D01*
X30377857Y-134197857D01*
X30306428Y-134233571D01*
X30270714Y-134269285D01*
X30235000Y-134340714D01*
X30235000Y-134483571D01*
X30270714Y-134555000D01*
X30306428Y-134590714D01*
X30377857Y-134626428D01*
X30199285Y-133555000D02*
X30699285Y-133555000D01*
X29913571Y-133733571D02*
X30449285Y-133912142D01*
X30449285Y-133447857D01*
%TO.C,C66*%
X65917857Y-145927857D02*
X65882142Y-145963571D01*
X65775000Y-145999285D01*
X65703571Y-145999285D01*
X65596428Y-145963571D01*
X65525000Y-145892142D01*
X65489285Y-145820714D01*
X65453571Y-145677857D01*
X65453571Y-145570714D01*
X65489285Y-145427857D01*
X65525000Y-145356428D01*
X65596428Y-145285000D01*
X65703571Y-145249285D01*
X65775000Y-145249285D01*
X65882142Y-145285000D01*
X65917857Y-145320714D01*
X66560714Y-145249285D02*
X66417857Y-145249285D01*
X66346428Y-145285000D01*
X66310714Y-145320714D01*
X66239285Y-145427857D01*
X66203571Y-145570714D01*
X66203571Y-145856428D01*
X66239285Y-145927857D01*
X66275000Y-145963571D01*
X66346428Y-145999285D01*
X66489285Y-145999285D01*
X66560714Y-145963571D01*
X66596428Y-145927857D01*
X66632142Y-145856428D01*
X66632142Y-145677857D01*
X66596428Y-145606428D01*
X66560714Y-145570714D01*
X66489285Y-145535000D01*
X66346428Y-145535000D01*
X66275000Y-145570714D01*
X66239285Y-145606428D01*
X66203571Y-145677857D01*
X67275000Y-145249285D02*
X67132142Y-145249285D01*
X67060714Y-145285000D01*
X67025000Y-145320714D01*
X66953571Y-145427857D01*
X66917857Y-145570714D01*
X66917857Y-145856428D01*
X66953571Y-145927857D01*
X66989285Y-145963571D01*
X67060714Y-145999285D01*
X67203571Y-145999285D01*
X67275000Y-145963571D01*
X67310714Y-145927857D01*
X67346428Y-145856428D01*
X67346428Y-145677857D01*
X67310714Y-145606428D01*
X67275000Y-145570714D01*
X67203571Y-145535000D01*
X67060714Y-145535000D01*
X66989285Y-145570714D01*
X66953571Y-145606428D01*
X66917857Y-145677857D01*
%TO.C,D1*%
X28301428Y-129269285D02*
X28301428Y-128519285D01*
X28480000Y-128519285D01*
X28587142Y-128555000D01*
X28658571Y-128626428D01*
X28694285Y-128697857D01*
X28730000Y-128840714D01*
X28730000Y-128947857D01*
X28694285Y-129090714D01*
X28658571Y-129162142D01*
X28587142Y-129233571D01*
X28480000Y-129269285D01*
X28301428Y-129269285D01*
X29444285Y-129269285D02*
X29015714Y-129269285D01*
X29230000Y-129269285D02*
X29230000Y-128519285D01*
X29158571Y-128626428D01*
X29087142Y-128697857D01*
X29015714Y-128733571D01*
%TO.C,D2*%
X30379285Y-128013571D02*
X29629285Y-128013571D01*
X29629285Y-127835000D01*
X29665000Y-127727857D01*
X29736428Y-127656428D01*
X29807857Y-127620714D01*
X29950714Y-127585000D01*
X30057857Y-127585000D01*
X30200714Y-127620714D01*
X30272142Y-127656428D01*
X30343571Y-127727857D01*
X30379285Y-127835000D01*
X30379285Y-128013571D01*
X29700714Y-127299285D02*
X29665000Y-127263571D01*
X29629285Y-127192142D01*
X29629285Y-127013571D01*
X29665000Y-126942142D01*
X29700714Y-126906428D01*
X29772142Y-126870714D01*
X29843571Y-126870714D01*
X29950714Y-126906428D01*
X30379285Y-127335000D01*
X30379285Y-126870714D01*
%TO.C,R9*%
X26849000Y-152705285D02*
X26599000Y-152348142D01*
X26420428Y-152705285D02*
X26420428Y-151955285D01*
X26706142Y-151955285D01*
X26777571Y-151991000D01*
X26813285Y-152026714D01*
X26849000Y-152098142D01*
X26849000Y-152205285D01*
X26813285Y-152276714D01*
X26777571Y-152312428D01*
X26706142Y-152348142D01*
X26420428Y-152348142D01*
X27206142Y-152705285D02*
X27349000Y-152705285D01*
X27420428Y-152669571D01*
X27456142Y-152633857D01*
X27527571Y-152526714D01*
X27563285Y-152383857D01*
X27563285Y-152098142D01*
X27527571Y-152026714D01*
X27491857Y-151991000D01*
X27420428Y-151955285D01*
X27277571Y-151955285D01*
X27206142Y-151991000D01*
X27170428Y-152026714D01*
X27134714Y-152098142D01*
X27134714Y-152276714D01*
X27170428Y-152348142D01*
X27206142Y-152383857D01*
X27277571Y-152419571D01*
X27420428Y-152419571D01*
X27491857Y-152383857D01*
X27527571Y-152348142D01*
X27563285Y-152276714D01*
%TO.C,R10*%
X31689285Y-144955642D02*
X31332142Y-145205642D01*
X31689285Y-145384214D02*
X30939285Y-145384214D01*
X30939285Y-145098500D01*
X30975000Y-145027071D01*
X31010714Y-144991357D01*
X31082142Y-144955642D01*
X31189285Y-144955642D01*
X31260714Y-144991357D01*
X31296428Y-145027071D01*
X31332142Y-145098500D01*
X31332142Y-145384214D01*
X31689285Y-144241357D02*
X31689285Y-144669928D01*
X31689285Y-144455642D02*
X30939285Y-144455642D01*
X31046428Y-144527071D01*
X31117857Y-144598500D01*
X31153571Y-144669928D01*
X30939285Y-143777071D02*
X30939285Y-143705642D01*
X30975000Y-143634214D01*
X31010714Y-143598500D01*
X31082142Y-143562785D01*
X31225000Y-143527071D01*
X31403571Y-143527071D01*
X31546428Y-143562785D01*
X31617857Y-143598500D01*
X31653571Y-143634214D01*
X31689285Y-143705642D01*
X31689285Y-143777071D01*
X31653571Y-143848500D01*
X31617857Y-143884214D01*
X31546428Y-143919928D01*
X31403571Y-143955642D01*
X31225000Y-143955642D01*
X31082142Y-143919928D01*
X31010714Y-143884214D01*
X30975000Y-143848500D01*
X30939285Y-143777071D01*
%TO.C,R11*%
X26627857Y-151165285D02*
X26377857Y-150808142D01*
X26199285Y-151165285D02*
X26199285Y-150415285D01*
X26485000Y-150415285D01*
X26556428Y-150451000D01*
X26592142Y-150486714D01*
X26627857Y-150558142D01*
X26627857Y-150665285D01*
X26592142Y-150736714D01*
X26556428Y-150772428D01*
X26485000Y-150808142D01*
X26199285Y-150808142D01*
X27342142Y-151165285D02*
X26913571Y-151165285D01*
X27127857Y-151165285D02*
X27127857Y-150415285D01*
X27056428Y-150522428D01*
X26985000Y-150593857D01*
X26913571Y-150629571D01*
X28056428Y-151165285D02*
X27627857Y-151165285D01*
X27842142Y-151165285D02*
X27842142Y-150415285D01*
X27770714Y-150522428D01*
X27699285Y-150593857D01*
X27627857Y-150629571D01*
%TO.C,R12*%
X30839285Y-158982142D02*
X30482142Y-159232142D01*
X30839285Y-159410714D02*
X30089285Y-159410714D01*
X30089285Y-159125000D01*
X30125000Y-159053571D01*
X30160714Y-159017857D01*
X30232142Y-158982142D01*
X30339285Y-158982142D01*
X30410714Y-159017857D01*
X30446428Y-159053571D01*
X30482142Y-159125000D01*
X30482142Y-159410714D01*
X30839285Y-158267857D02*
X30839285Y-158696428D01*
X30839285Y-158482142D02*
X30089285Y-158482142D01*
X30196428Y-158553571D01*
X30267857Y-158625000D01*
X30303571Y-158696428D01*
X30160714Y-157982142D02*
X30125000Y-157946428D01*
X30089285Y-157875000D01*
X30089285Y-157696428D01*
X30125000Y-157625000D01*
X30160714Y-157589285D01*
X30232142Y-157553571D01*
X30303571Y-157553571D01*
X30410714Y-157589285D01*
X30839285Y-158017857D01*
X30839285Y-157553571D01*
%TO.C,R42*%
X39087857Y-139859285D02*
X38837857Y-139502142D01*
X38659285Y-139859285D02*
X38659285Y-139109285D01*
X38945000Y-139109285D01*
X39016428Y-139145000D01*
X39052142Y-139180714D01*
X39087857Y-139252142D01*
X39087857Y-139359285D01*
X39052142Y-139430714D01*
X39016428Y-139466428D01*
X38945000Y-139502142D01*
X38659285Y-139502142D01*
X39730714Y-139359285D02*
X39730714Y-139859285D01*
X39552142Y-139073571D02*
X39373571Y-139609285D01*
X39837857Y-139609285D01*
X40087857Y-139180714D02*
X40123571Y-139145000D01*
X40195000Y-139109285D01*
X40373571Y-139109285D01*
X40445000Y-139145000D01*
X40480714Y-139180714D01*
X40516428Y-139252142D01*
X40516428Y-139323571D01*
X40480714Y-139430714D01*
X40052142Y-139859285D01*
X40516428Y-139859285D01*
%TO.C,C15*%
X72817857Y-151867857D02*
X72782142Y-151903571D01*
X72675000Y-151939285D01*
X72603571Y-151939285D01*
X72496428Y-151903571D01*
X72425000Y-151832142D01*
X72389285Y-151760714D01*
X72353571Y-151617857D01*
X72353571Y-151510714D01*
X72389285Y-151367857D01*
X72425000Y-151296428D01*
X72496428Y-151225000D01*
X72603571Y-151189285D01*
X72675000Y-151189285D01*
X72782142Y-151225000D01*
X72817857Y-151260714D01*
X73532142Y-151939285D02*
X73103571Y-151939285D01*
X73317857Y-151939285D02*
X73317857Y-151189285D01*
X73246428Y-151296428D01*
X73175000Y-151367857D01*
X73103571Y-151403571D01*
X74210714Y-151189285D02*
X73853571Y-151189285D01*
X73817857Y-151546428D01*
X73853571Y-151510714D01*
X73925000Y-151475000D01*
X74103571Y-151475000D01*
X74175000Y-151510714D01*
X74210714Y-151546428D01*
X74246428Y-151617857D01*
X74246428Y-151796428D01*
X74210714Y-151867857D01*
X74175000Y-151903571D01*
X74103571Y-151939285D01*
X73925000Y-151939285D01*
X73853571Y-151903571D01*
X73817857Y-151867857D01*
%TO.C,C16*%
X72817857Y-148367857D02*
X72782142Y-148403571D01*
X72675000Y-148439285D01*
X72603571Y-148439285D01*
X72496428Y-148403571D01*
X72425000Y-148332142D01*
X72389285Y-148260714D01*
X72353571Y-148117857D01*
X72353571Y-148010714D01*
X72389285Y-147867857D01*
X72425000Y-147796428D01*
X72496428Y-147725000D01*
X72603571Y-147689285D01*
X72675000Y-147689285D01*
X72782142Y-147725000D01*
X72817857Y-147760714D01*
X73532142Y-148439285D02*
X73103571Y-148439285D01*
X73317857Y-148439285D02*
X73317857Y-147689285D01*
X73246428Y-147796428D01*
X73175000Y-147867857D01*
X73103571Y-147903571D01*
X74175000Y-147689285D02*
X74032142Y-147689285D01*
X73960714Y-147725000D01*
X73925000Y-147760714D01*
X73853571Y-147867857D01*
X73817857Y-148010714D01*
X73817857Y-148296428D01*
X73853571Y-148367857D01*
X73889285Y-148403571D01*
X73960714Y-148439285D01*
X74103571Y-148439285D01*
X74175000Y-148403571D01*
X74210714Y-148367857D01*
X74246428Y-148296428D01*
X74246428Y-148117857D01*
X74210714Y-148046428D01*
X74175000Y-148010714D01*
X74103571Y-147975000D01*
X73960714Y-147975000D01*
X73889285Y-148010714D01*
X73853571Y-148046428D01*
X73817857Y-148117857D01*
%TO.C,C17*%
X72917857Y-150167857D02*
X72882142Y-150203571D01*
X72775000Y-150239285D01*
X72703571Y-150239285D01*
X72596428Y-150203571D01*
X72525000Y-150132142D01*
X72489285Y-150060714D01*
X72453571Y-149917857D01*
X72453571Y-149810714D01*
X72489285Y-149667857D01*
X72525000Y-149596428D01*
X72596428Y-149525000D01*
X72703571Y-149489285D01*
X72775000Y-149489285D01*
X72882142Y-149525000D01*
X72917857Y-149560714D01*
X73632142Y-150239285D02*
X73203571Y-150239285D01*
X73417857Y-150239285D02*
X73417857Y-149489285D01*
X73346428Y-149596428D01*
X73275000Y-149667857D01*
X73203571Y-149703571D01*
X73882142Y-149489285D02*
X74382142Y-149489285D01*
X74060714Y-150239285D01*
%TO.C,C30*%
X65127857Y-128082857D02*
X65092142Y-128118571D01*
X64985000Y-128154285D01*
X64913571Y-128154285D01*
X64806428Y-128118571D01*
X64735000Y-128047142D01*
X64699285Y-127975714D01*
X64663571Y-127832857D01*
X64663571Y-127725714D01*
X64699285Y-127582857D01*
X64735000Y-127511428D01*
X64806428Y-127440000D01*
X64913571Y-127404285D01*
X64985000Y-127404285D01*
X65092142Y-127440000D01*
X65127857Y-127475714D01*
X65377857Y-127404285D02*
X65842142Y-127404285D01*
X65592142Y-127690000D01*
X65699285Y-127690000D01*
X65770714Y-127725714D01*
X65806428Y-127761428D01*
X65842142Y-127832857D01*
X65842142Y-128011428D01*
X65806428Y-128082857D01*
X65770714Y-128118571D01*
X65699285Y-128154285D01*
X65485000Y-128154285D01*
X65413571Y-128118571D01*
X65377857Y-128082857D01*
X66306428Y-127404285D02*
X66377857Y-127404285D01*
X66449285Y-127440000D01*
X66485000Y-127475714D01*
X66520714Y-127547142D01*
X66556428Y-127690000D01*
X66556428Y-127868571D01*
X66520714Y-128011428D01*
X66485000Y-128082857D01*
X66449285Y-128118571D01*
X66377857Y-128154285D01*
X66306428Y-128154285D01*
X66235000Y-128118571D01*
X66199285Y-128082857D01*
X66163571Y-128011428D01*
X66127857Y-127868571D01*
X66127857Y-127690000D01*
X66163571Y-127547142D01*
X66199285Y-127475714D01*
X66235000Y-127440000D01*
X66306428Y-127404285D01*
%TO.C,C32*%
X62417857Y-128167857D02*
X62382142Y-128203571D01*
X62275000Y-128239285D01*
X62203571Y-128239285D01*
X62096428Y-128203571D01*
X62025000Y-128132142D01*
X61989285Y-128060714D01*
X61953571Y-127917857D01*
X61953571Y-127810714D01*
X61989285Y-127667857D01*
X62025000Y-127596428D01*
X62096428Y-127525000D01*
X62203571Y-127489285D01*
X62275000Y-127489285D01*
X62382142Y-127525000D01*
X62417857Y-127560714D01*
X62667857Y-127489285D02*
X63132142Y-127489285D01*
X62882142Y-127775000D01*
X62989285Y-127775000D01*
X63060714Y-127810714D01*
X63096428Y-127846428D01*
X63132142Y-127917857D01*
X63132142Y-128096428D01*
X63096428Y-128167857D01*
X63060714Y-128203571D01*
X62989285Y-128239285D01*
X62775000Y-128239285D01*
X62703571Y-128203571D01*
X62667857Y-128167857D01*
X63417857Y-127560714D02*
X63453571Y-127525000D01*
X63525000Y-127489285D01*
X63703571Y-127489285D01*
X63775000Y-127525000D01*
X63810714Y-127560714D01*
X63846428Y-127632142D01*
X63846428Y-127703571D01*
X63810714Y-127810714D01*
X63382142Y-128239285D01*
X63846428Y-128239285D01*
%TO.C,C35*%
X67947857Y-128212857D02*
X67912142Y-128248571D01*
X67805000Y-128284285D01*
X67733571Y-128284285D01*
X67626428Y-128248571D01*
X67555000Y-128177142D01*
X67519285Y-128105714D01*
X67483571Y-127962857D01*
X67483571Y-127855714D01*
X67519285Y-127712857D01*
X67555000Y-127641428D01*
X67626428Y-127570000D01*
X67733571Y-127534285D01*
X67805000Y-127534285D01*
X67912142Y-127570000D01*
X67947857Y-127605714D01*
X68197857Y-127534285D02*
X68662142Y-127534285D01*
X68412142Y-127820000D01*
X68519285Y-127820000D01*
X68590714Y-127855714D01*
X68626428Y-127891428D01*
X68662142Y-127962857D01*
X68662142Y-128141428D01*
X68626428Y-128212857D01*
X68590714Y-128248571D01*
X68519285Y-128284285D01*
X68305000Y-128284285D01*
X68233571Y-128248571D01*
X68197857Y-128212857D01*
X69340714Y-127534285D02*
X68983571Y-127534285D01*
X68947857Y-127891428D01*
X68983571Y-127855714D01*
X69055000Y-127820000D01*
X69233571Y-127820000D01*
X69305000Y-127855714D01*
X69340714Y-127891428D01*
X69376428Y-127962857D01*
X69376428Y-128141428D01*
X69340714Y-128212857D01*
X69305000Y-128248571D01*
X69233571Y-128284285D01*
X69055000Y-128284285D01*
X68983571Y-128248571D01*
X68947857Y-128212857D01*
%TO.C,C44*%
X34767857Y-123382142D02*
X34803571Y-123417857D01*
X34839285Y-123525000D01*
X34839285Y-123596428D01*
X34803571Y-123703571D01*
X34732142Y-123775000D01*
X34660714Y-123810714D01*
X34517857Y-123846428D01*
X34410714Y-123846428D01*
X34267857Y-123810714D01*
X34196428Y-123775000D01*
X34125000Y-123703571D01*
X34089285Y-123596428D01*
X34089285Y-123525000D01*
X34125000Y-123417857D01*
X34160714Y-123382142D01*
X34339285Y-122739285D02*
X34839285Y-122739285D01*
X34053571Y-122917857D02*
X34589285Y-123096428D01*
X34589285Y-122632142D01*
X34339285Y-122025000D02*
X34839285Y-122025000D01*
X34053571Y-122203571D02*
X34589285Y-122382142D01*
X34589285Y-121917857D01*
%TO.C,J2*%
X40750000Y-128189285D02*
X40750000Y-128725000D01*
X40714285Y-128832142D01*
X40642857Y-128903571D01*
X40535714Y-128939285D01*
X40464285Y-128939285D01*
X41071428Y-128260714D02*
X41107142Y-128225000D01*
X41178571Y-128189285D01*
X41357142Y-128189285D01*
X41428571Y-128225000D01*
X41464285Y-128260714D01*
X41500000Y-128332142D01*
X41500000Y-128403571D01*
X41464285Y-128510714D01*
X41035714Y-128939285D01*
X41500000Y-128939285D01*
%TO.C,J3*%
X25650000Y-131489285D02*
X25650000Y-132025000D01*
X25614285Y-132132142D01*
X25542857Y-132203571D01*
X25435714Y-132239285D01*
X25364285Y-132239285D01*
X25935714Y-131489285D02*
X26400000Y-131489285D01*
X26150000Y-131775000D01*
X26257142Y-131775000D01*
X26328571Y-131810714D01*
X26364285Y-131846428D01*
X26400000Y-131917857D01*
X26400000Y-132096428D01*
X26364285Y-132167857D01*
X26328571Y-132203571D01*
X26257142Y-132239285D01*
X26042857Y-132239285D01*
X25971428Y-132203571D01*
X25935714Y-132167857D01*
%TO.C,R5*%
X26709285Y-144891000D02*
X26352142Y-145141000D01*
X26709285Y-145319571D02*
X25959285Y-145319571D01*
X25959285Y-145033857D01*
X25995000Y-144962428D01*
X26030714Y-144926714D01*
X26102142Y-144891000D01*
X26209285Y-144891000D01*
X26280714Y-144926714D01*
X26316428Y-144962428D01*
X26352142Y-145033857D01*
X26352142Y-145319571D01*
X25959285Y-144212428D02*
X25959285Y-144569571D01*
X26316428Y-144605285D01*
X26280714Y-144569571D01*
X26245000Y-144498142D01*
X26245000Y-144319571D01*
X26280714Y-144248142D01*
X26316428Y-144212428D01*
X26387857Y-144176714D01*
X26566428Y-144176714D01*
X26637857Y-144212428D01*
X26673571Y-144248142D01*
X26709285Y-144319571D01*
X26709285Y-144498142D01*
X26673571Y-144569571D01*
X26637857Y-144605285D01*
%TO.C,R6*%
X28189285Y-144871000D02*
X27832142Y-145121000D01*
X28189285Y-145299571D02*
X27439285Y-145299571D01*
X27439285Y-145013857D01*
X27475000Y-144942428D01*
X27510714Y-144906714D01*
X27582142Y-144871000D01*
X27689285Y-144871000D01*
X27760714Y-144906714D01*
X27796428Y-144942428D01*
X27832142Y-145013857D01*
X27832142Y-145299571D01*
X27439285Y-144228142D02*
X27439285Y-144371000D01*
X27475000Y-144442428D01*
X27510714Y-144478142D01*
X27617857Y-144549571D01*
X27760714Y-144585285D01*
X28046428Y-144585285D01*
X28117857Y-144549571D01*
X28153571Y-144513857D01*
X28189285Y-144442428D01*
X28189285Y-144299571D01*
X28153571Y-144228142D01*
X28117857Y-144192428D01*
X28046428Y-144156714D01*
X27867857Y-144156714D01*
X27796428Y-144192428D01*
X27760714Y-144228142D01*
X27725000Y-144299571D01*
X27725000Y-144442428D01*
X27760714Y-144513857D01*
X27796428Y-144549571D01*
X27867857Y-144585285D01*
%TO.C,R13*%
X65572857Y-139439285D02*
X65322857Y-139082142D01*
X65144285Y-139439285D02*
X65144285Y-138689285D01*
X65430000Y-138689285D01*
X65501428Y-138725000D01*
X65537142Y-138760714D01*
X65572857Y-138832142D01*
X65572857Y-138939285D01*
X65537142Y-139010714D01*
X65501428Y-139046428D01*
X65430000Y-139082142D01*
X65144285Y-139082142D01*
X66287142Y-139439285D02*
X65858571Y-139439285D01*
X66072857Y-139439285D02*
X66072857Y-138689285D01*
X66001428Y-138796428D01*
X65930000Y-138867857D01*
X65858571Y-138903571D01*
X66537142Y-138689285D02*
X67001428Y-138689285D01*
X66751428Y-138975000D01*
X66858571Y-138975000D01*
X66930000Y-139010714D01*
X66965714Y-139046428D01*
X67001428Y-139117857D01*
X67001428Y-139296428D01*
X66965714Y-139367857D01*
X66930000Y-139403571D01*
X66858571Y-139439285D01*
X66644285Y-139439285D01*
X66572857Y-139403571D01*
X66537142Y-139367857D01*
D12*
%TO.C,R16*%
X64117857Y-141339285D02*
X63867857Y-140982142D01*
X63689285Y-141339285D02*
X63689285Y-140589285D01*
X63975000Y-140589285D01*
X64046428Y-140625000D01*
X64082142Y-140660714D01*
X64117857Y-140732142D01*
X64117857Y-140839285D01*
X64082142Y-140910714D01*
X64046428Y-140946428D01*
X63975000Y-140982142D01*
X63689285Y-140982142D01*
X64832142Y-141339285D02*
X64403571Y-141339285D01*
X64617857Y-141339285D02*
X64617857Y-140589285D01*
X64546428Y-140696428D01*
X64475000Y-140767857D01*
X64403571Y-140803571D01*
X65475000Y-140589285D02*
X65332142Y-140589285D01*
X65260714Y-140625000D01*
X65225000Y-140660714D01*
X65153571Y-140767857D01*
X65117857Y-140910714D01*
X65117857Y-141196428D01*
X65153571Y-141267857D01*
X65189285Y-141303571D01*
X65260714Y-141339285D01*
X65403571Y-141339285D01*
X65475000Y-141303571D01*
X65510714Y-141267857D01*
X65546428Y-141196428D01*
X65546428Y-141017857D01*
X65510714Y-140946428D01*
X65475000Y-140910714D01*
X65403571Y-140875000D01*
X65260714Y-140875000D01*
X65189285Y-140910714D01*
X65153571Y-140946428D01*
X65117857Y-141017857D01*
D10*
%TO.C,R25*%
X39339285Y-123482142D02*
X38982142Y-123732142D01*
X39339285Y-123910714D02*
X38589285Y-123910714D01*
X38589285Y-123625000D01*
X38625000Y-123553571D01*
X38660714Y-123517857D01*
X38732142Y-123482142D01*
X38839285Y-123482142D01*
X38910714Y-123517857D01*
X38946428Y-123553571D01*
X38982142Y-123625000D01*
X38982142Y-123910714D01*
X38660714Y-123196428D02*
X38625000Y-123160714D01*
X38589285Y-123089285D01*
X38589285Y-122910714D01*
X38625000Y-122839285D01*
X38660714Y-122803571D01*
X38732142Y-122767857D01*
X38803571Y-122767857D01*
X38910714Y-122803571D01*
X39339285Y-123232142D01*
X39339285Y-122767857D01*
X38589285Y-122089285D02*
X38589285Y-122446428D01*
X38946428Y-122482142D01*
X38910714Y-122446428D01*
X38875000Y-122375000D01*
X38875000Y-122196428D01*
X38910714Y-122125000D01*
X38946428Y-122089285D01*
X39017857Y-122053571D01*
X39196428Y-122053571D01*
X39267857Y-122089285D01*
X39303571Y-122125000D01*
X39339285Y-122196428D01*
X39339285Y-122375000D01*
X39303571Y-122446428D01*
X39267857Y-122482142D01*
%TO.C,R32*%
X38317857Y-128039285D02*
X38067857Y-127682142D01*
X37889285Y-128039285D02*
X37889285Y-127289285D01*
X38175000Y-127289285D01*
X38246428Y-127325000D01*
X38282142Y-127360714D01*
X38317857Y-127432142D01*
X38317857Y-127539285D01*
X38282142Y-127610714D01*
X38246428Y-127646428D01*
X38175000Y-127682142D01*
X37889285Y-127682142D01*
X38567857Y-127289285D02*
X39032142Y-127289285D01*
X38782142Y-127575000D01*
X38889285Y-127575000D01*
X38960714Y-127610714D01*
X38996428Y-127646428D01*
X39032142Y-127717857D01*
X39032142Y-127896428D01*
X38996428Y-127967857D01*
X38960714Y-128003571D01*
X38889285Y-128039285D01*
X38675000Y-128039285D01*
X38603571Y-128003571D01*
X38567857Y-127967857D01*
X39317857Y-127360714D02*
X39353571Y-127325000D01*
X39425000Y-127289285D01*
X39603571Y-127289285D01*
X39675000Y-127325000D01*
X39710714Y-127360714D01*
X39746428Y-127432142D01*
X39746428Y-127503571D01*
X39710714Y-127610714D01*
X39282142Y-128039285D01*
X39746428Y-128039285D01*
%TO.C,R33*%
X34017857Y-128939285D02*
X33767857Y-128582142D01*
X33589285Y-128939285D02*
X33589285Y-128189285D01*
X33875000Y-128189285D01*
X33946428Y-128225000D01*
X33982142Y-128260714D01*
X34017857Y-128332142D01*
X34017857Y-128439285D01*
X33982142Y-128510714D01*
X33946428Y-128546428D01*
X33875000Y-128582142D01*
X33589285Y-128582142D01*
X34267857Y-128189285D02*
X34732142Y-128189285D01*
X34482142Y-128475000D01*
X34589285Y-128475000D01*
X34660714Y-128510714D01*
X34696428Y-128546428D01*
X34732142Y-128617857D01*
X34732142Y-128796428D01*
X34696428Y-128867857D01*
X34660714Y-128903571D01*
X34589285Y-128939285D01*
X34375000Y-128939285D01*
X34303571Y-128903571D01*
X34267857Y-128867857D01*
X34982142Y-128189285D02*
X35446428Y-128189285D01*
X35196428Y-128475000D01*
X35303571Y-128475000D01*
X35375000Y-128510714D01*
X35410714Y-128546428D01*
X35446428Y-128617857D01*
X35446428Y-128796428D01*
X35410714Y-128867857D01*
X35375000Y-128903571D01*
X35303571Y-128939285D01*
X35089285Y-128939285D01*
X35017857Y-128903571D01*
X34982142Y-128867857D01*
%TO.C,R34*%
X33139285Y-128482142D02*
X32782142Y-128732142D01*
X33139285Y-128910714D02*
X32389285Y-128910714D01*
X32389285Y-128625000D01*
X32425000Y-128553571D01*
X32460714Y-128517857D01*
X32532142Y-128482142D01*
X32639285Y-128482142D01*
X32710714Y-128517857D01*
X32746428Y-128553571D01*
X32782142Y-128625000D01*
X32782142Y-128910714D01*
X32389285Y-128232142D02*
X32389285Y-127767857D01*
X32675000Y-128017857D01*
X32675000Y-127910714D01*
X32710714Y-127839285D01*
X32746428Y-127803571D01*
X32817857Y-127767857D01*
X32996428Y-127767857D01*
X33067857Y-127803571D01*
X33103571Y-127839285D01*
X33139285Y-127910714D01*
X33139285Y-128125000D01*
X33103571Y-128196428D01*
X33067857Y-128232142D01*
X32639285Y-127125000D02*
X33139285Y-127125000D01*
X32353571Y-127303571D02*
X32889285Y-127482142D01*
X32889285Y-127017857D01*
%TO.C,Rsense1*%
X67485714Y-136339285D02*
X67235714Y-135982142D01*
X67057142Y-136339285D02*
X67057142Y-135589285D01*
X67342857Y-135589285D01*
X67414285Y-135625000D01*
X67450000Y-135660714D01*
X67485714Y-135732142D01*
X67485714Y-135839285D01*
X67450000Y-135910714D01*
X67414285Y-135946428D01*
X67342857Y-135982142D01*
X67057142Y-135982142D01*
X67771428Y-136303571D02*
X67842857Y-136339285D01*
X67985714Y-136339285D01*
X68057142Y-136303571D01*
X68092857Y-136232142D01*
X68092857Y-136196428D01*
X68057142Y-136125000D01*
X67985714Y-136089285D01*
X67878571Y-136089285D01*
X67807142Y-136053571D01*
X67771428Y-135982142D01*
X67771428Y-135946428D01*
X67807142Y-135875000D01*
X67878571Y-135839285D01*
X67985714Y-135839285D01*
X68057142Y-135875000D01*
X68700000Y-136303571D02*
X68628571Y-136339285D01*
X68485714Y-136339285D01*
X68414285Y-136303571D01*
X68378571Y-136232142D01*
X68378571Y-135946428D01*
X68414285Y-135875000D01*
X68485714Y-135839285D01*
X68628571Y-135839285D01*
X68700000Y-135875000D01*
X68735714Y-135946428D01*
X68735714Y-136017857D01*
X68378571Y-136089285D01*
X69057142Y-135839285D02*
X69057142Y-136339285D01*
X69057142Y-135910714D02*
X69092857Y-135875000D01*
X69164285Y-135839285D01*
X69271428Y-135839285D01*
X69342857Y-135875000D01*
X69378571Y-135946428D01*
X69378571Y-136339285D01*
X69700000Y-136303571D02*
X69771428Y-136339285D01*
X69914285Y-136339285D01*
X69985714Y-136303571D01*
X70021428Y-136232142D01*
X70021428Y-136196428D01*
X69985714Y-136125000D01*
X69914285Y-136089285D01*
X69807142Y-136089285D01*
X69735714Y-136053571D01*
X69700000Y-135982142D01*
X69700000Y-135946428D01*
X69735714Y-135875000D01*
X69807142Y-135839285D01*
X69914285Y-135839285D01*
X69985714Y-135875000D01*
X70628571Y-136303571D02*
X70557142Y-136339285D01*
X70414285Y-136339285D01*
X70342857Y-136303571D01*
X70307142Y-136232142D01*
X70307142Y-135946428D01*
X70342857Y-135875000D01*
X70414285Y-135839285D01*
X70557142Y-135839285D01*
X70628571Y-135875000D01*
X70664285Y-135946428D01*
X70664285Y-136017857D01*
X70307142Y-136089285D01*
X71378571Y-136339285D02*
X70950000Y-136339285D01*
X71164285Y-136339285D02*
X71164285Y-135589285D01*
X71092857Y-135696428D01*
X71021428Y-135767857D01*
X70950000Y-135803571D01*
%TO.C,L2*%
X69275000Y-156539285D02*
X68917857Y-156539285D01*
X68917857Y-155789285D01*
X69489285Y-155860714D02*
X69525000Y-155825000D01*
X69596428Y-155789285D01*
X69775000Y-155789285D01*
X69846428Y-155825000D01*
X69882142Y-155860714D01*
X69917857Y-155932142D01*
X69917857Y-156003571D01*
X69882142Y-156110714D01*
X69453571Y-156539285D01*
X69917857Y-156539285D01*
%TO.C,U1*%
X46714571Y-148295285D02*
X46714571Y-148902428D01*
X46750285Y-148973857D01*
X46786000Y-149009571D01*
X46857428Y-149045285D01*
X47000285Y-149045285D01*
X47071714Y-149009571D01*
X47107428Y-148973857D01*
X47143142Y-148902428D01*
X47143142Y-148295285D01*
X47893142Y-149045285D02*
X47464571Y-149045285D01*
X47678857Y-149045285D02*
X47678857Y-148295285D01*
X47607428Y-148402428D01*
X47536000Y-148473857D01*
X47464571Y-148509571D01*
%TO.C,R4*%
X43760000Y-155659285D02*
X43510000Y-155302142D01*
X43331428Y-155659285D02*
X43331428Y-154909285D01*
X43617142Y-154909285D01*
X43688571Y-154945000D01*
X43724285Y-154980714D01*
X43760000Y-155052142D01*
X43760000Y-155159285D01*
X43724285Y-155230714D01*
X43688571Y-155266428D01*
X43617142Y-155302142D01*
X43331428Y-155302142D01*
X44402857Y-155159285D02*
X44402857Y-155659285D01*
X44224285Y-154873571D02*
X44045714Y-155409285D01*
X44510000Y-155409285D01*
%TO.C,R2*%
X52299285Y-158367500D02*
X51942142Y-158617500D01*
X52299285Y-158796071D02*
X51549285Y-158796071D01*
X51549285Y-158510357D01*
X51585000Y-158438928D01*
X51620714Y-158403214D01*
X51692142Y-158367500D01*
X51799285Y-158367500D01*
X51870714Y-158403214D01*
X51906428Y-158438928D01*
X51942142Y-158510357D01*
X51942142Y-158796071D01*
X51620714Y-158081785D02*
X51585000Y-158046071D01*
X51549285Y-157974642D01*
X51549285Y-157796071D01*
X51585000Y-157724642D01*
X51620714Y-157688928D01*
X51692142Y-157653214D01*
X51763571Y-157653214D01*
X51870714Y-157688928D01*
X52299285Y-158117500D01*
X52299285Y-157653214D01*
%TO.C,R3*%
X54775000Y-153039285D02*
X54525000Y-152682142D01*
X54346428Y-153039285D02*
X54346428Y-152289285D01*
X54632142Y-152289285D01*
X54703571Y-152325000D01*
X54739285Y-152360714D01*
X54775000Y-152432142D01*
X54775000Y-152539285D01*
X54739285Y-152610714D01*
X54703571Y-152646428D01*
X54632142Y-152682142D01*
X54346428Y-152682142D01*
X55025000Y-152289285D02*
X55489285Y-152289285D01*
X55239285Y-152575000D01*
X55346428Y-152575000D01*
X55417857Y-152610714D01*
X55453571Y-152646428D01*
X55489285Y-152717857D01*
X55489285Y-152896428D01*
X55453571Y-152967857D01*
X55417857Y-153003571D01*
X55346428Y-153039285D01*
X55132142Y-153039285D01*
X55060714Y-153003571D01*
X55025000Y-152967857D01*
%TO.C,C6*%
X49967857Y-158265000D02*
X50003571Y-158300714D01*
X50039285Y-158407857D01*
X50039285Y-158479285D01*
X50003571Y-158586428D01*
X49932142Y-158657857D01*
X49860714Y-158693571D01*
X49717857Y-158729285D01*
X49610714Y-158729285D01*
X49467857Y-158693571D01*
X49396428Y-158657857D01*
X49325000Y-158586428D01*
X49289285Y-158479285D01*
X49289285Y-158407857D01*
X49325000Y-158300714D01*
X49360714Y-158265000D01*
X49289285Y-157622142D02*
X49289285Y-157765000D01*
X49325000Y-157836428D01*
X49360714Y-157872142D01*
X49467857Y-157943571D01*
X49610714Y-157979285D01*
X49896428Y-157979285D01*
X49967857Y-157943571D01*
X50003571Y-157907857D01*
X50039285Y-157836428D01*
X50039285Y-157693571D01*
X50003571Y-157622142D01*
X49967857Y-157586428D01*
X49896428Y-157550714D01*
X49717857Y-157550714D01*
X49646428Y-157586428D01*
X49610714Y-157622142D01*
X49575000Y-157693571D01*
X49575000Y-157836428D01*
X49610714Y-157907857D01*
X49646428Y-157943571D01*
X49717857Y-157979285D01*
%TO.C,C2*%
X43750000Y-154487857D02*
X43714285Y-154523571D01*
X43607142Y-154559285D01*
X43535714Y-154559285D01*
X43428571Y-154523571D01*
X43357142Y-154452142D01*
X43321428Y-154380714D01*
X43285714Y-154237857D01*
X43285714Y-154130714D01*
X43321428Y-153987857D01*
X43357142Y-153916428D01*
X43428571Y-153845000D01*
X43535714Y-153809285D01*
X43607142Y-153809285D01*
X43714285Y-153845000D01*
X43750000Y-153880714D01*
X44035714Y-153880714D02*
X44071428Y-153845000D01*
X44142857Y-153809285D01*
X44321428Y-153809285D01*
X44392857Y-153845000D01*
X44428571Y-153880714D01*
X44464285Y-153952142D01*
X44464285Y-154023571D01*
X44428571Y-154130714D01*
X44000000Y-154559285D01*
X44464285Y-154559285D01*
%TO.C,C3*%
X48767857Y-158325000D02*
X48803571Y-158360714D01*
X48839285Y-158467857D01*
X48839285Y-158539285D01*
X48803571Y-158646428D01*
X48732142Y-158717857D01*
X48660714Y-158753571D01*
X48517857Y-158789285D01*
X48410714Y-158789285D01*
X48267857Y-158753571D01*
X48196428Y-158717857D01*
X48125000Y-158646428D01*
X48089285Y-158539285D01*
X48089285Y-158467857D01*
X48125000Y-158360714D01*
X48160714Y-158325000D01*
X48089285Y-158075000D02*
X48089285Y-157610714D01*
X48375000Y-157860714D01*
X48375000Y-157753571D01*
X48410714Y-157682142D01*
X48446428Y-157646428D01*
X48517857Y-157610714D01*
X48696428Y-157610714D01*
X48767857Y-157646428D01*
X48803571Y-157682142D01*
X48839285Y-157753571D01*
X48839285Y-157967857D01*
X48803571Y-158039285D01*
X48767857Y-158075000D01*
%TO.C,C5*%
X51067857Y-158325000D02*
X51103571Y-158360714D01*
X51139285Y-158467857D01*
X51139285Y-158539285D01*
X51103571Y-158646428D01*
X51032142Y-158717857D01*
X50960714Y-158753571D01*
X50817857Y-158789285D01*
X50710714Y-158789285D01*
X50567857Y-158753571D01*
X50496428Y-158717857D01*
X50425000Y-158646428D01*
X50389285Y-158539285D01*
X50389285Y-158467857D01*
X50425000Y-158360714D01*
X50460714Y-158325000D01*
X50389285Y-157646428D02*
X50389285Y-158003571D01*
X50746428Y-158039285D01*
X50710714Y-158003571D01*
X50675000Y-157932142D01*
X50675000Y-157753571D01*
X50710714Y-157682142D01*
X50746428Y-157646428D01*
X50817857Y-157610714D01*
X50996428Y-157610714D01*
X51067857Y-157646428D01*
X51103571Y-157682142D01*
X51139285Y-157753571D01*
X51139285Y-157932142D01*
X51103571Y-158003571D01*
X51067857Y-158039285D01*
%TO.C,C4*%
X50417857Y-145990000D02*
X50453571Y-146025714D01*
X50489285Y-146132857D01*
X50489285Y-146204285D01*
X50453571Y-146311428D01*
X50382142Y-146382857D01*
X50310714Y-146418571D01*
X50167857Y-146454285D01*
X50060714Y-146454285D01*
X49917857Y-146418571D01*
X49846428Y-146382857D01*
X49775000Y-146311428D01*
X49739285Y-146204285D01*
X49739285Y-146132857D01*
X49775000Y-146025714D01*
X49810714Y-145990000D01*
X49989285Y-145347142D02*
X50489285Y-145347142D01*
X49703571Y-145525714D02*
X50239285Y-145704285D01*
X50239285Y-145240000D01*
%TO.C,R30*%
X41961160Y-144307142D02*
X41604017Y-144557142D01*
X41961160Y-144735714D02*
X41211160Y-144735714D01*
X41211160Y-144450000D01*
X41246875Y-144378571D01*
X41282589Y-144342857D01*
X41354017Y-144307142D01*
X41461160Y-144307142D01*
X41532589Y-144342857D01*
X41568303Y-144378571D01*
X41604017Y-144450000D01*
X41604017Y-144735714D01*
X41211160Y-144057142D02*
X41211160Y-143592857D01*
X41496875Y-143842857D01*
X41496875Y-143735714D01*
X41532589Y-143664285D01*
X41568303Y-143628571D01*
X41639732Y-143592857D01*
X41818303Y-143592857D01*
X41889732Y-143628571D01*
X41925446Y-143664285D01*
X41961160Y-143735714D01*
X41961160Y-143950000D01*
X41925446Y-144021428D01*
X41889732Y-144057142D01*
X41211160Y-143128571D02*
X41211160Y-143057142D01*
X41246875Y-142985714D01*
X41282589Y-142950000D01*
X41354017Y-142914285D01*
X41496875Y-142878571D01*
X41675446Y-142878571D01*
X41818303Y-142914285D01*
X41889732Y-142950000D01*
X41925446Y-142985714D01*
X41961160Y-143057142D01*
X41961160Y-143128571D01*
X41925446Y-143200000D01*
X41889732Y-143235714D01*
X41818303Y-143271428D01*
X41675446Y-143307142D01*
X41496875Y-143307142D01*
X41354017Y-143271428D01*
X41282589Y-143235714D01*
X41246875Y-143200000D01*
X41211160Y-143128571D01*
%TO.C,C24*%
X70367857Y-127982142D02*
X70403571Y-128017857D01*
X70439285Y-128125000D01*
X70439285Y-128196428D01*
X70403571Y-128303571D01*
X70332142Y-128375000D01*
X70260714Y-128410714D01*
X70117857Y-128446428D01*
X70010714Y-128446428D01*
X69867857Y-128410714D01*
X69796428Y-128375000D01*
X69725000Y-128303571D01*
X69689285Y-128196428D01*
X69689285Y-128125000D01*
X69725000Y-128017857D01*
X69760714Y-127982142D01*
X69760714Y-127696428D02*
X69725000Y-127660714D01*
X69689285Y-127589285D01*
X69689285Y-127410714D01*
X69725000Y-127339285D01*
X69760714Y-127303571D01*
X69832142Y-127267857D01*
X69903571Y-127267857D01*
X70010714Y-127303571D01*
X70439285Y-127732142D01*
X70439285Y-127267857D01*
X69939285Y-126625000D02*
X70439285Y-126625000D01*
X69653571Y-126803571D02*
X70189285Y-126982142D01*
X70189285Y-126517857D01*
%TO.C,C1*%
X71975000Y-122637857D02*
X71939285Y-122673571D01*
X71832142Y-122709285D01*
X71760714Y-122709285D01*
X71653571Y-122673571D01*
X71582142Y-122602142D01*
X71546428Y-122530714D01*
X71510714Y-122387857D01*
X71510714Y-122280714D01*
X71546428Y-122137857D01*
X71582142Y-122066428D01*
X71653571Y-121995000D01*
X71760714Y-121959285D01*
X71832142Y-121959285D01*
X71939285Y-121995000D01*
X71975000Y-122030714D01*
X72689285Y-122709285D02*
X72260714Y-122709285D01*
X72475000Y-122709285D02*
X72475000Y-121959285D01*
X72403571Y-122066428D01*
X72332142Y-122137857D01*
X72260714Y-122173571D01*
%TO.C,C28*%
X73517857Y-135067857D02*
X73482142Y-135103571D01*
X73375000Y-135139285D01*
X73303571Y-135139285D01*
X73196428Y-135103571D01*
X73125000Y-135032142D01*
X73089285Y-134960714D01*
X73053571Y-134817857D01*
X73053571Y-134710714D01*
X73089285Y-134567857D01*
X73125000Y-134496428D01*
X73196428Y-134425000D01*
X73303571Y-134389285D01*
X73375000Y-134389285D01*
X73482142Y-134425000D01*
X73517857Y-134460714D01*
X73803571Y-134460714D02*
X73839285Y-134425000D01*
X73910714Y-134389285D01*
X74089285Y-134389285D01*
X74160714Y-134425000D01*
X74196428Y-134460714D01*
X74232142Y-134532142D01*
X74232142Y-134603571D01*
X74196428Y-134710714D01*
X73767857Y-135139285D01*
X74232142Y-135139285D01*
X74660714Y-134710714D02*
X74589285Y-134675000D01*
X74553571Y-134639285D01*
X74517857Y-134567857D01*
X74517857Y-134532142D01*
X74553571Y-134460714D01*
X74589285Y-134425000D01*
X74660714Y-134389285D01*
X74803571Y-134389285D01*
X74875000Y-134425000D01*
X74910714Y-134460714D01*
X74946428Y-134532142D01*
X74946428Y-134567857D01*
X74910714Y-134639285D01*
X74875000Y-134675000D01*
X74803571Y-134710714D01*
X74660714Y-134710714D01*
X74589285Y-134746428D01*
X74553571Y-134782142D01*
X74517857Y-134853571D01*
X74517857Y-134996428D01*
X74553571Y-135067857D01*
X74589285Y-135103571D01*
X74660714Y-135139285D01*
X74803571Y-135139285D01*
X74875000Y-135103571D01*
X74910714Y-135067857D01*
X74946428Y-134996428D01*
X74946428Y-134853571D01*
X74910714Y-134782142D01*
X74875000Y-134746428D01*
X74803571Y-134710714D01*
%TO.C,C21*%
X70367857Y-125782142D02*
X70403571Y-125817857D01*
X70439285Y-125925000D01*
X70439285Y-125996428D01*
X70403571Y-126103571D01*
X70332142Y-126175000D01*
X70260714Y-126210714D01*
X70117857Y-126246428D01*
X70010714Y-126246428D01*
X69867857Y-126210714D01*
X69796428Y-126175000D01*
X69725000Y-126103571D01*
X69689285Y-125996428D01*
X69689285Y-125925000D01*
X69725000Y-125817857D01*
X69760714Y-125782142D01*
X69760714Y-125496428D02*
X69725000Y-125460714D01*
X69689285Y-125389285D01*
X69689285Y-125210714D01*
X69725000Y-125139285D01*
X69760714Y-125103571D01*
X69832142Y-125067857D01*
X69903571Y-125067857D01*
X70010714Y-125103571D01*
X70439285Y-125532142D01*
X70439285Y-125067857D01*
X70439285Y-124353571D02*
X70439285Y-124782142D01*
X70439285Y-124567857D02*
X69689285Y-124567857D01*
X69796428Y-124639285D01*
X69867857Y-124710714D01*
X69903571Y-124782142D01*
%TO.C,J1*%
X81650000Y-122389285D02*
X81650000Y-122925000D01*
X81614285Y-123032142D01*
X81542857Y-123103571D01*
X81435714Y-123139285D01*
X81364285Y-123139285D01*
X82400000Y-123139285D02*
X81971428Y-123139285D01*
X82185714Y-123139285D02*
X82185714Y-122389285D01*
X82114285Y-122496428D01*
X82042857Y-122567857D01*
X81971428Y-122603571D01*
%TO.C,L1*%
X71975000Y-130869285D02*
X71617857Y-130869285D01*
X71617857Y-130119285D01*
X72617857Y-130869285D02*
X72189285Y-130869285D01*
X72403571Y-130869285D02*
X72403571Y-130119285D01*
X72332142Y-130226428D01*
X72260714Y-130297857D01*
X72189285Y-130333571D01*
%TO.C,kibuzzard-628BC257*%
G36*
X82745772Y-124838522D02*
G01*
X82772127Y-124751642D01*
X82814924Y-124671574D01*
X82872520Y-124601393D01*
X82942701Y-124543798D01*
X83022769Y-124501000D01*
X83109648Y-124474646D01*
X83200000Y-124465747D01*
X83290352Y-124474646D01*
X83377231Y-124501000D01*
X83457299Y-124543798D01*
X83527480Y-124601393D01*
X83585076Y-124671574D01*
X83627873Y-124751642D01*
X83654228Y-124838522D01*
X83663127Y-124928873D01*
X83663127Y-126871127D01*
X83654228Y-126961478D01*
X83627873Y-127048358D01*
X83585076Y-127128426D01*
X83527480Y-127198607D01*
X83457299Y-127256202D01*
X83377231Y-127299000D01*
X83290352Y-127325354D01*
X83200000Y-127334253D01*
X83109648Y-127325354D01*
X83022769Y-127299000D01*
X82942701Y-127256202D01*
X82872520Y-127198607D01*
X82814924Y-127128426D01*
X82772127Y-127048358D01*
X82745772Y-126961478D01*
X82736873Y-126871127D01*
X82736873Y-126477850D01*
X82789790Y-126477850D01*
X82796299Y-126546748D01*
X82815825Y-126611200D01*
X82848369Y-126669303D01*
X82893930Y-126719150D01*
X82952191Y-126760108D01*
X83022835Y-126791540D01*
X83105544Y-126811543D01*
X83200000Y-126818210D01*
X83295409Y-126812495D01*
X83378435Y-126795350D01*
X83448920Y-126767728D01*
X83506705Y-126730580D01*
X83551790Y-126684384D01*
X83584175Y-126629615D01*
X83603701Y-126566909D01*
X83610210Y-126496900D01*
X83607035Y-126419271D01*
X83597510Y-126354025D01*
X83574650Y-126267030D01*
X83182220Y-126267030D01*
X83182220Y-126423240D01*
X83469240Y-126423240D01*
X83473050Y-126453720D01*
X83474320Y-126484200D01*
X83457651Y-126560083D01*
X83407645Y-126615010D01*
X83354940Y-126639704D01*
X83285725Y-126654521D01*
X83200000Y-126659460D01*
X83141739Y-126656761D01*
X83088875Y-126648665D01*
X83002515Y-126613105D01*
X82946000Y-126550240D01*
X82925680Y-126456260D01*
X82939650Y-126372440D01*
X82971400Y-126303860D01*
X82846940Y-126263220D01*
X82831700Y-126289255D01*
X82812650Y-126333070D01*
X82796775Y-126395935D01*
X82789790Y-126477850D01*
X82736873Y-126477850D01*
X82736873Y-125640920D01*
X82807570Y-125640920D01*
X82807570Y-125781890D01*
X83291440Y-125781890D01*
X83241910Y-125804274D01*
X83184760Y-125830785D01*
X83122847Y-125860630D01*
X83059030Y-125893015D01*
X82994101Y-125927146D01*
X82928855Y-125962230D01*
X82865831Y-125997790D01*
X82807570Y-126033350D01*
X82807570Y-126159080D01*
X83593700Y-126159080D01*
X83593700Y-126018110D01*
X83071730Y-126018110D01*
X83158866Y-125970908D01*
X83245861Y-125925823D01*
X83332715Y-125882855D01*
X83419569Y-125842003D01*
X83506564Y-125803268D01*
X83593700Y-125766650D01*
X83593700Y-125640920D01*
X82807570Y-125640920D01*
X82736873Y-125640920D01*
X82736873Y-125325960D01*
X82798680Y-125325960D01*
X82802490Y-125413590D01*
X82817730Y-125513920D01*
X83584810Y-125513920D01*
X83599415Y-125428195D01*
X83603860Y-125346280D01*
X83598304Y-125269604D01*
X83581635Y-125199595D01*
X83552901Y-125137524D01*
X83511150Y-125084660D01*
X83455746Y-125041639D01*
X83386055Y-125009095D01*
X83301124Y-124988616D01*
X83200000Y-124981790D01*
X83101099Y-124987981D01*
X83017755Y-125006555D01*
X82948857Y-125036241D01*
X82893295Y-125075770D01*
X82850909Y-125125141D01*
X82821540Y-125184355D01*
X82804395Y-125251824D01*
X82798680Y-125325960D01*
X82736873Y-125325960D01*
X82736873Y-124928873D01*
X82745772Y-124838522D01*
G37*
G36*
X83256039Y-125142921D02*
G01*
X83307315Y-125150065D01*
X83391770Y-125181815D01*
X83447650Y-125240235D01*
X83467970Y-125329770D01*
X83467970Y-125343740D01*
X83466700Y-125357710D01*
X82938380Y-125357710D01*
X82935205Y-125334850D01*
X82934570Y-125311990D01*
X82956795Y-125226900D01*
X83015850Y-125174830D01*
X83100940Y-125148160D01*
X83200000Y-125140540D01*
X83256039Y-125142921D01*
G37*
%TO.C,kibuzzard-628BC247*%
G36*
X82753869Y-128821362D02*
G01*
X82779753Y-128736031D01*
X82821788Y-128657390D01*
X82878357Y-128588460D01*
X82947287Y-128531891D01*
X83025928Y-128489857D01*
X83111259Y-128463972D01*
X83200000Y-128455232D01*
X83288741Y-128463972D01*
X83374072Y-128489857D01*
X83452713Y-128531891D01*
X83521643Y-128588460D01*
X83578212Y-128657390D01*
X83620247Y-128736031D01*
X83646131Y-128821362D01*
X83654872Y-128910103D01*
X83654872Y-131489897D01*
X83646131Y-131578638D01*
X83620247Y-131663969D01*
X83578212Y-131742610D01*
X83521643Y-131811540D01*
X83452713Y-131868109D01*
X83374072Y-131910143D01*
X83288741Y-131936028D01*
X83200000Y-131944768D01*
X83111259Y-131936028D01*
X83025928Y-131910143D01*
X82947287Y-131868109D01*
X82878357Y-131811540D01*
X82821788Y-131742610D01*
X82779753Y-131663969D01*
X82753869Y-131578638D01*
X82745128Y-131489897D01*
X82745128Y-131237590D01*
X82983465Y-131237590D01*
X83204445Y-131237590D01*
X83204445Y-131436980D01*
X83332715Y-131436980D01*
X83332715Y-131237590D01*
X83553695Y-131237590D01*
X83553695Y-131102970D01*
X83332715Y-131102970D01*
X83332715Y-130903580D01*
X83204445Y-130903580D01*
X83204445Y-131102970D01*
X82983465Y-131102970D01*
X82983465Y-131237590D01*
X82745128Y-131237590D01*
X82745128Y-130547980D01*
X82798045Y-130547980D01*
X82804395Y-130614179D01*
X82823445Y-130680695D01*
X82855830Y-130743401D01*
X82902185Y-130798170D01*
X83011405Y-130720700D01*
X82951715Y-130640690D01*
X82933935Y-130563220D01*
X82959970Y-130489560D01*
X83034265Y-130460350D01*
X83101575Y-130483845D01*
X83170155Y-130543535D01*
X83206509Y-130581000D01*
X83244450Y-130621005D01*
X83284773Y-130661010D01*
X83328270Y-130698475D01*
X83375419Y-130731495D01*
X83426695Y-130758165D01*
X83482575Y-130775786D01*
X83543535Y-130781660D01*
X83570205Y-130782295D01*
X83601955Y-130779120D01*
X83601955Y-130266040D01*
X83472415Y-130266040D01*
X83472415Y-130603860D01*
X83430505Y-130590525D01*
X83385420Y-130558140D01*
X83342240Y-130517500D01*
X83306045Y-130479400D01*
X83242545Y-130414630D01*
X83173965Y-130357480D01*
X83100940Y-130316840D01*
X83022835Y-130301600D01*
X82924410Y-130321920D01*
X82853925Y-130376530D01*
X82812015Y-130455270D01*
X82798045Y-130547980D01*
X82745128Y-130547980D01*
X82745128Y-129839320D01*
X82815825Y-129839320D01*
X82869959Y-129890120D01*
X82930760Y-129940920D01*
X82995371Y-129990450D01*
X83060935Y-130037440D01*
X83126181Y-130081255D01*
X83189840Y-130121260D01*
X83249371Y-130155868D01*
X83302235Y-130183490D01*
X83416535Y-130183490D01*
X83416535Y-129855830D01*
X83601955Y-129855830D01*
X83601955Y-129699620D01*
X83416535Y-129699620D01*
X83416535Y-129614530D01*
X83288265Y-129614530D01*
X83288265Y-129699620D01*
X82815825Y-129699620D01*
X82815825Y-129839320D01*
X82745128Y-129839320D01*
X82745128Y-128963020D01*
X82815825Y-128963020D01*
X82815825Y-129126850D01*
X82881865Y-129138280D01*
X82958065Y-129152250D01*
X83040456Y-129168125D01*
X83125070Y-129185270D01*
X83210160Y-129203685D01*
X83293980Y-129223370D01*
X83372561Y-129243690D01*
X83441935Y-129264010D01*
X83371609Y-129284489D01*
X83292710Y-129305285D01*
X83208890Y-129325605D01*
X83123800Y-129344655D01*
X83039345Y-129362276D01*
X82957430Y-129378310D01*
X82881706Y-129391645D01*
X82815825Y-129401170D01*
X82815825Y-129566270D01*
X82886945Y-129551665D01*
X82975845Y-129530710D01*
X83042379Y-129513918D01*
X83111594Y-129495714D01*
X83183490Y-129476100D01*
X83256797Y-129455357D01*
X83330246Y-129433767D01*
X83403835Y-129411330D01*
X83508610Y-129377993D01*
X83601955Y-129346560D01*
X83601955Y-129185270D01*
X83534292Y-129160999D01*
X83465077Y-129137292D01*
X83394310Y-129114150D01*
X83323190Y-129091925D01*
X83252917Y-129070970D01*
X83183490Y-129051285D01*
X83082366Y-129024298D01*
X82986005Y-129000485D01*
X82896470Y-128980006D01*
X82815825Y-128963020D01*
X82745128Y-128963020D01*
X82745128Y-128910103D01*
X82753869Y-128821362D01*
G37*
G36*
X83288265Y-130033630D02*
G01*
X83215875Y-129995530D01*
X83142850Y-129950445D01*
X83073635Y-129902820D01*
X83011405Y-129855830D01*
X83288265Y-129855830D01*
X83288265Y-130033630D01*
G37*
D11*
%TO.C,U6*%
X81710000Y-151000000D02*
X81710000Y-157010000D01*
X74890000Y-153250000D02*
X74890000Y-157010000D01*
X74890000Y-157010000D02*
X76150000Y-157010000D01*
X81710000Y-157010000D02*
X80450000Y-157010000D01*
D14*
%TO.C,U8*%
X55515000Y-134100000D02*
X61540000Y-134100000D01*
X61540000Y-134100000D02*
X61540000Y-134215000D01*
X61540000Y-139250000D02*
X55515000Y-139250000D01*
X55515000Y-134215000D02*
X55515000Y-134100000D01*
X55515000Y-139250000D02*
X55515000Y-139135000D01*
X61540000Y-139135000D02*
X61540000Y-139250000D01*
D15*
X62315000Y-134550000D02*
G75*
G03*
X62315000Y-134550000I-100000J0D01*
G01*
D14*
%TO.C,U7*%
X44596875Y-134025000D02*
X50621875Y-134025000D01*
X50621875Y-134025000D02*
X50621875Y-134140000D01*
X50621875Y-139175000D02*
X44596875Y-139175000D01*
X44596875Y-134140000D02*
X44596875Y-134025000D01*
X44596875Y-139175000D02*
X44596875Y-139060000D01*
X50621875Y-139060000D02*
X50621875Y-139175000D01*
D15*
X51396875Y-134475000D02*
G75*
G03*
X51396875Y-134475000I-100000J0D01*
G01*
D11*
%TO.C,C19*%
X65255000Y-144867836D02*
X65255000Y-144652164D01*
X64535000Y-144867836D02*
X64535000Y-144652164D01*
%TO.C,C23*%
X64025000Y-142627836D02*
X64025000Y-142412164D01*
X63305000Y-142627836D02*
X63305000Y-142412164D01*
%TO.C,C27*%
X57950000Y-151515580D02*
X57950000Y-151234420D01*
X56930000Y-151515580D02*
X56930000Y-151234420D01*
%TO.C,C29*%
X74485000Y-155200000D02*
X74485000Y-152490000D01*
X72915000Y-152490000D02*
X72915000Y-155200000D01*
X74485000Y-152490000D02*
X72915000Y-152490000D01*
%TO.C,C31*%
X71800000Y-159185000D02*
X74510000Y-159185000D01*
X74510000Y-157615000D02*
X71800000Y-157615000D01*
X74510000Y-159185000D02*
X74510000Y-157615000D01*
%TO.C,C38*%
X61260000Y-126607836D02*
X61260000Y-126392164D01*
X60540000Y-126607836D02*
X60540000Y-126392164D01*
%TO.C,C42*%
X68712164Y-133360000D02*
X68927836Y-133360000D01*
X68712164Y-132640000D02*
X68927836Y-132640000D01*
%TO.C,D10*%
X35445000Y-124620000D02*
X36105000Y-124620000D01*
X37765000Y-126030000D02*
X37765000Y-124620000D01*
X37105000Y-124620000D02*
X37765000Y-124620000D01*
X35445000Y-124620000D02*
X35445000Y-126650000D01*
%TO.C,D11*%
X36800000Y-138308000D02*
X36150000Y-138308000D01*
X36800000Y-135188000D02*
X36150000Y-135188000D01*
X36800000Y-138308000D02*
X38475000Y-138308000D01*
X36800000Y-135188000D02*
X37450000Y-135188000D01*
%TO.C,FB1*%
X58735242Y-158310000D02*
X57064758Y-158310000D01*
X58735242Y-156490000D02*
X57064758Y-156490000D01*
%TO.C,R7*%
X26308641Y-130710000D02*
X26001359Y-130710000D01*
X26308641Y-129950000D02*
X26001359Y-129950000D01*
%TO.C,R8*%
X31084000Y-125945641D02*
X31084000Y-125638359D01*
X31844000Y-125945641D02*
X31844000Y-125638359D01*
%TO.C,R17*%
X61377500Y-154462742D02*
X61377500Y-154937258D01*
X62422500Y-154462742D02*
X62422500Y-154937258D01*
%TO.C,R18*%
X60367500Y-151187742D02*
X60367500Y-151662258D01*
X61412500Y-151187742D02*
X61412500Y-151662258D01*
%TO.C,R19*%
X58667500Y-151187742D02*
X58667500Y-151662258D01*
X59712500Y-151187742D02*
X59712500Y-151662258D01*
%TO.C,R20*%
X58047742Y-149352500D02*
X58522258Y-149352500D01*
X58047742Y-148307500D02*
X58522258Y-148307500D01*
%TO.C,R37*%
X40585000Y-136512936D02*
X40585000Y-136967064D01*
X39115000Y-136512936D02*
X39115000Y-136967064D01*
%TO.C,R38*%
X31687500Y-136962742D02*
X31687500Y-137437258D01*
X32732500Y-136962742D02*
X32732500Y-137437258D01*
%TO.C,R40*%
X32614564Y-139630000D02*
X31160436Y-139630000D01*
X32614564Y-141450000D02*
X31160436Y-141450000D01*
D15*
%TO.C,U2*%
X33425000Y-147800000D02*
G75*
G03*
X33425000Y-147800000I-100000J0D01*
G01*
%TO.C,U4*%
X66000000Y-143275000D02*
X66000000Y-142625000D01*
X66000000Y-142625000D02*
X68950000Y-142625000D01*
X68950000Y-142625000D02*
X68950000Y-143275000D01*
X68950000Y-143275000D02*
X66000000Y-143275000D01*
X65925000Y-144775000D02*
X65925000Y-143625000D01*
D11*
%TO.C,C25*%
X75190000Y-148145563D02*
X76254437Y-149210000D01*
X74162500Y-143952500D02*
X74950000Y-143952500D01*
X82010000Y-142390000D02*
X82010000Y-144740000D01*
X74556250Y-143558750D02*
X74556250Y-144346250D01*
X75190000Y-143454437D02*
X75190000Y-144740000D01*
X76254437Y-142390000D02*
X82010000Y-142390000D01*
X82010000Y-149210000D02*
X82010000Y-146860000D01*
X76254437Y-149210000D02*
X82010000Y-149210000D01*
X75190000Y-143454437D02*
X76254437Y-142390000D01*
X75190000Y-148145563D02*
X75190000Y-146860000D01*
%TO.C,R26*%
X50614375Y-141602258D02*
X50614375Y-141127742D01*
X49569375Y-141602258D02*
X49569375Y-141127742D01*
%TO.C,R27*%
X47679375Y-141182742D02*
X47679375Y-141657258D01*
X48724375Y-141182742D02*
X48724375Y-141657258D01*
%TO.C,R28*%
X62087500Y-141837258D02*
X62087500Y-141362742D01*
X61042500Y-141837258D02*
X61042500Y-141362742D01*
%TO.C,R29*%
X56972500Y-141380242D02*
X56972500Y-141854758D01*
X58017500Y-141380242D02*
X58017500Y-141854758D01*
%TO.C,R31*%
X53487500Y-141837258D02*
X53487500Y-141362742D01*
X52442500Y-141837258D02*
X52442500Y-141362742D01*
%TO.C,R35*%
X43859375Y-141160242D02*
X43859375Y-141634758D01*
X44904375Y-141160242D02*
X44904375Y-141634758D01*
%TO.C,R36*%
X55232500Y-141412742D02*
X55232500Y-141887258D01*
X56277500Y-141412742D02*
X56277500Y-141887258D01*
D15*
%TO.C,U3*%
X63400000Y-149400000D02*
X63400000Y-149400000D01*
X63500000Y-149400000D02*
X63500000Y-149400000D01*
X63400000Y-149400000D02*
X63400000Y-149400000D01*
X63400000Y-149400000D02*
G75*
G03*
X63500000Y-149400000I50000J0D01*
G01*
X63500000Y-149400000D02*
G75*
G03*
X63400000Y-149400000I-50000J0D01*
G01*
X63400000Y-149400000D02*
G75*
G03*
X63500000Y-149400000I50000J0D01*
G01*
D11*
%TO.C,C7*%
X29952000Y-147730836D02*
X29952000Y-147515164D01*
X29232000Y-147730836D02*
X29232000Y-147515164D01*
%TO.C,C8*%
X37000000Y-146132836D02*
X37000000Y-145917164D01*
X36280000Y-146132836D02*
X36280000Y-145917164D01*
%TO.C,C9*%
X36340000Y-155092164D02*
X36340000Y-155307836D01*
X37060000Y-155092164D02*
X37060000Y-155307836D01*
%TO.C,C10*%
X38040000Y-146142836D02*
X38040000Y-145927164D01*
X37320000Y-146142836D02*
X37320000Y-145927164D01*
%TO.C,C11*%
X31390000Y-155378164D02*
X31390000Y-155593836D01*
X32110000Y-155378164D02*
X32110000Y-155593836D01*
%TO.C,C12*%
X34190000Y-155078164D02*
X34190000Y-155293836D01*
X34910000Y-155078164D02*
X34910000Y-155293836D01*
%TO.C,C13*%
X33090000Y-155078164D02*
X33090000Y-155293836D01*
X33810000Y-155078164D02*
X33810000Y-155293836D01*
%TO.C,C14*%
X35280000Y-155083164D02*
X35280000Y-155298836D01*
X36000000Y-155083164D02*
X36000000Y-155298836D01*
%TO.C,C18*%
X71212164Y-147060000D02*
X71427836Y-147060000D01*
X71212164Y-146340000D02*
X71427836Y-146340000D01*
%TO.C,C20*%
X68067164Y-140410000D02*
X68282836Y-140410000D01*
X68067164Y-139690000D02*
X68282836Y-139690000D01*
%TO.C,C22*%
X68895600Y-153852164D02*
X68895600Y-154067836D01*
X69615600Y-153852164D02*
X69615600Y-154067836D01*
%TO.C,C26*%
X61220000Y-148982836D02*
X61220000Y-148767164D01*
X60500000Y-148982836D02*
X60500000Y-148767164D01*
%TO.C,C43*%
X40265000Y-125038748D02*
X40265000Y-125561252D01*
X41735000Y-125038748D02*
X41735000Y-125561252D01*
%TO.C,C45*%
X46986875Y-141868752D02*
X46986875Y-141346248D01*
X45516875Y-141868752D02*
X45516875Y-141346248D01*
%TO.C,C46*%
X60260000Y-142078752D02*
X60260000Y-141556248D01*
X58790000Y-142078752D02*
X58790000Y-141556248D01*
%TO.C,C51*%
X43341875Y-141005336D02*
X43341875Y-140789664D01*
X42621875Y-141005336D02*
X42621875Y-140789664D01*
%TO.C,C52*%
X54715000Y-142257836D02*
X54715000Y-142042164D01*
X53995000Y-142257836D02*
X53995000Y-142042164D01*
%TO.C,C53*%
X50589711Y-128437500D02*
X50374039Y-128437500D01*
X50589711Y-129157500D02*
X50374039Y-129157500D01*
%TO.C,C54*%
X61702836Y-128590000D02*
X61487164Y-128590000D01*
X61702836Y-129310000D02*
X61487164Y-129310000D01*
%TO.C,C55*%
X50048127Y-131932500D02*
X49525623Y-131932500D01*
X50048127Y-133402500D02*
X49525623Y-133402500D01*
%TO.C,C56*%
X61093752Y-132015000D02*
X60571248Y-132015000D01*
X61093752Y-133485000D02*
X60571248Y-133485000D01*
%TO.C,C57*%
X50005627Y-129662500D02*
X49483123Y-129662500D01*
X50005627Y-131132500D02*
X49483123Y-131132500D01*
%TO.C,C58*%
X61103752Y-129785000D02*
X60581248Y-129785000D01*
X61103752Y-131255000D02*
X60581248Y-131255000D01*
%TO.C,C59*%
X42965000Y-125138748D02*
X42965000Y-125661252D01*
X44435000Y-125138748D02*
X44435000Y-125661252D01*
%TO.C,C60*%
X45085000Y-125123748D02*
X45085000Y-125646252D01*
X46555000Y-125123748D02*
X46555000Y-125646252D01*
%TO.C,C61*%
X34510000Y-137328080D02*
X34510000Y-137046920D01*
X33490000Y-137328080D02*
X33490000Y-137046920D01*
%TO.C,C64*%
X29515000Y-136818748D02*
X29515000Y-137341252D01*
X30985000Y-136818748D02*
X30985000Y-137341252D01*
%TO.C,C66*%
X68442836Y-145340000D02*
X68227164Y-145340000D01*
X68442836Y-146060000D02*
X68227164Y-146060000D01*
%TO.C,D1*%
X28072500Y-128165000D02*
X25787500Y-128165000D01*
X28072500Y-129635000D02*
X28072500Y-128165000D01*
X25787500Y-129635000D02*
X28072500Y-129635000D01*
%TO.C,D2*%
X29265000Y-123815000D02*
X29265000Y-126100000D01*
X30735000Y-123815000D02*
X29265000Y-123815000D01*
X30735000Y-126100000D02*
X30735000Y-123815000D01*
%TO.C,R9*%
X29844758Y-151853500D02*
X29370242Y-151853500D01*
X29844758Y-152898500D02*
X29370242Y-152898500D01*
%TO.C,R10*%
X30827500Y-146848742D02*
X30827500Y-147323258D01*
X31872500Y-146848742D02*
X31872500Y-147323258D01*
%TO.C,R11*%
X29372742Y-151348500D02*
X29847258Y-151348500D01*
X29372742Y-150303500D02*
X29847258Y-150303500D01*
%TO.C,R12*%
X30822500Y-156205758D02*
X30822500Y-155731242D01*
X29777500Y-156205758D02*
X29777500Y-155731242D01*
%TO.C,R42*%
X38877500Y-141262742D02*
X38877500Y-141737258D01*
X39922500Y-141262742D02*
X39922500Y-141737258D01*
%TO.C,C15*%
X70679420Y-152200000D02*
X70960580Y-152200000D01*
X70679420Y-151180000D02*
X70960580Y-151180000D01*
%TO.C,C16*%
X70634420Y-148610000D02*
X70915580Y-148610000D01*
X70634420Y-147590000D02*
X70915580Y-147590000D01*
%TO.C,C17*%
X70684420Y-150440000D02*
X70965580Y-150440000D01*
X70684420Y-149420000D02*
X70965580Y-149420000D01*
%TO.C,C30*%
X64790000Y-125811252D02*
X64790000Y-124388748D01*
X66610000Y-125811252D02*
X66610000Y-124388748D01*
%TO.C,C32*%
X61970000Y-125761252D02*
X61970000Y-124338748D01*
X63790000Y-125761252D02*
X63790000Y-124338748D01*
%TO.C,C35*%
X67490000Y-125811252D02*
X67490000Y-124388748D01*
X69310000Y-125811252D02*
X69310000Y-124388748D01*
%TO.C,C44*%
X34760000Y-124907836D02*
X34760000Y-124692164D01*
X34040000Y-124907836D02*
X34040000Y-124692164D01*
%TO.C,J2*%
X34190000Y-130900000D02*
X34190000Y-129690000D01*
X41410000Y-129190000D02*
X33690000Y-129190000D01*
X34190000Y-129690000D02*
X40910000Y-129690000D01*
X33690000Y-131710000D02*
X34690000Y-131710000D01*
X34690000Y-131710000D02*
X34690000Y-133210000D01*
X40910000Y-129690000D02*
X40910000Y-130900000D01*
X40910000Y-130900000D02*
X41410000Y-130900000D01*
X33690000Y-129190000D02*
X33690000Y-133210000D01*
X33390000Y-133510000D02*
X35890000Y-133510000D01*
X33690000Y-130900000D02*
X34190000Y-130900000D01*
X41410000Y-133210000D02*
X41410000Y-129190000D01*
X33390000Y-131010000D02*
X33390000Y-133510000D01*
X33690000Y-133210000D02*
X41410000Y-133210000D01*
X40410000Y-131710000D02*
X40410000Y-133210000D01*
X41410000Y-131710000D02*
X40410000Y-131710000D01*
%TO.C,J3*%
X26730000Y-135470000D02*
X26730000Y-143150000D01*
X24070000Y-134200000D02*
X24070000Y-132870000D01*
X24070000Y-143150000D02*
X26730000Y-143150000D01*
X24070000Y-135470000D02*
X26730000Y-135470000D01*
X24070000Y-132870000D02*
X25400000Y-132870000D01*
X24070000Y-135470000D02*
X24070000Y-143150000D01*
%TO.C,R5*%
X26882500Y-147402258D02*
X26882500Y-146927742D01*
X25837500Y-147402258D02*
X25837500Y-146927742D01*
%TO.C,R6*%
X27615500Y-146904742D02*
X27615500Y-147379258D01*
X28660500Y-146904742D02*
X28660500Y-147379258D01*
%TO.C,R13*%
X66046359Y-139620000D02*
X66353641Y-139620000D01*
X66046359Y-140380000D02*
X66353641Y-140380000D01*
%TO.C,R16*%
X64485000Y-142663641D02*
X64485000Y-142356359D01*
X65245000Y-142663641D02*
X65245000Y-142356359D01*
%TO.C,R25*%
X39522500Y-125637258D02*
X39522500Y-125162742D01*
X38477500Y-125637258D02*
X38477500Y-125162742D01*
%TO.C,R32*%
X36646359Y-127320000D02*
X36953641Y-127320000D01*
X36646359Y-128080000D02*
X36953641Y-128080000D01*
%TO.C,R33*%
X34880000Y-127046359D02*
X34880000Y-127353641D01*
X34120000Y-127046359D02*
X34120000Y-127353641D01*
%TO.C,R34*%
X32377500Y-125062742D02*
X32377500Y-125537258D01*
X33422500Y-125062742D02*
X33422500Y-125537258D01*
%TO.C,Rsense1*%
X69427064Y-135335000D02*
X68972936Y-135335000D01*
X69427064Y-133865000D02*
X68972936Y-133865000D01*
%TO.C,L2*%
X68340300Y-156900000D02*
X68390300Y-156900000D01*
X68140300Y-156900000D02*
X68140300Y-157900000D01*
X68140300Y-157900000D02*
X63540300Y-157900000D01*
X68340300Y-154100000D02*
X68390300Y-154100000D01*
X68140300Y-154100000D02*
X68340300Y-154100000D01*
X63040300Y-154100000D02*
X63540300Y-154100000D01*
X68140300Y-153100000D02*
X68140300Y-154100000D01*
X63540300Y-157900000D02*
X63540300Y-156900000D01*
X63540300Y-153100000D02*
X68140300Y-153100000D01*
X68390300Y-154100000D02*
X68390300Y-156900000D01*
X63540300Y-156900000D02*
X63040300Y-156900000D01*
X63040300Y-154125000D02*
X63040300Y-156900000D01*
X63540300Y-154100000D02*
X63540300Y-153100000D01*
X68340300Y-156900000D02*
X68140300Y-156900000D01*
X68140300Y-156900000D02*
X68140300Y-156900000D01*
X68140300Y-156900000D02*
X68340300Y-156900000D01*
X68340300Y-156900000D02*
X68340300Y-156900000D01*
D16*
%TO.C,U1*%
X52475000Y-149050000D02*
G75*
G03*
X52475000Y-149050000I-125000J0D01*
G01*
D11*
%TO.C,R4*%
X45548641Y-155700000D02*
X45241359Y-155700000D01*
X45548641Y-154940000D02*
X45241359Y-154940000D01*
%TO.C,R2*%
X52390000Y-156471359D02*
X52390000Y-156778641D01*
X51630000Y-156471359D02*
X51630000Y-156778641D01*
%TO.C,R3*%
X54526359Y-153260000D02*
X54833641Y-153260000D01*
X54526359Y-154020000D02*
X54833641Y-154020000D01*
%TO.C,C6*%
X49370000Y-156527164D02*
X49370000Y-156742836D01*
X50090000Y-156527164D02*
X50090000Y-156742836D01*
%TO.C,C2*%
X45517836Y-153880000D02*
X45302164Y-153880000D01*
X45517836Y-154600000D02*
X45302164Y-154600000D01*
%TO.C,C3*%
X48250000Y-156532164D02*
X48250000Y-156747836D01*
X48970000Y-156532164D02*
X48970000Y-156747836D01*
%TO.C,C5*%
X50480000Y-156527164D02*
X50480000Y-156742836D01*
X51200000Y-156527164D02*
X51200000Y-156742836D01*
%TO.C,C4*%
X50460000Y-147672836D02*
X50460000Y-147457164D01*
X49740000Y-147672836D02*
X49740000Y-147457164D01*
%TO.C,R30*%
X42004375Y-141634758D02*
X42004375Y-141160242D01*
X40959375Y-141634758D02*
X40959375Y-141160242D01*
%TO.C,C24*%
X71959420Y-127810000D02*
X72240580Y-127810000D01*
X71959420Y-126790000D02*
X72240580Y-126790000D01*
%TO.C,C1*%
X71959420Y-124310000D02*
X72240580Y-124310000D01*
X71959420Y-123290000D02*
X72240580Y-123290000D01*
%TO.C,C28*%
X75290000Y-140345563D02*
X76354437Y-141410000D01*
X74262500Y-136152500D02*
X75050000Y-136152500D01*
X82110000Y-134590000D02*
X82110000Y-136940000D01*
X74656250Y-135758750D02*
X74656250Y-136546250D01*
X75290000Y-135654437D02*
X75290000Y-136940000D01*
X76354437Y-134590000D02*
X82110000Y-134590000D01*
X82110000Y-141410000D02*
X82110000Y-139060000D01*
X76354437Y-141410000D02*
X82110000Y-141410000D01*
X75290000Y-135654437D02*
X76354437Y-134590000D01*
X75290000Y-140345563D02*
X75290000Y-139060000D01*
%TO.C,C21*%
X71959420Y-126010000D02*
X72240580Y-126010000D01*
X71959420Y-124990000D02*
X72240580Y-124990000D01*
%TO.C,J1*%
X80180000Y-125965000D02*
G75*
G03*
X80180000Y-125965000I-1680000J0D01*
G01*
X79984000Y-131834000D02*
G75*
G03*
X80180450Y-131015617I-1483995J788998D01*
G01*
X77016000Y-130256000D02*
G75*
G03*
X77016047Y-131834089I1483995J-789000D01*
G01*
X79289000Y-129561000D02*
G75*
G03*
X77710911Y-129561047I-789000J-1483995D01*
G01*
X77711000Y-132529000D02*
G75*
G03*
X79289089Y-132528953I789000J1483995D01*
G01*
X80180000Y-131045000D02*
G75*
G03*
X79983352Y-130256288I-1679991J2D01*
G01*
X80560000Y-133885000D02*
X82800000Y-133885000D01*
X77225000Y-124895000D02*
X77284000Y-124954000D01*
X76500000Y-133645000D02*
X76500000Y-123365000D01*
X77431000Y-124690000D02*
X77524000Y-124784000D01*
X74440000Y-133645000D02*
X74440000Y-123365000D01*
X74440000Y-123365000D02*
X82560000Y-123365000D01*
X74440000Y-133645000D02*
X82560000Y-133645000D01*
X79716000Y-126975000D02*
X79774000Y-127034000D01*
X82560000Y-133645000D02*
X82560000Y-123365000D01*
X80500000Y-133645000D02*
X80500000Y-123365000D01*
X79476000Y-127145000D02*
X79569000Y-127239000D01*
X82800000Y-133885000D02*
X82800000Y-131885000D01*
%TO.C,L1*%
X72262779Y-128590000D02*
X71937221Y-128590000D01*
X72262779Y-129610000D02*
X71937221Y-129610000D01*
%TD*%
M02*
