%TF.GenerationSoftware,KiCad,Pcbnew,(6.0.2)*%
%TF.CreationDate,2022-05-23T20:35:17+03:00*%
%TF.ProjectId,The_Qi_wireless_charger_tx,5468655f-5169-45f7-9769-72656c657373,Rev 2*%
%TF.SameCoordinates,Original*%
%TF.FileFunction,Paste,Top*%
%TF.FilePolarity,Positive*%
%FSLAX46Y46*%
G04 Gerber Fmt 4.6, Leading zero omitted, Abs format (unit mm)*
G04 Created by KiCad (PCBNEW (6.0.2)) date 2022-05-23 20:35:17*
%MOMM*%
%LPD*%
G01*
G04 APERTURE LIST*
G04 Aperture macros list*
%AMRoundRect*
0 Rectangle with rounded corners*
0 $1 Rounding radius*
0 $2 $3 $4 $5 $6 $7 $8 $9 X,Y pos of 4 corners*
0 Add a 4 corners polygon primitive as box body*
4,1,4,$2,$3,$4,$5,$6,$7,$8,$9,$2,$3,0*
0 Add four circle primitives for the rounded corners*
1,1,$1+$1,$2,$3*
1,1,$1+$1,$4,$5*
1,1,$1+$1,$6,$7*
1,1,$1+$1,$8,$9*
0 Add four rect primitives between the rounded corners*
20,1,$1+$1,$2,$3,$4,$5,0*
20,1,$1+$1,$4,$5,$6,$7,0*
20,1,$1+$1,$6,$7,$8,$9,0*
20,1,$1+$1,$8,$9,$2,$3,0*%
G04 Aperture macros list end*
%ADD10C,0.010000*%
%ADD11R,1.500000X2.000000*%
%ADD12R,3.800000X2.000000*%
%ADD13RoundRect,0.140000X0.170000X-0.140000X0.170000X0.140000X-0.170000X0.140000X-0.170000X-0.140000X0*%
%ADD14RoundRect,0.225000X0.250000X-0.225000X0.250000X0.225000X-0.250000X0.225000X-0.250000X-0.225000X0*%
%ADD15RoundRect,0.250000X-0.275000X0.312500X-0.275000X-0.312500X0.275000X-0.312500X0.275000X0.312500X0*%
%ADD16RoundRect,0.250000X0.312500X0.275000X-0.312500X0.275000X-0.312500X-0.275000X0.312500X-0.275000X0*%
%ADD17RoundRect,0.140000X-0.140000X-0.170000X0.140000X-0.170000X0.140000X0.170000X-0.140000X0.170000X0*%
%ADD18R,0.450000X0.700000*%
%ADD19RoundRect,0.150000X0.587500X0.150000X-0.587500X0.150000X-0.587500X-0.150000X0.587500X-0.150000X0*%
%ADD20RoundRect,0.250000X0.275000X0.700000X-0.275000X0.700000X-0.275000X-0.700000X0.275000X-0.700000X0*%
%ADD21RoundRect,0.135000X0.135000X0.185000X-0.135000X0.185000X-0.135000X-0.185000X0.135000X-0.185000X0*%
%ADD22RoundRect,0.135000X0.185000X-0.135000X0.185000X0.135000X-0.185000X0.135000X-0.185000X-0.135000X0*%
%ADD23RoundRect,0.200000X-0.275000X0.200000X-0.275000X-0.200000X0.275000X-0.200000X0.275000X0.200000X0*%
%ADD24RoundRect,0.200000X-0.200000X-0.275000X0.200000X-0.275000X0.200000X0.275000X-0.200000X0.275000X0*%
%ADD25RoundRect,0.250000X-0.450000X0.262500X-0.450000X-0.262500X0.450000X-0.262500X0.450000X0.262500X0*%
%ADD26RoundRect,0.250000X0.312500X0.625000X-0.312500X0.625000X-0.312500X-0.625000X0.312500X-0.625000X0*%
%ADD27R,0.850000X0.200000*%
%ADD28R,0.200000X0.850000*%
%ADD29R,3.700000X3.700000*%
%ADD30R,0.450000X1.150000*%
%ADD31RoundRect,0.250000X-1.500000X-0.550000X1.500000X-0.550000X1.500000X0.550000X-1.500000X0.550000X0*%
%ADD32RoundRect,0.200000X0.275000X-0.200000X0.275000X0.200000X-0.275000X0.200000X-0.275000X-0.200000X0*%
%ADD33R,0.600000X0.250000*%
%ADD34R,0.250000X0.600000*%
%ADD35R,0.250000X1.700000*%
%ADD36R,0.400000X2.100000*%
%ADD37R,0.560000X0.250000*%
%ADD38RoundRect,0.140000X-0.170000X0.140000X-0.170000X-0.140000X0.170000X-0.140000X0.170000X0.140000X0*%
%ADD39RoundRect,0.250000X-0.475000X0.250000X-0.475000X-0.250000X0.475000X-0.250000X0.475000X0.250000X0*%
%ADD40RoundRect,0.250000X0.475000X-0.250000X0.475000X0.250000X-0.475000X0.250000X-0.475000X-0.250000X0*%
%ADD41RoundRect,0.140000X0.140000X0.170000X-0.140000X0.170000X-0.140000X-0.170000X0.140000X-0.170000X0*%
%ADD42RoundRect,0.250000X0.250000X0.475000X-0.250000X0.475000X-0.250000X-0.475000X0.250000X-0.475000X0*%
%ADD43RoundRect,0.218750X0.218750X0.256250X-0.218750X0.256250X-0.218750X-0.256250X0.218750X-0.256250X0*%
%ADD44RoundRect,0.218750X-0.256250X0.218750X-0.256250X-0.218750X0.256250X-0.218750X0.256250X0.218750X0*%
%ADD45RoundRect,0.200000X0.200000X0.275000X-0.200000X0.275000X-0.200000X-0.275000X0.200000X-0.275000X0*%
%ADD46RoundRect,0.225000X-0.225000X-0.250000X0.225000X-0.250000X0.225000X0.250000X-0.225000X0.250000X0*%
%ADD47RoundRect,0.250000X0.650000X-0.325000X0.650000X0.325000X-0.650000X0.325000X-0.650000X-0.325000X0*%
%ADD48RoundRect,0.135000X-0.135000X-0.185000X0.135000X-0.185000X0.135000X0.185000X-0.135000X0.185000X0*%
%ADD49RoundRect,0.135000X-0.185000X0.135000X-0.185000X-0.135000X0.185000X-0.135000X0.185000X0.135000X0*%
%ADD50RoundRect,0.250000X0.262500X0.450000X-0.262500X0.450000X-0.262500X-0.450000X0.262500X-0.450000X0*%
%ADD51R,1.500000X2.500000*%
%ADD52R,0.300000X1.000000*%
%ADD53R,1.000000X0.300000*%
%ADD54R,3.250000X3.250000*%
G04 APERTURE END LIST*
D10*
%TO.C,U8*%
X61740000Y-136975000D02*
X61340000Y-136975000D01*
X61340000Y-136975000D02*
X61340000Y-137725000D01*
X61340000Y-137725000D02*
X61740000Y-137725000D01*
X61740000Y-137725000D02*
X61740000Y-136975000D01*
G36*
X61740000Y-137725000D02*
G01*
X61340000Y-137725000D01*
X61340000Y-136975000D01*
X61740000Y-136975000D01*
X61740000Y-137725000D01*
G37*
X61740000Y-137725000D02*
X61340000Y-137725000D01*
X61340000Y-136975000D01*
X61740000Y-136975000D01*
X61740000Y-137725000D01*
X61740000Y-138225000D02*
X61340000Y-138225000D01*
X61340000Y-138225000D02*
X61340000Y-138975000D01*
X61340000Y-138975000D02*
X61740000Y-138975000D01*
X61740000Y-138975000D02*
X61740000Y-138225000D01*
G36*
X61740000Y-138975000D02*
G01*
X61340000Y-138975000D01*
X61340000Y-138225000D01*
X61740000Y-138225000D01*
X61740000Y-138975000D01*
G37*
X61740000Y-138975000D02*
X61340000Y-138975000D01*
X61340000Y-138225000D01*
X61740000Y-138225000D01*
X61740000Y-138975000D01*
X55790000Y-135675000D02*
X55290000Y-135675000D01*
X55290000Y-135675000D02*
X55290000Y-136425000D01*
X55290000Y-136425000D02*
X55790000Y-136425000D01*
X55790000Y-136425000D02*
X55790000Y-135675000D01*
G36*
X55790000Y-136425000D02*
G01*
X55290000Y-136425000D01*
X55290000Y-135675000D01*
X55790000Y-135675000D01*
X55790000Y-136425000D01*
G37*
X55790000Y-136425000D02*
X55290000Y-136425000D01*
X55290000Y-135675000D01*
X55790000Y-135675000D01*
X55790000Y-136425000D01*
X55790000Y-134400000D02*
X55290000Y-134400000D01*
X55290000Y-134400000D02*
X55290000Y-135150000D01*
X55290000Y-135150000D02*
X55790000Y-135150000D01*
X55790000Y-135150000D02*
X55790000Y-134400000D01*
G36*
X55790000Y-135150000D02*
G01*
X55290000Y-135150000D01*
X55290000Y-134400000D01*
X55790000Y-134400000D01*
X55790000Y-135150000D01*
G37*
X55790000Y-135150000D02*
X55290000Y-135150000D01*
X55290000Y-134400000D01*
X55790000Y-134400000D01*
X55790000Y-135150000D01*
X61740000Y-134400000D02*
X61340000Y-134400000D01*
X61340000Y-134400000D02*
X61340000Y-135150000D01*
X61340000Y-135150000D02*
X61740000Y-135150000D01*
X61740000Y-135150000D02*
X61740000Y-134400000D01*
G36*
X61740000Y-135150000D02*
G01*
X61340000Y-135150000D01*
X61340000Y-134400000D01*
X61740000Y-134400000D01*
X61740000Y-135150000D01*
G37*
X61740000Y-135150000D02*
X61340000Y-135150000D01*
X61340000Y-134400000D01*
X61740000Y-134400000D01*
X61740000Y-135150000D01*
X61740000Y-135675000D02*
X61340000Y-135675000D01*
X61340000Y-135675000D02*
X61340000Y-136425000D01*
X61340000Y-136425000D02*
X61740000Y-136425000D01*
X61740000Y-136425000D02*
X61740000Y-135675000D01*
G36*
X61740000Y-136425000D02*
G01*
X61340000Y-136425000D01*
X61340000Y-135675000D01*
X61740000Y-135675000D01*
X61740000Y-136425000D01*
G37*
X61740000Y-136425000D02*
X61340000Y-136425000D01*
X61340000Y-135675000D01*
X61740000Y-135675000D01*
X61740000Y-136425000D01*
X55790000Y-138225000D02*
X55290000Y-138225000D01*
X55290000Y-138225000D02*
X55290000Y-138975000D01*
X55290000Y-138975000D02*
X55790000Y-138975000D01*
X55790000Y-138975000D02*
X55790000Y-138225000D01*
G36*
X55790000Y-138975000D02*
G01*
X55290000Y-138975000D01*
X55290000Y-138225000D01*
X55790000Y-138225000D01*
X55790000Y-138975000D01*
G37*
X55790000Y-138975000D02*
X55290000Y-138975000D01*
X55290000Y-138225000D01*
X55790000Y-138225000D01*
X55790000Y-138975000D01*
X55790000Y-136950000D02*
X55290000Y-136950000D01*
X55290000Y-136950000D02*
X55290000Y-137700000D01*
X55290000Y-137700000D02*
X55790000Y-137700000D01*
X55790000Y-137700000D02*
X55790000Y-136950000D01*
G36*
X55790000Y-137700000D02*
G01*
X55290000Y-137700000D01*
X55290000Y-136950000D01*
X55790000Y-136950000D01*
X55790000Y-137700000D01*
G37*
X55790000Y-137700000D02*
X55290000Y-137700000D01*
X55290000Y-136950000D01*
X55790000Y-136950000D01*
X55790000Y-137700000D01*
%TO.C,U7*%
X50821875Y-136900000D02*
X50421875Y-136900000D01*
X50421875Y-136900000D02*
X50421875Y-137650000D01*
X50421875Y-137650000D02*
X50821875Y-137650000D01*
X50821875Y-137650000D02*
X50821875Y-136900000D01*
G36*
X50821875Y-137650000D02*
G01*
X50421875Y-137650000D01*
X50421875Y-136900000D01*
X50821875Y-136900000D01*
X50821875Y-137650000D01*
G37*
X50821875Y-137650000D02*
X50421875Y-137650000D01*
X50421875Y-136900000D01*
X50821875Y-136900000D01*
X50821875Y-137650000D01*
X50821875Y-138150000D02*
X50421875Y-138150000D01*
X50421875Y-138150000D02*
X50421875Y-138900000D01*
X50421875Y-138900000D02*
X50821875Y-138900000D01*
X50821875Y-138900000D02*
X50821875Y-138150000D01*
G36*
X50821875Y-138900000D02*
G01*
X50421875Y-138900000D01*
X50421875Y-138150000D01*
X50821875Y-138150000D01*
X50821875Y-138900000D01*
G37*
X50821875Y-138900000D02*
X50421875Y-138900000D01*
X50421875Y-138150000D01*
X50821875Y-138150000D01*
X50821875Y-138900000D01*
X44871875Y-135600000D02*
X44371875Y-135600000D01*
X44371875Y-135600000D02*
X44371875Y-136350000D01*
X44371875Y-136350000D02*
X44871875Y-136350000D01*
X44871875Y-136350000D02*
X44871875Y-135600000D01*
G36*
X44871875Y-136350000D02*
G01*
X44371875Y-136350000D01*
X44371875Y-135600000D01*
X44871875Y-135600000D01*
X44871875Y-136350000D01*
G37*
X44871875Y-136350000D02*
X44371875Y-136350000D01*
X44371875Y-135600000D01*
X44871875Y-135600000D01*
X44871875Y-136350000D01*
X44871875Y-134325000D02*
X44371875Y-134325000D01*
X44371875Y-134325000D02*
X44371875Y-135075000D01*
X44371875Y-135075000D02*
X44871875Y-135075000D01*
X44871875Y-135075000D02*
X44871875Y-134325000D01*
G36*
X44871875Y-135075000D02*
G01*
X44371875Y-135075000D01*
X44371875Y-134325000D01*
X44871875Y-134325000D01*
X44871875Y-135075000D01*
G37*
X44871875Y-135075000D02*
X44371875Y-135075000D01*
X44371875Y-134325000D01*
X44871875Y-134325000D01*
X44871875Y-135075000D01*
X50821875Y-134325000D02*
X50421875Y-134325000D01*
X50421875Y-134325000D02*
X50421875Y-135075000D01*
X50421875Y-135075000D02*
X50821875Y-135075000D01*
X50821875Y-135075000D02*
X50821875Y-134325000D01*
G36*
X50821875Y-135075000D02*
G01*
X50421875Y-135075000D01*
X50421875Y-134325000D01*
X50821875Y-134325000D01*
X50821875Y-135075000D01*
G37*
X50821875Y-135075000D02*
X50421875Y-135075000D01*
X50421875Y-134325000D01*
X50821875Y-134325000D01*
X50821875Y-135075000D01*
X50821875Y-135600000D02*
X50421875Y-135600000D01*
X50421875Y-135600000D02*
X50421875Y-136350000D01*
X50421875Y-136350000D02*
X50821875Y-136350000D01*
X50821875Y-136350000D02*
X50821875Y-135600000D01*
G36*
X50821875Y-136350000D02*
G01*
X50421875Y-136350000D01*
X50421875Y-135600000D01*
X50821875Y-135600000D01*
X50821875Y-136350000D01*
G37*
X50821875Y-136350000D02*
X50421875Y-136350000D01*
X50421875Y-135600000D01*
X50821875Y-135600000D01*
X50821875Y-136350000D01*
X44871875Y-138150000D02*
X44371875Y-138150000D01*
X44371875Y-138150000D02*
X44371875Y-138900000D01*
X44371875Y-138900000D02*
X44871875Y-138900000D01*
X44871875Y-138900000D02*
X44871875Y-138150000D01*
G36*
X44871875Y-138900000D02*
G01*
X44371875Y-138900000D01*
X44371875Y-138150000D01*
X44871875Y-138150000D01*
X44871875Y-138900000D01*
G37*
X44871875Y-138900000D02*
X44371875Y-138900000D01*
X44371875Y-138150000D01*
X44871875Y-138150000D01*
X44871875Y-138900000D01*
X44871875Y-136875000D02*
X44371875Y-136875000D01*
X44371875Y-136875000D02*
X44371875Y-137625000D01*
X44371875Y-137625000D02*
X44871875Y-137625000D01*
X44871875Y-137625000D02*
X44871875Y-136875000D01*
G36*
X44871875Y-137625000D02*
G01*
X44371875Y-137625000D01*
X44371875Y-136875000D01*
X44871875Y-136875000D01*
X44871875Y-137625000D01*
G37*
X44871875Y-137625000D02*
X44371875Y-137625000D01*
X44371875Y-136875000D01*
X44871875Y-136875000D01*
X44871875Y-137625000D01*
%TD*%
D11*
%TO.C,U6*%
X80600000Y-151950000D03*
D12*
X78300000Y-158250000D03*
D11*
X78300000Y-151950000D03*
X76000000Y-151950000D03*
%TD*%
D13*
%TO.C,C19*%
X64895000Y-145240000D03*
X64895000Y-144280000D03*
%TD*%
%TO.C,C23*%
X63665000Y-143000000D03*
X63665000Y-142040000D03*
%TD*%
D14*
%TO.C,C27*%
X57440000Y-152150000D03*
X57440000Y-150600000D03*
%TD*%
D15*
%TO.C,C29*%
X73700000Y-153312500D03*
X73700000Y-155087500D03*
%TD*%
D16*
%TO.C,C31*%
X73687500Y-158400000D03*
X71912500Y-158400000D03*
%TD*%
D13*
%TO.C,C38*%
X60900000Y-126980000D03*
X60900000Y-126020000D03*
%TD*%
D17*
%TO.C,C42*%
X68340000Y-133000000D03*
X69300000Y-133000000D03*
%TD*%
D18*
%TO.C,D10*%
X35955000Y-126350000D03*
X37255000Y-126350000D03*
X36605000Y-124350000D03*
%TD*%
D19*
%TO.C,D11*%
X37737500Y-137698000D03*
X37737500Y-135798000D03*
X35862500Y-136748000D03*
%TD*%
D20*
%TO.C,FB1*%
X59475000Y-157400000D03*
X56325000Y-157400000D03*
%TD*%
D21*
%TO.C,R7*%
X26665000Y-130330000D03*
X25645000Y-130330000D03*
%TD*%
D22*
%TO.C,R8*%
X31464000Y-126302000D03*
X31464000Y-125282000D03*
%TD*%
D23*
%TO.C,R17*%
X61900000Y-153875000D03*
X61900000Y-155525000D03*
%TD*%
%TO.C,R18*%
X60890000Y-150600000D03*
X60890000Y-152250000D03*
%TD*%
%TO.C,R19*%
X59190000Y-150600000D03*
X59190000Y-152250000D03*
%TD*%
D24*
%TO.C,R20*%
X57460000Y-148830000D03*
X59110000Y-148830000D03*
%TD*%
D25*
%TO.C,R37*%
X39850000Y-135827500D03*
X39850000Y-137652500D03*
%TD*%
D23*
%TO.C,R38*%
X32210000Y-136375000D03*
X32210000Y-138025000D03*
%TD*%
D26*
%TO.C,R40*%
X33350000Y-140540000D03*
X30425000Y-140540000D03*
%TD*%
D27*
%TO.C,U2*%
X33750000Y-148400000D03*
X33750000Y-148800000D03*
X33750000Y-149200000D03*
X33750000Y-149600000D03*
X33750000Y-150000000D03*
X33750000Y-150400000D03*
X33750000Y-150800000D03*
X33750000Y-151200000D03*
X33750000Y-151600000D03*
X33750000Y-152000000D03*
D28*
X34400000Y-152650000D03*
X34800000Y-152650000D03*
X35200000Y-152650000D03*
X35600000Y-152650000D03*
X36000000Y-152650000D03*
X36400000Y-152650000D03*
X36800000Y-152650000D03*
X37200000Y-152650000D03*
X37600000Y-152650000D03*
X38000000Y-152650000D03*
D27*
X38650000Y-152000000D03*
X38650000Y-151600000D03*
X38650000Y-151200000D03*
X38650000Y-150800000D03*
X38650000Y-150400000D03*
X38650000Y-150000000D03*
X38650000Y-149600000D03*
X38650000Y-149200000D03*
X38650000Y-148800000D03*
X38650000Y-148400000D03*
D28*
X38000000Y-147750000D03*
X37600000Y-147750000D03*
X37200000Y-147750000D03*
X36800000Y-147750000D03*
X36400000Y-147750000D03*
X36000000Y-147750000D03*
X35600000Y-147750000D03*
X35200000Y-147750000D03*
X34800000Y-147750000D03*
X34400000Y-147750000D03*
D29*
X36200000Y-150200000D03*
%TD*%
D30*
%TO.C,U4*%
X66500000Y-144200000D03*
X67150000Y-144200000D03*
X67800000Y-144200000D03*
X68450000Y-144200000D03*
X68450000Y-141700000D03*
X67800000Y-141700000D03*
X67150000Y-141700000D03*
X66500000Y-141700000D03*
%TD*%
D31*
%TO.C,C25*%
X75900000Y-145800000D03*
X81300000Y-145800000D03*
%TD*%
D32*
%TO.C,R26*%
X50091875Y-142190000D03*
X50091875Y-140540000D03*
%TD*%
D23*
%TO.C,R27*%
X48201875Y-140595000D03*
X48201875Y-142245000D03*
%TD*%
D32*
%TO.C,R28*%
X61565000Y-142425000D03*
X61565000Y-140775000D03*
%TD*%
D23*
%TO.C,R29*%
X57495000Y-140792500D03*
X57495000Y-142442500D03*
%TD*%
D32*
%TO.C,R31*%
X52965000Y-142425000D03*
X52965000Y-140775000D03*
%TD*%
D23*
%TO.C,R35*%
X44381875Y-140572500D03*
X44381875Y-142222500D03*
%TD*%
%TO.C,R36*%
X55755000Y-140825000D03*
X55755000Y-142475000D03*
%TD*%
D33*
%TO.C,U3*%
X64500000Y-149350000D03*
X64500000Y-149850000D03*
X64500000Y-150350000D03*
X64500000Y-150850000D03*
D34*
X64970000Y-151500000D03*
D35*
X66270000Y-150950000D03*
D34*
X66770000Y-151500000D03*
D36*
X66850000Y-149450000D03*
X65690000Y-149450000D03*
D34*
X64970000Y-148700000D03*
D37*
X67320000Y-150350000D03*
X67320000Y-149850000D03*
X67320000Y-149350000D03*
%TD*%
D13*
%TO.C,C7*%
X29592000Y-148103000D03*
X29592000Y-147143000D03*
%TD*%
%TO.C,C8*%
X36640000Y-146505000D03*
X36640000Y-145545000D03*
%TD*%
D38*
%TO.C,C9*%
X36700000Y-154720000D03*
X36700000Y-155680000D03*
%TD*%
D13*
%TO.C,C10*%
X37680000Y-146515000D03*
X37680000Y-145555000D03*
%TD*%
D38*
%TO.C,C11*%
X31750000Y-155006000D03*
X31750000Y-155966000D03*
%TD*%
%TO.C,C12*%
X34550000Y-154706000D03*
X34550000Y-155666000D03*
%TD*%
%TO.C,C13*%
X33450000Y-154706000D03*
X33450000Y-155666000D03*
%TD*%
%TO.C,C14*%
X35640000Y-154711000D03*
X35640000Y-155671000D03*
%TD*%
D17*
%TO.C,C18*%
X70840000Y-146700000D03*
X71800000Y-146700000D03*
%TD*%
%TO.C,C20*%
X67695000Y-140050000D03*
X68655000Y-140050000D03*
%TD*%
D38*
%TO.C,C22*%
X69255600Y-153480000D03*
X69255600Y-154440000D03*
%TD*%
D13*
%TO.C,C26*%
X60860000Y-149355000D03*
X60860000Y-148395000D03*
%TD*%
D39*
%TO.C,C43*%
X41000000Y-124350000D03*
X41000000Y-126250000D03*
%TD*%
D40*
%TO.C,C45*%
X46251875Y-142557500D03*
X46251875Y-140657500D03*
%TD*%
%TO.C,C46*%
X59525000Y-142767500D03*
X59525000Y-140867500D03*
%TD*%
D13*
%TO.C,C51*%
X42981875Y-141377500D03*
X42981875Y-140417500D03*
%TD*%
%TO.C,C52*%
X54355000Y-142630000D03*
X54355000Y-141670000D03*
%TD*%
D41*
%TO.C,C53*%
X50961875Y-128797500D03*
X50001875Y-128797500D03*
%TD*%
%TO.C,C54*%
X62075000Y-128950000D03*
X61115000Y-128950000D03*
%TD*%
D42*
%TO.C,C55*%
X50736875Y-132667500D03*
X48836875Y-132667500D03*
%TD*%
%TO.C,C56*%
X61782500Y-132750000D03*
X59882500Y-132750000D03*
%TD*%
%TO.C,C57*%
X50694375Y-130397500D03*
X48794375Y-130397500D03*
%TD*%
%TO.C,C58*%
X61792500Y-130520000D03*
X59892500Y-130520000D03*
%TD*%
D39*
%TO.C,C59*%
X43700000Y-124450000D03*
X43700000Y-126350000D03*
%TD*%
%TO.C,C60*%
X45820000Y-124435000D03*
X45820000Y-126335000D03*
%TD*%
D14*
%TO.C,C61*%
X34000000Y-137962500D03*
X34000000Y-136412500D03*
%TD*%
D39*
%TO.C,C64*%
X30250000Y-136130000D03*
X30250000Y-138030000D03*
%TD*%
D41*
%TO.C,C66*%
X68815000Y-145700000D03*
X67855000Y-145700000D03*
%TD*%
D43*
%TO.C,D1*%
X27375000Y-128900000D03*
X25800000Y-128900000D03*
%TD*%
D44*
%TO.C,D2*%
X30000000Y-124512500D03*
X30000000Y-126087500D03*
%TD*%
D45*
%TO.C,R9*%
X30432500Y-152376000D03*
X28782500Y-152376000D03*
%TD*%
D23*
%TO.C,R10*%
X31350000Y-146261000D03*
X31350000Y-147911000D03*
%TD*%
D24*
%TO.C,R11*%
X28785000Y-150826000D03*
X30435000Y-150826000D03*
%TD*%
D32*
%TO.C,R12*%
X30300000Y-156793500D03*
X30300000Y-155143500D03*
%TD*%
D23*
%TO.C,R42*%
X39400000Y-140675000D03*
X39400000Y-142325000D03*
%TD*%
D46*
%TO.C,C15*%
X70045000Y-151690000D03*
X71595000Y-151690000D03*
%TD*%
%TO.C,C16*%
X70000000Y-148100000D03*
X71550000Y-148100000D03*
%TD*%
%TO.C,C17*%
X70050000Y-149930000D03*
X71600000Y-149930000D03*
%TD*%
D47*
%TO.C,C30*%
X65700000Y-126575000D03*
X65700000Y-123625000D03*
%TD*%
%TO.C,C32*%
X62880000Y-126525000D03*
X62880000Y-123575000D03*
%TD*%
%TO.C,C35*%
X68400000Y-126575000D03*
X68400000Y-123625000D03*
%TD*%
D13*
%TO.C,C44*%
X34400000Y-125280000D03*
X34400000Y-124320000D03*
%TD*%
D32*
%TO.C,R5*%
X26360000Y-147990000D03*
X26360000Y-146340000D03*
%TD*%
D23*
%TO.C,R6*%
X28138000Y-146317000D03*
X28138000Y-147967000D03*
%TD*%
D48*
%TO.C,R13*%
X65690000Y-140000000D03*
X66710000Y-140000000D03*
%TD*%
D22*
%TO.C,R16*%
X64865000Y-143020000D03*
X64865000Y-142000000D03*
%TD*%
D32*
%TO.C,R25*%
X39000000Y-126225000D03*
X39000000Y-124575000D03*
%TD*%
D48*
%TO.C,R32*%
X36290000Y-127700000D03*
X37310000Y-127700000D03*
%TD*%
D49*
%TO.C,R33*%
X34500000Y-126690000D03*
X34500000Y-127710000D03*
%TD*%
D23*
%TO.C,R34*%
X32900000Y-124475000D03*
X32900000Y-126125000D03*
%TD*%
D50*
%TO.C,Rsense1*%
X70112500Y-134600000D03*
X68287500Y-134600000D03*
%TD*%
D51*
%TO.C,L2*%
X67540300Y-155500000D03*
X63840300Y-155500000D03*
%TD*%
D52*
%TO.C,U1*%
X51600000Y-149550000D03*
X51100000Y-149550000D03*
X50600000Y-149550000D03*
X50100000Y-149550000D03*
X49600000Y-149550000D03*
X49100000Y-149550000D03*
X48600000Y-149550000D03*
D53*
X47750000Y-150400000D03*
X47750000Y-150900000D03*
X47750000Y-151400000D03*
X47750000Y-151900000D03*
X47750000Y-152400000D03*
X47750000Y-152900000D03*
X47750000Y-153400000D03*
D52*
X48600000Y-154250000D03*
X49100000Y-154250000D03*
X49600000Y-154250000D03*
X50100000Y-154250000D03*
X50600000Y-154250000D03*
X51100000Y-154250000D03*
X51600000Y-154250000D03*
D53*
X52450000Y-153400000D03*
X52450000Y-152900000D03*
X52450000Y-152400000D03*
X52450000Y-151900000D03*
X52450000Y-151400000D03*
X52450000Y-150900000D03*
X52450000Y-150400000D03*
D54*
X50100000Y-151900000D03*
%TD*%
D21*
%TO.C,R4*%
X45905000Y-155320000D03*
X44885000Y-155320000D03*
%TD*%
D49*
%TO.C,R2*%
X52010000Y-156115000D03*
X52010000Y-157135000D03*
%TD*%
D48*
%TO.C,R3*%
X54170000Y-153640000D03*
X55190000Y-153640000D03*
%TD*%
D38*
%TO.C,C6*%
X49730000Y-156155000D03*
X49730000Y-157115000D03*
%TD*%
D41*
%TO.C,C2*%
X45890000Y-154240000D03*
X44930000Y-154240000D03*
%TD*%
D38*
%TO.C,C3*%
X48610000Y-156160000D03*
X48610000Y-157120000D03*
%TD*%
%TO.C,C5*%
X50840000Y-156155000D03*
X50840000Y-157115000D03*
%TD*%
D13*
%TO.C,C4*%
X50100000Y-148045000D03*
X50100000Y-147085000D03*
%TD*%
D32*
%TO.C,R30*%
X41481875Y-142222500D03*
X41481875Y-140572500D03*
%TD*%
D46*
%TO.C,C24*%
X71325000Y-127300000D03*
X72875000Y-127300000D03*
%TD*%
%TO.C,C1*%
X71325000Y-123800000D03*
X72875000Y-123800000D03*
%TD*%
D31*
%TO.C,C28*%
X76000000Y-138000000D03*
X81400000Y-138000000D03*
%TD*%
D46*
%TO.C,C21*%
X71325000Y-125500000D03*
X72875000Y-125500000D03*
%TD*%
D43*
%TO.C,L1*%
X72887500Y-129100000D03*
X71312500Y-129100000D03*
%TD*%
M02*
